<mxfile host="app.diagrams.net" modified="2024-05-27T11:58:21.497Z" agent="Mozilla/5.0 (Windows NT 10.0; Win64; x64) AppleWebKit/537.36 (KHTML, like Gecko) Chrome/121.0.0.0 Safari/537.36" etag="BMvvUE0FZMS1XAaTrItL" version="24.4.8" type="device">
  <diagram name="PÃ¡gina-1" id="jOxVtycaUjLqVU8bPWOX">
    <mxGraphModel dx="1434" dy="782" grid="1" gridSize="10" guides="1" tooltips="1" connect="1" arrows="1" fold="1" page="1" pageScale="1" pageWidth="827" pageHeight="1169" math="0" shadow="0">
      <root>
        <mxCell id="0" />
        <mxCell id="1" parent="0" />
        <mxCell id="RWkYhsvv5Hg0yzNs0XMB-1" value="" style="rounded=0;whiteSpace=wrap;html=1;fillColor=#7a7a7a;strokeColor=#090D07;" vertex="1" parent="1">
          <mxGeometry x="460" y="20" width="260" height="385" as="geometry" />
        </mxCell>
        <mxCell id="RWkYhsvv5Hg0yzNs0XMB-2" value="" style="rounded=0;whiteSpace=wrap;html=1;strokeColor=#000000;" vertex="1" parent="1">
          <mxGeometry x="530" y="175" width="170" height="30" as="geometry" />
        </mxCell>
        <mxCell id="RWkYhsvv5Hg0yzNs0XMB-5" value="" style="rounded=0;whiteSpace=wrap;html=1;strokeColor=#000000;" vertex="1" parent="1">
          <mxGeometry x="530" y="215" width="170" height="30" as="geometry" />
        </mxCell>
        <mxCell id="RWkYhsvv5Hg0yzNs0XMB-6" value="" style="rounded=0;whiteSpace=wrap;html=1;strokeColor=#000000;" vertex="1" parent="1">
          <mxGeometry x="540" y="260" width="160" height="30" as="geometry" />
        </mxCell>
        <mxCell id="RWkYhsvv5Hg0yzNs0XMB-8" value="Senha:" style="text;html=1;align=center;verticalAlign=middle;resizable=0;points=[];autosize=1;strokeColor=#666666;fillColor=#f5f5f5;gradientColor=#b3b3b3;" vertex="1" parent="1">
          <mxGeometry x="480" y="215" width="60" height="30" as="geometry" />
        </mxCell>
        <mxCell id="RWkYhsvv5Hg0yzNs0XMB-9" value="Email:" style="text;html=1;align=center;verticalAlign=middle;resizable=0;points=[];autosize=1;fillColor=#f5f5f5;strokeColor=#666666;gradientColor=#b3b3b3;" vertex="1" parent="1">
          <mxGeometry x="480" y="175" width="60" height="30" as="geometry" />
        </mxCell>
        <mxCell id="RWkYhsvv5Hg0yzNs0XMB-10" value="Confirmar&lt;div&gt;senha:&lt;/div&gt;" style="text;html=1;align=center;verticalAlign=middle;resizable=0;points=[];autosize=1;strokeColor=#666666;fillColor=#f5f5f5;gradientColor=#b3b3b3;" vertex="1" parent="1">
          <mxGeometry x="460" y="255" width="80" height="40" as="geometry" />
        </mxCell>
        <mxCell id="RWkYhsvv5Hg0yzNs0XMB-12" value="CADASTRAR" style="text;html=1;align=center;verticalAlign=middle;resizable=0;points=[];autosize=1;strokeColor=#666666;fillColor=#f5f5f5;gradientColor=#b3b3b3;spacing=5;spacingTop=1;fontSize=18;" vertex="1" parent="1">
          <mxGeometry x="520" y="330" width="140" height="40" as="geometry" />
        </mxCell>
        <mxCell id="RWkYhsvv5Hg0yzNs0XMB-14" value="" style="shape=image;verticalLabelPosition=bottom;labelBackgroundColor=default;verticalAlign=top;aspect=fixed;imageAspect=0;image=data:image/png,iVBORw0KGgoAAAANSUhEUgAAAmQAAAGYCAYAAADsqf5DAAAAAXNSR0IArs4c6QAAIABJREFUeF7snQd8VFX692+ZudNTJo0kpEFoAtJCEQQNYsOy/3VdRF1AIJTQBAWxgGJZEaREIJSAVHFZdV3bq6IIiiIioYiwCCQkgfSezGSSKXfu6zM7x51lVUIyd+bO3Od+PiGFe895zvc5c+/vPuec59AUHkgACSABJIAEkAASQAJ+JUD7tXasHAkgAVkR2Lt3ry4vL89QWVmpqKur0+zbty+1paUl2eFwcEqlUsUwDMfzvILneZZhGCokJKTWbDZ3cDgcSo1GI2i12lqapmlBEOD/4TvtdDpphmEElmUFQRCcVqsV7msOpVLptNvttNlsjrTb7RTHcQ6VSlXpcDgiHA4HFGO3Wq1OQRAcer3eFhISUti7d++funfvbo6MjLSlpKSY0tPT62XlIGwsEkACfiOAgsxv6LFiJBC8BA4cOBB5/vz50EOHDoUUFRX1rampMdTX13dUKpU6QRDUHMcZGhoaoiIjIyMUCoWOZVklRVEMfNE0zbiFFqVQKJxOpxP+AQFF0TTtJNRcf6AoShAE+Lvry30IIOZYlqV4nqccDgfjdDqhLBBtDvgd/g7qTa1WOx0Oh+BwOHiTyWSjKKqBoqj6pqamRo1GU8swjEmv11fqdLqarl275vbr18/cq1ev+lGjRlUEr/ewZUgACfiDAAoyf1DHOpFAABM4cOCAgqIo/Y4dO6Jyc3PjnU5nSlNTUwRFURqlUqkNDw93UBQVYbPZYjmOi7Hb7dEqlUpls9mUDMOwPM8r1Wo1RMFUVqtVwXEcBQIKRBN8wc8grkBoORwOSqlUgphy/Q5CCs6Bn8lBzr/y7/D/8DcQZvAFB5QH10J5UG5TU5Pr/+BniKK5D7vD4bBrNBo7HCzLQiTNplKpqhmGqRQEoUwQhMry8nIlx3EtCoXCarVaIap2qX///ucfeOCB2ltuuaUkgF2MpiMBJOAHAijI/AAdq0QCgUhg3LhxKaGhoREffPDBLU6nM1aj0XQXBCFOq9WGsCyrVigUjNVqZRUKBYwdKhUKhRK+g4gC0QNCCMQT/A6CCwQQCCM4iACDc8h5JOoFvxOxRsQVEWdwraeAu7IsT85QxpXnQ3lEyBGhBn8D4UZsgmvATjjPbrcLMNQJX06nExScw+l08gzDwBBpc2VlZZXD4Tij1+tL0tLSPtNoNNWbN28+H4j+RpuRABLwLQEUZL7ljbUhAUkT2Lt3b/SePXsiz5w5k1JSUpKoVCpDOY4L1Wq1Goqi+iiVykiHwxFF07SGpmm90+lkiNgiUSYQSETcWK1Wl7AhETAicuAaz6gYQCFRLBBsRDgREUWEGhFpZHjSM1JGfiYCzRP0lcOaROCRczxFnWckTqVSUdAGaBtcA7aBOIP6SXuJqITrQGSyLGuy2+3NHMfV0zRdWVNT86/o6OjisrIyG03T1ZGRkXndunUrmTVrVuWQIUMaJd0h0DgkgAR8RgAFmc9QY0VIQJoEPv3009izZ8/G7NmzZ2hJSQmIrutsNltMUlKSxuFwqFpaWhQw4V4QBC0IFIvFQqnVapdQgeFGECnuSfP/JcRAwMD5ntGsK4cOiZgjAgy+e0bJSHSNiCCIXJEIGxnG/LWhShIpg3NBbHkOa8L5RCQSoUbqhfLhgPYRwUiGSUGAeUbyWlpaXO2DtpOhUWITtMtms5GIYLMgCC0w9MmyrLWystKiVquLmpqaTsTExJwaPnz4ifvuu696xIgRVdLsIWgVEkACviCAgswXlLEOJCABArAy8fPPP4959913Y06ePNm1rKwsgabpiA4dOiS3tLR0UigUcYIghEDkCybWg6Ag0R8imIjwgt+JUCHDeSBg4BoQLiB0QJS4I0a/zPkikS0SaSLiiIgwIqTIefCdiDDP4UoSDSMT94nAgu/uCfsu8QS2wfVXzk3zjJh5Ci7P+qEtcIDoAvEF7YJz4Uun07mEKRGYnsISzg0JCXH9P4miwXfg09zc7LKJZVmb0+k00zTdZLVaqziOO93Q0HDR4XCUsyxbdPPNN+eNHTu26tZbb4VFBnggASQgAwIoyGTgZGyivAlUVVUZ3njjjc5vv/327ZcvX+4vCEIXlUoVGRYWpoZgEEzGh2lS8qbkn9Z7zFOD4UyLIAjNDoejqbm5ubSlpeV4ZGTk16tXrz6RmJhYlpKS0uIfK7FWJIAEfEEABZkvKGMdSMCHBPbt2xdx9uzZuJUrV95C03Sc0WiMEQShp91uT9BqtWGQ6wuiOCTq5UPTsKpfIeA5RAtRNHf0EdJ9wBy0ao7j/lVRUVEgCEK+3W4/99xzz52Pi4urvueeeywIFAkggeAhgIIseHyJLZE5gb1796a88847nT/66KOxRqOxF0VR8Wq1Ws8wjA4Sq5JhQiIAyER1mWPza/M956SBIb+2aIGHTLkKhamlpcViMBgay8vLL1it1qP33nvv+3/6058qMCeaX12IlSMBrxFAQeY1lFgQEvAtAUi++sYbbyR88sknQxmGSY6Nje1OUVQ3nuc72Gw2A8xzgjlcZD4XmXBO5lSRv/vWaqztSgKeK0Y959LBeWSOHFmY4F4oYNXr9Y01NTWlGo3mh/r6+jOQauPOO+88k5GRUZmWloaRM+xmSCAACaAgC0CnocnyJnDgwIGOe/bs6fTxxx8/xDBMWseOHWNbWlr08KVWqxkykR0okRxeHkNhrknl8EUmv8ubpn9b77nYgFhCFiyAUCOrN+FvENEkKTggoa1er4fFBlaVSmVqbm5uqKuru6hUKvffdNNNH0yaNKls+PDhdf5tHdaOBJDAtRBAQXYttPBcJOAnAl988UXnadOmDRUEIdloNPbmeb43y7JxFoslRKPR/LKKEYRWY2MjFRoa+ssKRyLMyGpFOAcEmmdiVj81S/bVeuZRIzA8hy3hZ1iZCT4Gv8LqTTL0DP4kfnSvbIW0GtWCIBTyPJ9bUVHxA8uyxzdt2lR0xx131MoeNgJAAhIngIJM4g5C8+RNoKCgQP3AAw/8paSk5A4QYhqNJtxqtYYoFArIC+Ya0iJRFnhwwwMbhBZ5iJNcWJ5pJEi07MrhMXmT9k/rr9yhAKzw2JPTJbiIoAYhDb6FL4PBQJlMJldKDvA/Sa9BBB7HcY12u72hurq6WqvVHjAYDJ8sXbr0R5xv5h8/Y61IoDUEUJC1hhKegwR8SGDevHnxBw8eHFhVVTU4LCwsUaVSDXE6ndEMw+jhYUyyx5McYUSQgTgzm82uHFkkWSp5oJOM92QYjAyF+bBZWNVVCHhuFeU51EyEM9ndgOy5SYamSS400g+IgCPijuf5WpqmyxmGOVxZWXk0LCzsaHZ2dgEOaWKXRALSIoCCTFr+QGtkTEAQBMWsWbPS//nPfz6qVCp7RUZG6mETb8hNKmMs2PR2EPDcwkqpVDYxDFNXUlJSptPpPh42bNhbW7du/Ymm6X9v8okHEkACfiWAgsyv+LFyuRPIzc0Nzc7O7vz555/fwnHc9UajcSCsmAQRRvZ0lDsjbH/bCcA8M9gGCr7Dl3uI08nzfKVarb546dKlw3q9/siIESN+eOihhy6lp6dj8tm248YrkUC7CKAgaxc+vBgJtI3AmTNnuK+++qr7Sy+9NC4kJORmrVbbkabpMMicT4aoMC1F29jiVf8hQIaoyYbvZKga/g7JgdVqda3Vaq0zmUwFVqv1n4sXL34/MzOzBBkiASTgewIoyHzPHGuUMYHs7OyEbdu23VxeXj44Li6uH8/zXViWjSJ7JMLkbJJ7isz7kjEubHo7CUBfglQZJNUJiDDoaxApIwtC3MLfxvN8hSAIuZWVlQdCQ0OPzJkz59y0adNwL812+gAvRwKtJYCCrLWk8Dwk0A4C3377bXxOTk6X/fv3z1AqlQMNBkM4y7Kh8KCEFZHwcIShJZiwDQ9QiGiQTbrbUS1eKnMCV+7OAP2KCH4YwiQ/Aybof1ar1a5Wq6urqqoqnE7n3uHDh+/KyMgoxQUAMu9I2HyfEEBB5hPMWIlcCUyaNClu//79t+l0ulvDwsL6W63WBJ7ndWSFJDwgITUFSX8AD1CtVusSY7BikqySlCs/bHf7CJBoGHwnK3Shr3nu4AA1QJSM/B2+g1BzOBxVGo3mfH19/ddOp3PfzTff/ENOTk51+yzCq5EAEvgtAijIsG8gAREIHDp0KHrjxo1dv/vuu7kajaa/TqeLtlgsOnjYwXARiDBywMMQ/gbiC6JjJHIB/4+CTATnyKhIMneM5CeD7yDO4O+kH5IcZtDvII8d6YMee52CCKuoqan5cvjw4TkPPfRQMSaalVEnwqb6jAAKMp+hxorkQGD27NlR77333g0hISH3hISEDG1ubk5SqVQ6EgUjexKSLPkkdxR8Jz+ThyiZkC0HbthGcQhAHyICH/oViDH4G8nwT3KfkW2Z4P85jvslYgZWwf/B3DOFQlFPUdQ5QRC+rK+v/2z48OHHt2/fDn/DAwkgAS8QQEHmBYhYBBLYt29fxK5du5IPHjw4OyoqalhLS0uMUqk0IBkkEMgEyFA6WWDiTkJbY7PZSltaWj5LT0/funHjRsxlFshORtslQwAFmWRcgYYEIoE1a9aE7Nq1q29TU9M9BoNhJKyabGlpMcAEaRKRCMR2oc1I4EoCMNwJfRpEGkTSHA5HLcuyp6xW616O477IzMw8M23aNAuSQwJIoG0EUJC1jRtehQSo1atXJ69du3Z8c3PzHxMTExOsVmsETNYnc8Kamppc6QbwQAKBSsBThHmmYSH7bdrtdqcgCJV2u/1SS0vLzjlz5rw7b968skBtL9qNBPxJAAWZP+lj3QFHIDc3V7lhw4akvXv3DurYseP9LS0tgzUaTRxZxQaRMXiINTQ0uDaAxmz7AediNNiDABFk8CfPhMUkUkY2PHc4HE6aposFQfjCbDa/nZ6e/uOWLVuKESYSQAKtJ4CCrPWs8EwkQHXq1OmhlpaWh5KTk3s1NTXF0DSthocSmZDf2NjoWqlG9hCECdV4IIFgIkCEGbQJ+j6syoSFAPAZ4DjOLAhC8eXLlw8ZDIZt586dOxRMbce2IAExCaAgE5Mulh0UBD766KPwuXPnjqBpOl2v19/Osmyy0+lUwwRniBTA0CQ8kCB/mGc6C5IhPSggYCNkScBzpS+JinlGyqC/G41Gqr6+3pVGA15A3FG1eofD8VNDQ8O7SqXyi82bN19MT0/HFZmy7EXY6NYSQEHWWlJ4niwJTJs2rcsXX3wxTavV3spxXKIgCGHkwQSpK+AgaQIsFovrZ3goQaoAOA+3P5JltwmaRv+eICMJZMlcSdLnQZBBmgydTkeZTKay0NDQC0VFRR+NHj367zk5OZeCBg42BAl4mQAKMi8DxeKCg0Dfvn2TTSbTCJ1ON06pVPalKCoSWkbyOhEhRpJsQqQAhm/goQQ/gxAjE/yDgwi2Qo4ESNoL0vdBbEHfJrnMSLQMomNkCzBPTvB5aGpq4vV6fZnNZjtaW1v7ZmRk5DdHjx4tlyNPbDMS+D0CKMiwfyCBKwhMmjSpz759+xZ16NBhCM/zsRRFsQgJCSCBaydAdggAEafRaFpsNltJdXX1gdtvv33Npk2bztI0jZMsrx0rXhGkBFCQBaljsVnXTiAjIyPl008/vTsxMXGM3W7vZ7VadfCGjwcSQAJtIwDD9zB0CcP7MIwJq5ApimowmUzHbTbbWyNHjty7ZcuWgraVjlchgeAigIIsuPyJrWkjgQ4dOtxpNBqnKhSKgTzPx4WHh9MwJ4zkW2pjsXgZEpA1AbIlE0CARTDweXLn5rNbrdaS2tra4zzPv3b58uWDsgaFjUcCMCUGKSABORNISkrqz3HcKI1G8yDP811DQkK0MMxiMplcqyZxUr6cewe23RsEIEoGi11AiEGUDOZdkoTJNE03KpXKs8XFxbspivq0uLj4gjfqxDKQQCASQEEWiF5Dm9tN4LPPPotbtGjRzXa7fQpN0704josE8QWpKmBYhayUJCsp210hFoAEZEqAbLVEFrqQxS7wO7z82Gw2wWAwFNM0nWu1WrcvWbLk67vvvrtOpriw2TImgIJMxs6XY9O/+eYbw9y5c6/neX6MUqm8k6bpTlarlSVzxUCQwdAKWT2GWx/JsZdgm71FAF5oIDpGDvhswd/ICw9812g0rhWaSqXS4nA4zikUivdtNts/XnnllQujR4+2essWLAcJSJ0ACjKpewjt8yqBxMTEcRzHZRoMhm6CIBghVxjZBBze5MlyflIpDll6FT8WJkMC8LIDwoukxYCpAPA5g/Qw8OIDIg1+hs+hXq+nGhsby5VK5any8vKNxcXF/5QhMmyyTAmgIJOp4+XW7P79+/eorq7+Q0xMzEN2u72bSqXi4CFBtjwCHvBAgAcD5FSCuS7wHQWZ3HoKttebBEBskagzSZpMcvcRMQbf4W/weTObza6IGcuyLXa7/UJtbe1bOp3uH6dPnz7rTbuwLCQgRQIoyKToFbTJqwSmTZvW5+OPP17aoUOHfk6nswMMmcBSfHhQ4CpKr6LGwpCAVwnQNF1WXV3948iRI5ds3br1sFcLx8KQgMQIoCCTmEPQHO8RyM7O7rBs2bJ7IyIixiuVyv52u11DtjkCMUaGK71XI5aEBJCANwm498W0siz7Q2Fh4d+WLFnydmZmZok368CykIBUCKAgk4on0A6vEhg3blyPQ4cOPR4RETFSpVIlWiwWFkQYmb8CUTKYsI9Dkl7FjoUhAa8SgM8nDHuqVCrBbDZfMpvNB++4446XsrOzz3u1IiwMCUiAAAoyCTgBTfAegU8//dSYkZGRHhsbmyEIwuCfk06Gw7wwEGIQHYONkOGAn0GUQZQMDySABKRJACJkMK0AFgSEhITAXLNai8VyJDQ0NPuee+759qmnnsL0GNJ0HVrVBgIoyNoADS+RLoGEhIR5Go1mcmRkZKfGxkaNwWBwrfCCScOeKyg9N0mWbmvQMiSABCBCRlZiwmeZoqhms9mc53Q6NxUUFGQjISQQLARQkAWLJ2Xejp49e6babLYHQ0NDH25qaoJVlK5VW56JXUlOMVhBCQcssYdhTDyQABKQJgH4zEJ0DF6g4PMMKTTgM83zvFMQhLzq6ur34+Pj3zhy5MgpabYArUICrSeAgqz1rPBMiRLIysrqtm7duhe1Wu0wlmXjICrW0NDgmiNGhjxIrjH4nSSqhOFLuMnjgQSQgDQJwAtTaGioKw2NO6v/L8IMpiKwLFteWVl5fO7cuYvnzZt3XJqtQKuQQOsIoCBrHSc8S6IEEhIS7k1ISJhssViGcxwXDkOTJDs4mRBM8hyRIUuyZQtO6peoU9EsJOAmQCJksJ2Ze8XlL1Ft+D/3PpktPM9/V1tb+4+CgoJ1CA8JBCoBFGSB6jmZ2/3pp5/GLlq06AFBEMZTFNWNoiitzJFg85GA7Ah4RL4dJpOpUKfTvbNixYoNt9566yXZwcAGBzwBFGQB70L5NSArKysxKytrbkRExL0URXWWHwFsMRJAAkAAhi1hCgJEyyAy/vOCnssXL178bPHixa/OmDHjHFJCAoFEAAVZIHkLbaVmzJjR45NPPnkuPDz8RoZh4mEYAw8kgATkSQDmgFosFtdkf5iSAHPNdDpdTUFBwfd33333C1u2bPlOnmSw1YFIAAVZIHpNpjYPGDDgLqvV+mhoaOig2traUFgliYldZdoZsNlIgKJcUTEQZTB3lOyR6d4OrVmpVP7odDq3HD16dDPCQgKBQAAFWSB4SeY27tu3L2bSpEkPxsTEjFMqlT3MZrMGxBi8GUN+IjyQABKQJwEysR8i5TDxHyb5gyADcWaz2SBpWZ7JZHp78+bN2aNGjaqQJyVsdaAQQEEWKJ6SqZ3r1q2LWLZs2YzY2NiH7XZ7aktLCwvDExqNxnXzxQMJIAH5EiBRMXgxM5lMFEkEDfcIEj1nGKawoqLiw0WLFi2fMmVKsXxpYculTgAFmdQ9JGP7Vq9eHbt9+/Y5FEWNoWm6EwxNkFQWkJ8I01bIuHNg05EARbmiYSS3IEzwhygZJJIl+9bC/7nzl5VVV1fve+65516cPn36BYSHBKRIAAWZFL2CNlHjx4+P//rrr5+NjIy8k2GYBJisC4IMbrrw9kvejHFSP3YWJCBfAmR4El7U4AUN0mAQMUZ26YBIuk6ngwn/9TU1NV/edtttizZv3nxGvtSw5VIlgIJMqp6RsV2TJk3qdOrUqecFQbiNoqhoGaOQfNNBEMNwETwQyRAyDCeDgIYHJIlgQEPIBGwyzweucU/A/qUMklcKzoef4VzyoIVzoQy4DlIdwIMX6vasA66D3+GLDFmRCArYRHZpgGvBToimwMbz8DucB3+Dn+Faz2Evz3LhPDiHJCsliYbBXk9brrRL8s4MQgNJPyD9jKIokyAI3/Ts2fPZXbt25QZhk7FJAUwABVkAOy8YTZ88eXLq/v37V4aFhd2o1WqNZN/JYGxrsLTJUziB4AGfwYKLkJAQl8iBn+Hv8AXiBcQMSVMAAgsEEZwDwgsinyCyeJ63CoJgUygUNpqmHRaLBX5u1mq1DVar1U7TtADl8Twv2O12Qa1W28xmM6dWq1mWZRmHw8E6HA6OZdlQtVqtNplMSo7jFIIgKOGL53kl1AeiCrbZAhvgIFv0wKIREGtwwM/kHLPZ7BJtYD+0A9pOtuciAsxj7pLr//DwLwHiHw+R32yz2b4bMmTIk6+//vr3/rUOa0cC/yGAggx7g2QIZGZmdjt8+PArSqUynaKoUHhIwwMTD2kT8Ew3AAILRAqJNJHVbyB0QLCQiBaIHaVS2cKyrMVms9kVCgXvdDp5juPMZWVl5TRNV2i12qKWlpZqjuPqLBaLOS4urq5Hjx6VKpUKxNcv0S4QTLGxsY6SkhKlyWRiwQYQTCEhIdxXX32VolKpDBUVFWE0TUdyHBdjsVjiw8PDjTRNG1mWBQXHgJCzWCxKlUql4XleDW2A4XESWYEyoS+Sza0hckeigyQih4JMev2U+ITMJYPvbjHdrFAoDvXr1+8ZFGXS85tcLUJBJlfPS6zdkyZN6vbJJ59kxcfH38AwTChs/B0REUHBdzykSwCiQSBUQLC49xV0RcFA0BBxRqJeKpXK0dDQYNZoNI0sy5bwPJ/PsuzFS5cuMXq9vlIQhDK9Xl80YMCAOo1GY7nlllssKpWqefTo0VZvEPjmm28Mdrtdt3v3bo3dbtdeuHAhubKyMplhmEiLxaKPiYkBERapUql6CIKQwLJsiCAIenioQzQO+iIRXxAdAyEI3+Egf/eGnViG9wiQvkdeBkBkE1HGMExLZWXld3fcccf8DRs2HPNerVgSEmgbARRkbeOGV3mRwJw5c7rAMKVGo7lZqVQayPAVmcDvxaqwKC8TgGE/MsznHkL8Zf4VRVFNDMNYnE6n1Wq1NtTX15/nOO6MVqvNHTlyZMFdd91Vfdttt5V62aQ2FycIgq6srEx48sknu509e7ZnVVVVGk3TPQwGQwoIM6VSqYHvDMMoPOYkuR7wZD6cpzDznCPXZqPwwnYRIP6AlwOIzsIXRGfJzw6Hw1JZWfn9H//4xyfWr19/tF2V4cVIoJ0EUJC1EyBe3j4CU6dO7fzZZ5+ti4yMHKpQKELI5GqS4gIz8bePr9hXQwQCfEUOnucdLMtWm83mMo1Gc7yioqKQpulLHMf9uGDBgpqEhIT60aNHN4ptlzfKP3DgQOTZs2cjXnjhhevDwsJSrVZrstFohEUm1/E8H03TdBhJTOw5V4zMK0NB5g0vtK8M8AVZeQl9FeYKwnciqN2+aq6qqjpy4403LsCJ/u3jjVe3jwAKsvbxw6vbQeAvf/lLt59++ulVu92ertVq9fX19a5hIDLMQN5q21EFXioyAfAVx3Ew6b6OZVmz2Wwuamxs/CwlJeWb1atXnxs2bFilyCb4rPjy8nLd6dOn4x977LEBZrP5RoqibtTr9REKhULLsmy4Z6TMZ0ZhRb9LgNxDYFgdIu7uBSMkN5nrZQLOoWm6Wa/XH+rSpcvT27dvx0gZ9iu/EEBB5hfsWCmspvzyyy/XhIeHD6MoyhUZAzFG5iL9WjoDpCY5ArBVQqnT6TytUCiO1NbW/hgWFnZsxYoVjenp6fWSs9aLBh04cKDD448/3qWpqWkAx3EJKpXqekEQejidzg4URbFXpsDwYtVY1DUQgCF1mPsHecjI/DHwDQyvu4XYL3MeeZ5vaWxs/G7EiBGPb9u27fg1VIOnIgGvEEBB5hWMWMi1EMjIyEg5duzYCoVCMcrpdIZcy7V4rncJkJQVIIDJykIySZ+kC4BVaTBPDIbgYMjHZrOZaZpuqKqqKqJp+pMnnnhiz+DBg4vS0tLs3rUuMEqrqqoy7NmzJ3758uV/YhjmjrCwsE4cx4XyPK/zXIkJc5cgFQgIAxK5gaEz4A4HRBvhIL9jygzx/Q+MPXnDnEee5w9ef/31T23fvv2k+BZgDUjgPwRQkGFv8CmBqVOnJu7bt+81o9F4syAIYT6tHCv7HwKeDyTPVZEgvCC1BAg1EGTu/GKNPM+XWiyWMzzP595+++0fP/zwwwU33nijCdFSMAymmDRpUtdDhw792WKxdOvQoUNf2GWCpmk9CFrgCLzhZ4gGX7kXq2c+M+CJgkz8XnVlqhLo7zabDVKxfDN48ODHduzYgRn9xXcD1uAmgIIMu4LPCGzevLnj+vXrX2JZ9t7m5uZwzDHmM/S/WZFnfiYyOR+EApkADVGxpqamBsgFVldX96NOp/t/p06d2krTtCyjYdfisd69ez/S1NT0B71e3xeSHFsslhAYOgO+IM5gKA2G1IjwIisCiU88V3JeS7147rURIGlaiDgD3zQ0NJjsdvv+efPmzZ85c2betZWIZyOBthFAQdY2bnjVNRJYu3Zt3KpVq17Q6XR363S6GLjpkUzo11gUnu5FAmTIDEQAmVMDwgx8A8M3DMNcqqqqOqdQKH7IycnZPWrUqPPhg3gtAAAgAElEQVRerD7oi/r88897TJ8+/UGWZbuFhob2bWpqStRoNGrgazAYXMPAZKjyyi2fUJCJ3z3I1kpkzh/ZRcK9NVddWVnZh4sWLVo0c+bMy+JbgzXInQAKMrn3AB+0/5tvvokbPXr0om7duv2BYZg4yDMGD32yYbgPTMAqfoMARGhAHIAgI9Ebm81mCwsLqyosLDwfERHx3okTJ9YgwPYT6NOnzzSz2Xx/TEzMdXa7PQq2cIJSrxyaJL+T9BntrxlL+C0CV+6nSl5MQJBBJFOtVpeVl5f/Y9OmTUullDMPPRqcBFCQBadfJdWq/v37P6NUKicxDNMJHv5k02l4OyXRAUkZLCNjyF6SZI9JhUJRRtP0j8XFxSdffPHF3VOmTDklIxyiN/W1117rtWzZsodjY2P78TzfTxCEaJKklGxSDkZ4Dl+KbpSMK4D7D5nb507h4hJi4BPwB3w5HI5CtVq98fvvv18mY1TYdB8QQEHmA8hyriI5OXlaRETEoyzL9oDhAJJIE5jAzc7zdzlz8mfb3YkzzUqlstRqtX6zbNmyrLvuuutHf9oU7HXv37+/55QpU2bDSmONRhPHcZyGDF+S4TNMLCt+LyCsQQCTHUKAO7w0khXI7mjZmZqamrWFhYWbxLcKa5ArARRkcvW8D9qdnZ09cOvWraspihpot9s5mDNjMplcw5XwNgo3PYyQ+cARv1MFTdOCIAiXWJY9WV5evn/BggXvzJ49WzLbGfmXjri1r169Ova11167NyQk5C6NRtOf5/l4khQZaiabtotrhbxLByEGUXtYVUyEGFn9esXvvFKpzO3evftTO3fuPCBvath6sQigIBOLrMzLTU5OhrQWz0ZGRg6iKEoncxx+bT7MiwERTFb1eUzar6Mo6hJN03syMzP/lpGRUeRXQ2Va+apVq1J37979EE3T97Msm9zc3GyAqAyJmMGLi+cQGsk2jy80vukwwNudsNpuMplylUrlXy9cuPD/fFM71iInAijI5ORtH7X1iy++iJ81a1a2VquF7WUifFQtVvMrBCACAIlI4QHvudEyRVGX6+vrv+d5fs8nn3zyQc+ePW0I0H8ECgoK1LfccstDDodjdFRU1A1qtToOosngN/hqaGigNBrNLwsASOoMzFUmrs/ItAqIVgJ/m81mqqio2L9jx46FI0eOPCdu7Vi63AigIJObx0Vu7+TJk41ffvnlQr1e/7DT6YyHhwke/iNAspCDKHOnuLApFIpLZWVle7dv3776lltuyfefdVjzlQQqKyv1aWlpr+p0ujuNRmMSDKeBGPDcPQE+U+BX+D+cgyluHwLuJLJMkvuqVKrqoqKifzzwwAOvZGVlFYprAZYuJwIoyOTkbR+0NTU1daZWq52n1Wo7w4ME3jDx8B8BeIiEhoa6xJjJZDLpdLpzZWVlu++5557da9eurfKfZVjzbxGYPXt2x71792ao1er7OY7rwvM8B8OTsBqwvr7elZ4EFsjA0DN+vsTtR2SuK+EMUTIQaCzLFldXV/+tqKjoCXEtwNLlRAAFmZy8LWJbP/zwQ+2MGTNu0+l0i8LCwvq1tLQwZAWTiNVi0VchAA/txsZGiKhUm0ym0+Hh4WuOHz/+TwQnfQJpaWnTampqJkdFRXW3WCwG8CWJ2JDvGIEW148gxMjWYSCGgTtEm92pe87V1NRs37Vr16bhw4fDfEw8kEC7CKAgaxc+vJgQ6Nu370CTybQqKiqqn91ud03iB0GGb/D+7SPwhq/T6QodDsf+3r17v7ZlyxbMK+Zfl7S69tLSUu3ixYv75ebmzuM4bqjT6YyFyeUgCiBFQ3h4uOs7HuIRAOEFUWaYqxcWFuaKUMI+pOAHnueFysrK07GxsX89evTo38WzAkuWCwEUZHLxtIjt3Lx5c8zGjRtfcjqdf6IoKhxEWEhIiGsiMrxd4uE3AnaGYS6WlJR8+OSTT742Z86cYr9ZghW3mcD69eu7LV++fGFUVNRNPM+nqFQqGib1w9AZDKHhIR4BuJdBFBIEGBn+N5vNrr+BSGNZttlut38+a9asxzMyMnDPS/FcIYuSUZDJws3iNXLZsmWGDRs2zIyJiZlmsViSIZ8PHLBCDEQZ3Mjw8AuBZoqiztfW1u7esWPH9hEjRuB8Mb+4wTuV7tu3r1NGRsas8PDw25xOZ3eVSsV6Zvb3Ti1Yyq8RuDKBNdzTQAjDPD6Ym8mybE1paelbCxcufG7OnDn4OcNu1GYCKMjajA4vBAJdu3b9489DKEs4jusFo5Qk0SuZP4bL8sXtJ/BAAMZkI2r3ZG8zz/NnFQrFmqNHj74hrgVYui8JDBgwYCHP8w+pVKquNptNDRFoWG0J88vgALEAf4PVlzDXiayy9aWNcqqLfO6am5sLrFbrmry8vCw5tR/b6l0CKMi8y1NWpa1Zs6bzli1b1igUiptYltWBMMDtXnzbBWCOCwxdwUMYHg4qlQrE2ImSkpK1JSUlb/vWGqzNFwRSU1MfMxgMD7Es21sQBA6Gz2A4jSSQhSE1iFTDsCYRDL6wS651uJP28mVlZd8tWrRoemZm5mm5ssB2t48ACrL28ZPt1f369Yurr69/ISIi4l6KoqI8I2HwVo7izHddAx7I8BDW6XQNFovl5JAhQxbm5OQc8Z0FWJOvCWRkZDxw4sSJBU6ns4fdbteSpLEQFYNoGQgxFGTiewUi0vD5c696NdfV1X2RkJDwzKFDh86IXzvWEGwEUJAFm0d91J5OnTo9ptfrH+U4LtFTfJFs8GAGRsvEdwYRwizLmhwOx7GGhoYVFy9exG1dxEfv9xpSU1NnhIeHT+I47nqLxaIEARYREUHV1dX9sk8sJo4V102QEw4i1BChdO+HWe7OT/aYuDVj6cFIAAVZMHpVxDadOXOGu/XWW2+Pj49/gabpPna73dWHPIWYiNVj0VcQcM8fa2AY5kTv3r0XbN26NRchyYfAhAkTHjx79uwTNputh0KhUEGEDA6yVRamnRG3LwBvEL0QIYN7oHvo+FxJScm6t956a8eNN95oEtcCLD2YCKAgCyZv+qAt/fv3H2A2m7M4juur1Wr1ZFiECDISLQNTyNClD8ySbRUsy5ohMlZRUbGipKTkI9mCkHHDExISFsXExIyhabo3CASDweCa6A8LbDBCJm7H8JyeAeIXomQWiwU2If8xPDz8ydzc3M/FtQBLDyYCKMiCyZsit2XdunURu3fvfrm5ufn+n1fwGcmKLrLKj6z4I2/lKMhEdghFWaxW6/GbbrppfnZ2Ns4ZEx23dCuYOnVqZm5u7iyWZXs4nU4aPpu4tZL4/oIXUhBhJCcciVA6nc4GlmU/nDx58oKZM2eWi28J1hAMBFCQBYMXfdCGvXv36p555plHeJ6fS9N0Kogtkomf5EO6MtUFEWg+ME+OVVgpivpXfX19Vn5+/k45AsA2/4cAZPW/8cYbXwwLC7uHYZgu8NmDCBmushS3l8DKVtgtgewvCi+nIITd+/hedjqdazdu3LhpyJAhjeJagqUHAwEUZMHgRR+0oVOnTrdER0cvNZlMfUJDQzkYEsF5Y+KDhxs7zE8B3pDawr23ntPhcPzLbre/durUqS3iW4E1BAIBQRDYQYMGrWJZ9r6WlpaO8IIEQ5bQd0AwkD0YSWJTEBIgKPAQjwDDMD+Ulpa+VFJS8o54tWDJwUIABVmweFLEduzbty9m4sSJayMjI0fq9fqImpoalziAUD0J0YtYvayLhnQGwNtoNLoerDBEwrJsfmNj4478/PwXZQ0HG/8/BA4cOND9wQcfXJKSkjLSZrNFka1/yIpnGFoDgU+EPu6kIW4n4nne1Nzc/NnGjRvnp6enF4pbG5Ye6ARQkAW6B0W2f9OmTdqlS5fOjo6OnsYwTApsiQSbGsNqIriZ4xu2uA4AwUvmqMCDVBCEkrq6uvczMzOfX7BgQaW4tWPpgUhg5cqVXdeuXbsiIiJipEKh0IEYg88rrLyEzyt8biFyRr4HYhsDzObLZWVl21588cUVkydPxlWXAeY8X5qLgsyXtAOwrsTExFv0ev2rFEVdp1QqVRCxgaEO+A7RGjzEJQDDwvAQhQSUDMPU19bWfjVnzpy58+bNw7dtcdEHdOnZ2dl9YRcNnueHCYLAwEsURFpBlMEcJzIEjlubietmEL4Oh0MwmUxnBEF4Oi8v70Nxa8TSA5kACrJA9p7Itm/YsCE6JyfnVZqm/6BQKELh5g3CAASCZ5oLkc2QdfEwD8g996e5qqrqjNFo/OvJkyffkzUUbHyrCAwePHhmVVXVo0ajsQtEw/R6vWs1IBwkso2CrFUo23wSWfCkUCjMVqv1vVmzZj0xbdq0sjYXiBcGNQEUZEHt3vY17oYbbpjmdDqfaG5u7gQ3cPgiecbId8xz1D7GV7saOLs3iD5VX1+/6cKFCxtpmnZe7Tr8fyQAKy8HDhz4cmxs7H0URSWAKIPJ/TB8CQfMI8MpB+L2E/f+sq5RBYVCcZmiqBePHj26WdxasfRAJYCCLFA9J7LdqampN3Act0qr1Q6gKMq1LQvcXNwheNfQB9zQ8RCXgDtCVlpbW/vu5cuXZ4tbG5YejASSkpL+YTQab2EYJpTMSSTzxzCTv7geh88vST8CQ5cMw3xbX1//dEFBwUFxa8bSA5EACrJA9JoPbE5KSsqG7N88z0dCdSDIYO4JmTdGhJk7euMDi+RZBc/ztWaz+dvQ0NCnjx079qM8KWCr20Ogf//+jzQ2Ns4KCwsbAAKM5M5yLxJpT9F47VUIkCFhkrfRbrfX1NXVbSksLHwS4SGBKwmgIMM+8V8EcnNzlWPGjLk/JCRkMWT9RjziE4DII8zNCwkJoRobG12rKmFYSamEwKTj26lTp86eMWPGKfEtwRqClcCaNWvu2bZt2ysMw1wHbQShAC9VGCET1+Pw2SbzQMm8W5qmIaHzC0uXLv3nmDFj/r35KB5IAPaERgpIwJPA+PHju+7bt29jfHz8IFgyj3nGxO0fRIyFhoa6Vr6RA/K8Wa3Wovr6+tcLCgow35i4bpBF6UlJSbuMRuO9CoUiBIbRcGsz8d1ORhagJrK36M/zci0VFRUHb7311rlbt249J74VWEOgEEBBFiie8pGdqampz4eHh09jWTamoaHBFa3BQzwCEKUA0eu5HyjMzzObzfXNzc37FixYMDczM7NEPAuwZLkQWLdu3eCVK1euCQ8PHwRiDPMIiu95iECS4UoQZ2RhlMViKRUEYc3Zs2eXiW8F1hAoBFCQBYqnfGDn7Nmz+3399debeJ5P02g0NLlp+6Bq2VYBb82w8g1WYYEQc69eFTiOO9qtW7fMbdu2HZctHGy4VwnU1taGLlq06OHDhw/PhyTP8DKAC3O8ivh/CgMBBtMPgDV8tslQMcdxvMlkOjJ06NDpOTk5ODdUXDcETOkoyALGVeIaOnXq1MhPP/10Y3R09CiyGou8zYlbs7xLhxs0CDGIksHDEX62Wq3l1dXVb5WWlj4qbzrYejEIpKSkfBQWFjaSYRiNGOVjmf8h4JFH0BUpI1FJmKogCEJdfX39hyNHjnw8JyenGrkhARRk2AdcBBISEjIjIyOfVCgUiRCtMRgMrjlNmKdI3A4CIgyGNeANGuaNCYJgrampORYeHr7w2LFj34hbO5YuRwIDBgx4SqFQPGK327uCMMBDPAJkKgJZjQ4vXmS3E/i8OxyOvKqqqpdLS0u3iWcFlhwoBPDTGCieEtHOrKysxJ07d25kGCad53k1rPaDjN5k4q+IVcu+aLgpA2eSq8hut58fNGjQU1u2bHlX9nAQgGgE4uLi3o2Li7tVEAS9aJVgwS4CIMZIxn4QaG4h5vo7TdNNDMPsve+++x5duHBhMSKTNwEUZPL2v6v1HTt2fC4+Pn6y1WpNIHMe4C0ONx8Wv3OAECM3aIVC0VJdXb1348aNs2+//XbI6o0HEhCFwODBgx8tLy+HqHg3USrAQl0ESISM5H+Dv0GKG8jpSOaUCYJwqb6+/rWLFy+uQmzyJoCCTN7+p1JSUkYYDIaVGo2mD8/zSrI0G7BghEz8zkHemGHir1arLW5pack6ceLESvFrxhrkTiAtLW01z/PjtVqtESLiZDUg7m/pu54BUxWsVquN5/nDdrt9/rlz53J9VzvWJDUCKMik5hEf29O9e/d1arX6AY7jIuEtjogwmFsCv+McE3EdQtJeKJVKu9VqPThx4sSp8+bNuyhurVg6EqCoNWvW9NmxY8cmm802GCLiJHoDUXKI2pLVgchKPAKQCgMW8jAMU1ZTU7MmLy/vFfFqw5KlTgAFmdQ9JKJ9/fv3v+PnOWOvsCzbh2TtJm/HJKs0vi2L6ACK+mVCP9yQKysr9xQWFj4mbo1YOhL4D4HU1NQd4eHhd7e0tBhhGI0cMF0Bfse0GOL2FhC/wPrfAxL8EZ7nHz19+jRGycTFLtnSUZBJ1jXiGvbhhx9GPvroo6uNRuNdgiCEe9bmuf8aCjJx/QB8FQqFvbS09ERcXNzc77///rC4NWLpSOA/BAYOHPhIZWXl43Fxcb1gBSCIA4jYkC2VMEIubm8hoxJhYWGQDLqqrq5u+86dO5cOHz68TtyasXQpEkBBJkWv+MCm1NTUMQaD4XmFQtGdvAWTqBjejH3gAHcVMDRkt9thddWmY8eOveS7mrEmJPBvAv379/8rz/MTNRpNLNwLYNI5bDyO0THxewiMTIAIBtYwbOxwOI4XFxcvrKio2Cd+7ViD1AigIJOaR3xkT2pq6maDwXA/wzBhvzZMSVYH+cgc2VbD87xNoVB8PX78+Glz5szJly0IbLjfCKxfv77b5s2bN7IsO8LhcDAwjOaZYd5vhsmgYnKfheFhWFhB03SV1WrddPbs2cUyaD428QoCKMhk2CWGDx/+fw0NDS+xLNuTJCwEDJ77KZLfZYjHp03mOK6stLT0jaKioid8WjFWhgQ8CHTr1u01lUr1oFqtjoI/w4R+jJKJ30VI2hvCGyJmFovlmEKhmHf8+PGvxbcAa5ASARRkUvKGD2xZvXp1bFZW1trIyMhRgiCEwjAlEWVkiIL8jvPHRHeI4HQ6c+vq6p4oLCz8UvTasAIk8BsEBg4ceB/P84sEQehH5o3h/DHxuwvca8nKdjJ/z+Fw1DU2Nr4ze/bsxXPnzq0Q3wqsQSoEUJBJxRM+siMpKenhmJiY561Wa2fPybs+ql521ZDNhMkWSTA0AUvd3ZP5K0pLS3fu2rXrhfT0dLPs4GCDJUPg4MGDURMmTFgUFhb2F4VCYYR5ZO45TZKxMRgNce9p+csiCoiQwWGz2X6yWq2Lz507904wthvb9OsEUJDJrGcMGTIkx2QyjVWpVAZoOr4Fi9sBgC9584W3Ydgf1COdwDdDhw6dsm7dup/EtQJLRwJXJzBz5sz+Bw8e3KxWq/vDHDLY0xb3sr06N2+dAS9p7u2UIGpWz/P8tpMnTz5B07TDW3VgOdImgIJM2v7xqnU9e/Ycr9PpnmYYphtZbu3VCrCw/yFABC+JlIE4c2+jUktR1Nbc3NyFNE07ER0S8DeB3Nxc5ZgxY3ZGRETcKwiCFnfqEN8jniKMrG73eFE+U1VV9WxRURHuayu+KyRRAwoySbhBfCPWrFnTcdOmTRsFQbhZp9Pp4GZLbgbi1y7vGjySP7oiDjAcpNVqC8rLy58rKCjYJW862HopEUhMTHw5LCxsIsuyHcjG91KyL9hs8bwHe+xtSSJl9bW1tR/NmTNnPs4lCzbP/3p7UJDJw8+wgfisqKio+SzLJoEY02q1ruEzHLIUtwOQPENkKALmj2k0GmdLS8shQRAmnzx58oK4FmDpSKD1BIYMGXJPY2Pjco7jusMcU8xF1np23jqTCDMoz+l0nmtoaFhSWFi4x1vlYznSJYCCTLq+8aplXbt2/ZvBYLiHoigdzGGqqalxiTLPtBderRALcxEAviDCyGpWGJZQKpU1xcXFu5599tkl06ZNa0BUSEAqBCCSvnz58teMRuMdHMdpcaW1uJ4hewaTewWZ5E9EGcMwtVVVVTuKiopwSzVxXSGJ0lGQScIN4hrRt2/fR3ief5Km6W7w1gs5b4xGo2vSLt5wxWVPSocbLUQbgL/VaoUEsPNPnjz5nm9qx1qQQOsJDBkyJMPhcCxyOp1JGEFvPbe2nPl7gsxj/ukPdrv9sVOnTu1vSx14TeAQQEEWOL5qk6WQd2zt2rWbwsLCblYqlQaYVE62SILIDVlm3abC8aKrEgDBC5wNBgPsVQe8bQzDHBw0aNCk9evXX75qAXgCEvAxgZUrV3bdvXt3DsMwIwRBwGeEiPxJRAyq8EyBQSLq7khZTWNj455t27Ytxj0uRXSGBIrGD5sEnCCmCSkpKeMNBsNzGo2mE0Ro4IuIMFxFJSb5f5dN5pCRG6xSqawtKyt7o7Cw8FHxa8cakMC1E6ipqQkZOHDgeqPReI8gCCHXXgJe4S0C5L7hcDhO1dXVzS8oKPjcW2VjOdIjgIJMej7xqkVdu3bdpNVqx3IcF0JSXZAJ5vA7Dkl4Fff/FOaexO9KdWGz2eB7qdls3nTx4sUXxK0ZS0cCbSeQnJycpdPpxqrV6pi2l4JXtpcAmeZgt9srS0tLX6uoqHi5vWXi9dIlgIJMur5pt2WTJ0/ulZubu5Nl2X4QqQFR8Gsbibe7IizgNwmA+IV5Y7BxMLAPCQnJP3/+/OMVFRXvIzYkIEUCgiAwcXFxT6ampk6zWCyJUrRRLjZBmhx3iiInx3EHr7vuuimvv/56nlzaL7d2oiALYo+npaUtoShqliAIEZ7NJKIMxAJO6he3A0DOMRDD7hQCTqfT+Y1CoZiam5t7TtyasXQk0HYCAwcOHFVeXr4qOjq6d9tLwSvbS4CkHYF7iFarLbt06dKqoqKiFe0tF6+XJgEUZNL0S7utGjhw4MCampqciIiIvuRDTSbzk4zQOFzZbsxXLQBSizQ2NpItaOqrq6vffOONNxbh5NyrosMT/Ejgiy++SJo8efKqiIiIOyiK0vrRFFlXDfdoSNAL92yTyeSora39LiUlZcrhw4dxu7Ug7BkoyILQqdCk+Pj4RTExMXNomo76tWFK+BsKMvGdT1ayuuftlVRVVS0vLCxcI37NWAMSaDsBQRBUCQkJT8XExMygKCqq7SXhle0lAHNPIUIGm70LglBcVVW1OD8/f3t7y8XrpUcABZn0fNJuiw4cONDh6aef3mi1Wu+iaVpBCiQizHN/xXZXhgX8LgGyohWGLhUKxQ/9+vUbv2XLllOIDQlIncDUqVMHHzt2bBtFUT2kbmuw2gf3bJhHBlMeIJm3Tqcz2Wy2t5YvX/7EHXfcAfvh4hFEBFCQBZEzSVOmTp1645EjRzarVKrunqktyNAlyc6P88fEdz6IX8j9plar4ftnEydOnDh79uxS8WvGGpBA+wisW7cuadu2bbDX6vD2lYRXt5UA3KshQgbfYegS7iUsy54aMGDA+E2bNv3Q1nLxOmkSQEEmTb+02arVq1eHrV27dnVoaOgfWZYNRdHVZpReuZAsnOB5voll2V1Hjx6dSdO00yuFYyFIQEQCpaWl2v/7v//bbLVa71MoFGqYxwTRGhiGJ6lz8P4iogMoyrXCkmzyDtF290s1JIp9a86cOU/OmTOnUVwLsHRfEkBB5kvaPqirT58+6XV1dWuio6N7eW7L4YOqsYpfIQAPLPdNtaa+vn5PXl7eLASFBAKFQKdOnV4PDQ29T6VShcGwO0lUSrYCw3mo4nqSDFlCZAwEMdnwvby8/ExKSkrmoUOHvhbXAizdlwRQkPmStg/qSk1NfTYkJGSm0+mMJqtzfFAtVvEbBCCS4N4doaKkpCSntLT0WYSFBAKFQFxc3GtxcXEPsiwbBUNncECUDA7o1yjIxPUkRCNBhMEB/GFiP3B3OBzllZWVa0tKSjBRrLgu8GnpKMh8ilv8yvr27btLo9H8uampSQUfXvhA4+FfAu55ZMUWi+XVCxcu4ApL/7oDa78GAl27dn1Zr9dPEAQhjqTNIdExGELDIctrgNmGU8n+lvBiR4aKQZhptdrm6urqt/Lz8x9pQ7F4iUQJoCCTqGPaYtbQoUPHOhyOZ61Waw/4IOPG4W2h6N1ryMpWs9lcqFQqZ58+ffoj79aApSEB8Qj06tVrjsPheEylUiVBxB0O6NMwfIaCTDzupGRgTNJewN/IPDLwgc1m++nnl+4lR48e/bv4lmANviCAgswXlH1UR6dOnTbq9fo/q1Qqo0qlgkSCvwwv+MgErOYKAmQeX11d3U/R0dF/OXLkyDGEhAQChcDgwYP/UFpa+mpMTEwXzygN2O+5gjtQ2hNodpL9hokQg+8gjN1pdOqrqqp2X7x4EeelBppjf8NeFGRB4shBgwbdUFVVlRMZGdkL9k3U6XS/hLiDpIkB2wye54X6+vqvb7rppkk7duzID9iGoOGyI5CRkdHj448/3hkfH58GjSfDZmRuJM4hE7dLQCQMRBjwbmlpcUUnCXP4e2Vl5Y8JCQnTDx8+/K24lmDpviCAgswXlH1QR3x8/Avx8fHTbTZbFGzX09zc7IqOkW2SfGACVvErBNxzQJpra2s/yMzMnPvEE0+UIygkECgEIBfZihUrNoeHh49kGIb1HK4EkYD3F3E9SfIYkjQjMMEfVlxClAwEGsuypVVVVWsuXbq0TFxLsHRfEEBB5gvKItchCIKiT58+O1iW/ZNSqVTBUAJ8kSXSIlePxf8OAfcDq7a6unrb22+//cKQIUMwbxD2mIAhALt+TJgw4bXo6Oi7YU9L94phV5QGxZgk3NjY0NDwRl5e3kxJWINGtIsACrJ24ZPGxUuXLh3w/vvv5zgcjv4eea9wWboE3OOOUlY2NDRknzt37kWapgUJmIUmIIFWESgvL9elp6ev0Ov1Dzqdzl8STV+5DVurCsOTvE4AJvyr1epDY8eOnfT444+f93oFWKBPCaAg8ylu72yBs1UAACAASURBVFcG0bEePXos02q1f2EYJhreXN0fUldoG+d4eJ/5tZToztVUZrfbl54+fXrttVyL5yIBKRDo16/fKyzLZgiCEAHzliAyBnPJ4GUD017410PulfRlFRUVG7Zv3740PT0d8xz51yXtqh0FWbvw+f/iFStWJGVlZe0KDw8fwnGca106yabtuVza/5bK0wJ3aoBiiqKePXr0KGzUjAcSCCgC/fv3f0YQhNkURcWQ1BfwsodzVP3vRvcqzObGxsYvZs6cOXvevHmF/rcKLWgrARRkbSUnkeu6des2yWAwPEfTdCJ5cyUJYXFZuv+d5N4YuECtVi84cuTIP/xvEVqABK6NwLBhw6Y1Nzc/43Q6E+Blj+xniXnIro2jyGdfqKysXHD58uX3Ra4HixeRAAoyEeH6ouiYmJjVnTp1esRms4VBfWQza3iDBWEG3/HwHwF4gKnV6tMdO3acuGfPnlz/WYI1I4G2Efjzn/886PLly9sdDkcPuJ/AYiEYskRB1jae3rwKhozhnq9SqcqLi4uzi4qKXvJm+ViWbwmgIPMtb6/W9tVXXyXMnz9/E8/ztzkcDhZukCDCIOUFRMcg/QUKMq8iv+bC3ML4ZP/+/Sds2LDh1DUXgBcgAT8TyMzMvP7YsWO7aZruBQlJIek09Gsyn8zP5sm6enjhA3EsCEKjyWR6Mz8/fzZN0ziPLEB7BQqyAHUcmL169eobdu7cuYll2d5wc4S8NGRDcbLlBtkIOICbGdCmuxdZHBs6dOgjGzduPB3QjUHjZUlg+vTpvb755pvdGo3mehBiIMjcmeJxUr+fewTZPcE9jHwwIyNj8syZM/P8bBZW30YCKMjaCM7fl+Xm5irHjh27PDQ09C8URUX62x6s/7cJ0DSd27t37wnbtm37F3JCAoFGYOLEidedOnUKImR9SR4ykvYCV1n615tkxwSwgqbp4urq6teKiopW+NcqrL2tBFCQtZWcn6+DDNrLly/fFhUVNYyiKM7P5mD1v0EAImQ0TR/t06fPhC1btpxFUEgg0AjA9kknTpwAQdYPBZm0vEfm9Lk3G2+0Wq3vrl+/fv6oUaNqpGUpWtMaAijIWkNJgueMGDFiTEFBwbLo6OhkCZqHJrkJuPOQfT9gwIBHUJBhtwhEAlOnTu1+7NixN1GQSc97MFQJK7nJMHJ1dfWp6OjoqceOHTsiPWvRoqsRQEF2NUIS/f+4uLjlMTExkxmGMUrURDTrPwSO9OvXbyIKMuwSgUjAHSEDQYZDlhJzINnrEuYMgzjjeb64vr7+pfz8/E0SMxXNaQUBFGStgCTFU+Li4t7s2LHjfTzPq6RoH9r0bwLuzcVRkGGHCFgCOIdMuq7zTAIOVnIcV2232zeeOHFisXStRst+iwAKsgDsG/n5+aEPPvggJBm9BYbE8JA2AafTiUOW0nYRWvc7BKZMmdLz+PHjECG7HueQSaurQDJwmNhPhBnP8812u/2tH374YTJN0/hwkJa7rmoNCrKrIpLeCVOmTLnzxx9/XGs2mzvD3AE8pEsAbpYURR3r1avXeFxlKV0/oWW/TWDy5Mm9Tp48CYKsNwoyafUUIsjAL5DyCCb5a7Xak8nJyRlvvvnmMWlZi9ZcjQAKsqsRkuD/9+vXbyXLsvAGFAofSDykS8CdHuBU3759H3n99ddPSNdStAwJ/DqBiRMn9j916tQumqavQ0EmrV7inhLhMgp+hucBz/PlHMetPHr0KKa/kJa7rmoNCrKrIpLWCRMmTOj89ddf7w4PDx/s+WGUlpVoDSHgzqRdwDDMnOPHj3+EZJBAoBHo37//XwRBgC15kmDbJFjVB/0aM/VLw5PEFyaTiQoLC4OdWprr6uq+vPnmmydt3769XBpWohWtIYCCrDWUJHROUlLSw2FhYctomo6HmyPOIZOQc37FFBiy/Dmaedlmsz19/PjxN6RtLVqHBP6XQFpa2iyO4xa2tLR0JIKMRMpADODhPwIQEQMfwHAl7NQCIlmtVlMmk+mczWabce7cuf3+sw5rvlYC+Gm6VmJ+Pj81NfWvoaGh05VKpdFisbg+iHhIm4DVai03mUwvFRUVZUvbUrQOCfwvgcTExGdDQkJmchwXTfZOhIc+iDLM1O//HkOmrcB8YhBlboFWXFZW9vLly5c3+N9CtKC1BFCQtZaURM7r0KHD1tjY2DEajUYHm4i7J41LxDo040oC7k3eq8rKytZu3bp1aXp6Om78i90kYAh8/PHHqpkzZ74UGxs7sampKQIiZDhvVTruA0EM+cfg5Vyr1boMM5vN8HOFQqFY991338FQMx4BQgAFWYA4Csy8fPmyZuzYsX+z2Wz3Njc30zqdjnI48PkuZRdCBNNqtdbX1tZu27Bhw5LRo0c3StletA0JeBI4cOBA2COPPLI8Kipq7M8TxQ0wfwxW8kGEDDYYhyEyPPxHAO7/Go3GFRkDcQY/w994nm9gWXZnbm7uHP9ZhzVfKwEUZNdKzI/nP/LII0NOnTq1WRCEXhCehggZvB3hIV0CcKPUaDQttbW1H40aNSozJyenWrrWomVI4L8JjB8/PuLLL7/cGB0dfa/VauXgfkOi8vAdo2X+7TEgwkiUDHwBP7sXW/AOh+Nwv379xm3fvr3Qv1Zi7a0lgIKstaQkcF5aWtrTgiDMdjqdHeDDByFqeGPFQ7oE4AEGwtlmsx0cOHDgI7t27SqQrrVoGRL4bwLjxo1LPHLkyBadTncrDFdCdMxTACAv/xIAUQzPAIjEw70GXgDh2QAv7AzDFDidzmePHj2Ki4n866ZW146CrNWo/HvigQMHIseNG7chOjr6DrVarYc5AyQ7s38tw9p/jwDcMGEIQRCEf2m12oe//fbbk0gMCQQKgcGDBw+wWCw5HMf1J3muSLod6Ns4qd+/ngTxBUKZDB+T+w1EyXier6irq9u+fv3650aPHm31r6VYe2sIoCBrDSUJnJOVldVt9erVW0NDQ4fChw3eiOBBj8vOJeCcq5jgTk1SZDabH83Ly3tf+hajhUjg3wSSkpL+FBkZ+TLLsl0hOgb3HhBhcO+BexAKMkn3lMaKiorPZs+e/ejChQtLJW0pGucigIIsQDrCsGHDJhQXFy+Jj49Phgc8DIPBzRFXWUrbge43VRhCKKmoqFien5+/RtoWo3VI4D8EUlJSZoWFhT3GsmwKCDKSZgfuQTBEhnPIJN1beJPJdLJDhw5TDh48iLuESNpV/zYOBVkAOAlMTExMXG40GicpFIoI9yoaSq/X4xwyifvPY45HRXV19YbCwsLnJW4ymocEfiHQpUuXxXq9firDMB2JCIOoPEkMi4JM2p3F6XTmlZaWPl5RUfGBtC1F61CQBVAfSEpK2hoTE3O/3W43kKXmOFwgfQd6rESr43l+w4kTJ5bQNG2XvuVoodwJnDlzhhs7duzzKpUqg6KoSBBf5N4DggznkEm/hzAMc6mqqurlwsLCTdK3Fi3ECFmA9IGkpKS3IyIi7mUYhgOTyXJnnEMmbQfCQ8w9zGOjafrdF1988fHbbrsN53NI221oHUVRBw8ejHrsscdW0TR9vyAIarjnkPsNiYzh/UfyXaW0oaFhTV5e3jLJW4oG4pBlIPQBk8kUNWzYsC1KpfJekmsG3k7xDVX63iN7zbmHeI7ccMMNk7Ozs89I33K0UO4EMjIyUk6cOLFLEIRhruEU976VnpF5FGTS7iWCIFRbrdaNp0+ffp6macwiLm13oSCTuH9c5n3++ec9Fi5cuIWm6aFwMySbikPOGfgZD+kSgInPIMbcuYKKFArFk0eOHNkjXYvRMiTwbwJ9+vT5o0KhWMnzfAq8/JEFKnAPwsVEAdNLzAqF4p+vvPLKE+np6eUBY7VMDcUhywBw/NSpU2/87rvvtmq12i5k81h4M3VnZA6AFsjXRDLvBkQZx3G1ly9f3vzBBx+8kJaWZpEvFWy51AmsWrVKk52d/UJ4ePhknufD4V4DX7CgCPo0CjKpe/Df9gmCwDMMc+j666+funXr1nOBYbV8rURBFgC+HzRo0BM/7002DzL0gxAjiRk9hxECoBmyNJFEE+AhplAo7BUVFftuv/32yTk5OWWyBIKNDggC06dPj//44483RUVF3UFRFG5YGRBe+18j3TuFXOA4bn5ubi6utJS4H1GQSdxBe/fu1U2fPn19aGjoHxQKRaj7rcc1qR/nkEnceRTl8pFnagDI2E9R1Pjjx48fk771aKFcCcTHx/fp2LHjDofD0UeuDIKh3e5oZllNTU3W8uXLV44ZM4YPhnYFaxtQkEncs2vWrOm4YsWKrVFRUSMoilIRQQbfyfwkiTdB9uaRif3uRL6Xy8rKFl+6dGmH7MEgAMkSiI+PHxcbG/u8IAgpkjUSDbsqAfe+o3WVlZV7nnrqqWenTZtWfdWL8AS/EUBB5jf0ras4MzOz22efffZGeHh4Gsn9Q0QZRshax9CfZxExBjdGtVpNmUymarvdvvHdd999sWfPnrgzvD+dg3X/JoGUlJTFERERmYIgxCKmwCUAL4F2u725urp635133jkrJyfnUuC2JvgtR0EmcR8PHDjwpsrKytcjIiI6g6lkLznMAyRxx7nNgygmzPmDzeDdizCaGYb5YNWqVfPT09OLA6MVaKWcCHz99dfhM2bMWKHT6cbY7Xa9nNoebG0lG8LX19fnhoSETDl58uTJYGtjMLUHBZnEvZmSkjJOrVYvNxgMHSDKAkKMbFviOblf4s2QrXmw/x9ExkikTKVSUfX19T+p1erHc3NzP5YtGGy4ZAmkpaX1UygUG+12+yDJGomGtYoAPDPcq2PPNzY2Zubn5+9v1YV4kl8IoCDzC/bWV9q5c+cnIiIinqAoKgI+XGTZOeQfw33kWs/RX2eSxJkgzEBIa7VamPtXm5+fn7Nnz56/pqenm/1lG9aLBK4k8NZbb3HPPPPMRL1e/6zD4YjDPIeB3Uc8XtoL6urqFly8ePEfgd2i4LYeBZnE/ZuUlPRqVFTUFKvVGgpb8JD8P/DW09zcTLblkXgr5G0e2T4JBDUIM4ZhnBzHHTSbzRmnT5/OlzcdbL2UCAwbNiyuqKhofWRk5J0cx3HwEoFH4BJwp9uBl/fL1dXVzxcVFb0euK0JfstRkEncx127dt2iVqsf5DhOC6aSGyQIMxyylLjz3NvNkKFmsJZszmyz2Qqbm5sfv3DhwrvSbwVaKBcCnTp1ujEiImKjw+HoSearyqXtwdhO8jLI83w5TdPLcnNzs4KxncHSJhRkEvZkZWWlftSoUTkKheJ+lmWV5MGO+8dJ2Gm/YxrJHQf+43m+muf5Ne+9996rKSkpLYHZIrQ62AgMGDBgNkVRCxmGiccpEYHvXeJDnudrOI5bm5ub+3zgtyp4W4CCTMK+3bt3b8ozzzyzmaKoWzw39CXpLshEcQk3QfameYowzwccTdMwFvTZhAkTZs6ePbtA9qAQgN8JZGdnd9i5c+cqq9V6n8PhUOn1etcQOx6BS8BjJMVEUdTfly9fviA9Pb0+cFsU3JajIJOwf9euXdt9586dbzidzgFEfJGtk8BsFGQSdp7bNM+NmOFn8uW+UV4qLy9fkZGRkb1kyRKn9FuDFgYzgcTExPtjYmJeUiqV3WBqRFNTEwWrgvEIXAIezw0bz/OfTpkyZdrMmTNxk3GJuhQFmUQdA2atXbs2bevWrZDR/TpPISZhk9G0VhAgooyiqJbGxsav0tPTM7ds2YJRslaww1PEITBp0qS4/fv3Z6nV6js1Go0eVleCKPOMzItTM5YqJgF37kPXfGOapr8aM2bMhPnz5xeJWSeW3XYCKMjazk70KydMmDDmxx9/XEHTdILnpuJk6Asz9YvugnZXQBIzQkGeCzGIKLPb7fkWi+WZ/Pz8v7e7MiwACbSRQGJi4qj4+PjXbDbbdZDMGIYqPaO7bSwWL/MzAfKscO9p+eOAAQP+smXLllN+Ngur/w0CKMgk3DWGDx++urm5ebwgCEYUZBJ21O+Y9nuCDP4PcpIVFxdvLS4uXhCYLUSrg4FA586dX1KpVFMNBkOU2Wx25ctzb7sTDM2TbRvgHuNODAsRsktOp/OZ48ePvyFbIBJvOAoyiTqoqqrK0K9fv+0dOnS4zel06j0nh5NhBEx7IVHneZjl6SPyM5nXAREz964LRx0Ox8yTJ08elX6L0MJgI9CvX78+HMdl8zx/gyAIDOQ7hK2+YNgShywD29skDxkkFNdqteX5+fkrysvLVwZ2q4LXehRkEvVtTU1NyMCBA/8WHh5+C0VROLNWon5qr1nuFBg19fX1bz755JOLp02b1tDeMvF6JNBaAqtXrw7LyspaHBMTM87pdEbBCwIIMhBiNpsNIritLQrPkyABeOkDUQZfLMtWV1dXr3/nnXdeSktLw+WzEvQXCjIJOgVM+uqrr1ImTpy4Mzw8fBjkF5WomWhWOwnADROiEWq1+lhDQ8PsvLy8w+0sEi9HAq0m0KVLlxFqtXqVUqkcADt/GAwG1/ZsIMhAmGGm/lajlOSJIMTAl7BatqWlpb6xsfHNBQsWLJoxY0adJA2WuVH4oJdoB1i3bl3PlStX7jYajX0kaiKa5QUCEIWIiIigGhoaKisrKzeVlJQ864VisQgk0CoCkOaiS5cuU5qbm6NJZn7ok/CiQLZpa1VBeJIkCZAk4iDIGhsbzdXV1e8uXLjwiblz51ZI0mCZG4WCTKIdIDMz86aPPvpoa3R0dCeJmohmeYEARCEgMgGHRqM5QtP0Y4cPH/7WC0VjEUjgdwnccMMNQwVByLJarQMhkqLRaFzRWnh4k3mOOIcssDsRRDuJ0FYqldbGxsaP09LSZr7xxhtlgd2y4LQeBZlE/Tp58uS7Dhw4sCk8PDxeoiaiWV4iQFaz0TRdVVJSsqWiouJpLxWNxSCBXyUwY8aMDu+///7qmJiYOymKCoVomHvjexg+dyWFhe84ZBnYHYhEyNw7Ljjr6uq+uOeee6ZkZ2djLjIJuhYFmQSdAiYNHTp0YXFx8ZNRUVFhEjURzfICARgegsgEvMlyHCcoFIrD3bt3h0SxmCvIC3yxiF8nkJKSMiYiIuKvPM+nEuFFVuRBn3Sv/nUlFMUjcAmQld0QiYd7jFKpPGIymSaePn36bOC2Kngtx0+bBH0rCALdt2/fl5VK5UxBEAwSNBFN8hIBuFHC26vVanXlfrJYLHUNDQ3v7dy58+n09HTc4sRLnLGY/xB49dVXo997772VZrP5DwqFwgD9D8SYTqdz9UUQYzBsCQ9wFGSB3XPIpH5YLQv3GJZlf1AoFBNzc3NPBHbLgtN6FGQS9WtCQsK6Dh06THQ6nVqJmohmeYGAO4O2K70APAzhO8/z5xoaGtbk5eWt90IVWAQS+C8CSUlJfwoLC/srx3HdyBwxssVOS0uLS5jBwxu3awuOjgN+hHsLiGxBEM5VV1dPLSgoOBgcrQuuVqAgk6g/4+LicuLi4h4WBAEFmUR95C2z4GEID0C4YUJ0wuFwWGDy7c6dOxcOHz78orfqwXKQwBdffJE0d+7c5bBnJU3TBpwjFtx9grzwkWz9DMPkVVdXzy4sLPw0uFsemK1DQSZRvyUnJ2+LiYkZ63A41BI1Ec3yAgF3wkZXNIIk4gRhZjabS0wm099nzpy5dP78+dVeqAqLkDmBV155JXTdunVPJiUlPdTc3JwILwEwfwyP4CYAUVB3AmoYsiyoqamZV1hY+H5wtzowW4eCTKJ+S0pK2hUREfFnmqYxS79EfeQNszw3cCZzdxobG6mQkBCqtLT0nFqtXnn+/PnN3qgLy5A3ge7duz+kVCoXKhSK3jTcWFQq10sAHsFLgETGoIVwr2FZtqimpmZBQUHB28Hb6sBtGQoyifouNTV1t16vv59lWU6iJqJZXiAAETKSER0ejjCx3z1sCasvm61W6+fjxo2bN2/ePBy69AJvuRaRlZWVuHXr1rUajSbd4XAYoM9BhAyTvwZ3j4DIGBm2hJbCBuOVlZVPFRUVvRncLQ/M1qEgk6jfUlJS/h4eHn4fTdO4mZxEfeQNs8hGzmTPQHiLBVFmNptdwkyr1UIG/z3btm17MT09HYcuvQFdZmV8+umnxilTpixKSEj4c1NTU0d4QEMfg4TE0P/wCF4CZJUlSQ5L03RxVVXVokuXLu0I3lYHbstQkEnUd/Hx8e/Exsb+nyAIrERNRLO8QACEGDwYOY5zRSsg1QBELmBPQTjcUYzzjY2Nqy9cuLDRC1ViETIjkJKSMtVoND7qdDp7cBxHg+iH1ZR6vd7Vv/AIXgJk/hiZQ0bTdElNTc1zRUVFrwdvqwO3ZSjIJOq7pKSkf8bGxt5rt9sZiZqIZnmBAAxTwoMRbpyQHR2SxMISdbKlEszzoWnaarPZvszIyFgwe/bsH71QLRYhEwLr16+/ftOmTas4jhtqs9k00K+gr7mThLp+xiN4CZDUJST1BcuypTU1NUsKCgpwXqoE3Y6CTIJOAZOSk5M/MBqN92BiRok6yEtmwVACiDJ4UMLwAhxkKyX4DgcINLVa3VBWVvZVfHz8ksOHD2NSRy/xD+ZiBg4cOLSiomJhdHT0CJqmw+BeAhExiMaSfkX6WDBzkHPbPFdxu/McltXV1T2fn5+/Sc5cpNp2FGQS9UxKSspHRqPxLomah2b5iADZ+sS92XO5IAjbT5w48ZSPqsdqAphAt27dXtfr9aMpiuoQwM1A071LoLympub5wsJCnP7gXa5eKQ0FmVcwer+QTp06fRweHg4b/+IhYwIgyGB4CeaauVfE5VVWVu567LHHNsyZM6dKxmiw6b9BYMOGDdFZWVkLlErlH1UqVWcEhQQ8CJTX1dW9cPHixQ1IRXoEUJBJzycui1CQSdQxPjaLbPgMKy7d832EqqqqPLVavTEvL2+Vj83B6gKAQGJi4sKIiIhJKpWqKwxT4YEEPAVZbW3tSwUFBdlIRXoEUJBJzycui1JSUj4xGo13SNQ8NMtHBDz3oYOHK8z5USgUvN1uP2mxWFacPXt2j49MwWokTmDv3r26Z5555j5BEB5TKpW9rVYri3nGJO4035tX4RZk63xfNdZ4NQIoyK5GyE//j4LMT+AlVi1JhQHCDCZjQ4oM99+sPM+fUiqVS3/44Yd/SsxsNMcPBNLS0v5UUlLyVHJycu/m5mYO+gkuCvKDI6RdJQiyvxYUFKyVtpnytA4FmUT9jkOWEnWMj82CIUsQYjBkCWIM8pPBz+5NoS1qtfrrzp07z9+1a9dpH5uG1UmIwODBg9N/7hNLVCrVoKamJjVJb4FpLSTkJGmYgoJMGn74VStQkEnUOcnJyf8vIiICVkjhIXMC8FCFSf1k30tIkwET/SFHmcPhMJlMpgPDhw+fv3379gsyRyXL5k+bNq3LJ598si46Ohpyjekhl53FYnH1DxRksuwSv9foipqampcLCwvXIBnpEUBBJj2fuCxKSUn50Gg03i1R89AsHxEgGbbdGwO7cpVBdCwsLIxqaGhwRc+sVmuDWq3ee9111y1CUeYjx0ikmunTpycfO3Zsqc1mu0OtVodB/4BcY7A1Egh3HLKUiKOkYwYKMun44n8sQUH2/9m7DvCoquw/b/pkkkzqpCckEFBXUaqAFCNVRLHtrrqAECEhJiAgYN1Vt4gCQiDUUIMs7lp21xWVJggoAgooYFlI722SzCTT5837e8Y5/mdZlZDkTT3v+/KlvXfPub97577fPfcULx2c5OTkf0VFRU2lBdVLB8hL1AKiBsdTNputra6u7si99967dMOGDcVeoh6pwSMCmZmZaZ988skKuVx+u1QqjQBRzqNsh58h5rDjUQVq2ssR+InEsJD2YllJSQlZyLxw7IiQeeGggEopKSnvxMXF3We1WmmMvHSMvEEtWHDh5QvEDLL5V1ZWAin7w7p166jEkjcMEE86zJ49+/oLFy780Wg0jhWLxeFYPNqZQJgnqdSsryHwE6WT6ltaWl4pLS1d42t9CQR96WXvpaOckJDwZlxc3AMcx1EtSy8dI29RC481IS2GTCZrb25uPp2cnLz6+PHj73uLjqRHzyEwcODAKW1tbYtCQ0MHicXiUGjZ1VcMCTqRs57D3Fdb+oni4nXNzc2vVFZWkoXMCweVCJkXDgqo1KtXrz0RERG/YRjmh4KGdBECP4MALLpAxkJDQx3O3AKBwCgWi88aDIb169at+zAjI6ONwPN9BE6cOBGxYMGCu202W45QKOwvEAgUSMaQfKFFBP5OhMz3x7y7PYA5gP6nTnJW19DQsKy6uprSXnQXXB6eJ0LGA6g90WSfPn2KgoODHxaJRJKeaI/a8E8EwGcIUmHodLofyys5Hf8tRqPxG5VKlX/69Oki/+x9YPWqf//+T3R0dGQplcp0qVQqgRcsWsZciVhgoUK9/SUEYF6gWwPcxzBMbX19/V+qqqo2EHLehwARMu8bE4dGvXr12h4REfE7hmGkXqoiqeUFCIDvEFjHgJjJ5XLH4gtRdrAQSyQSG8dxXzU3N+965pln/paTk9PoBSqTCteIwNq1axOXL18+Jz4+/kGGYa43Go0MkHCTyeQgZK5+QvA7zAG48OjyGsXR7X6EAKwPkCIHLmfanBqNRvOn8vLyzX7UTb/pChEyLx3KXr16bYyJiZlps9nkXqoiqeUFCMDLF74g9xS8oOHlrFQqHaTMmUCWNRqNJVar9fWysrI/e4HKpMI1IMBxHHP99devlcvld0E2HMxHB2PrmvwVSRkRsmsAN0BuRdIOc0YkElU3Nze/UFFRsT1Auu9T3SRC5qXDlZCQkB8XFzeH47ggL1WR1PISBMASgsTMdUeML2xYiKVS6Xc1NTXvRUdHv3nu3LkvvER1UuMXEBg8ePBkjUbzm5CQkAy5XJ4ML1aXIvM/prZAP6ErU11Q2guaXnhcieuCUCis0mg0z5WVlb1O6HgfAkTIvG9MHBolJye/rFar53Mcp/RSFUmtrOuC6AAAIABJREFUH3wyHAW/4VgAC4HD0SFYqyBTOliqgBjh8ZFzl+rADn/GZK9wP1zQFu5quwuyk4w52hQKhXUajebEkiVL/vj444+f727b9Dx/COTn59+6Zs2aVyMiIsB5P7yrkjACF+YBWFHxSBsSCsOcgC+VSiVob293JBnGahDwd5i3kFwWvuMchbmO1jg4KocLLLKQpBjax/lLRc27OmI9+xyMFwT6wBjBmiSXy8vr6uqeqqysfLNnJVFrPYEAEbKeQJGHNgYMGPA0wzDwpeKheWqyBxGAlxW8wGDRgxcavMTQauVM2vojyQKxQNjgpYYlkNAfCNqBlxy82FxJXndUhSMuXJCBHHIcp9Xr9SdNJtObO3bseHfcuHGa7rRPz/YsAgcOHIifN2/edKVSOYVl2SFisfgHlt7FC+YYEC4Ye/QthDkB8xLmGszF1tZWQUREhKClpcURGALRunq93kHC0MoK8xvuhfbwgv8B0YN2oDIA/gxzG9pBX7Yuqk6P9QACMCawLrW1tTm+NzQ0XFKr1bmff/75oR5onproYQSIkPUwoD3V3K233vp4U1PTi+Hh4dE91Sa10/MIwEsJ6waixQAtCmglwBcf/N1sNrNms9kkFotNDMOYJRJJq8lkCmcYJh5eePDig5ceJvrsbqUGjMLDowt4KQcHB1tMJlOxTqf7YPTo0ZuKiopKeh4ZavFaEXj00Ud7Hz16dGlYWBgkewV/MSHOqWttC+939SnD2pbwkoZ5BRYTmKNAptrb2zvCwsI6wGfVYDBIpFKpXCQSidBXDfSAL5jDMDexDXge5hQGlMDfkYxR2o2ujlrPPYcWT7R22my278Ri8ZwzZ8580nNSqKWeQoAIWU8h2cPtzJo16479+/dvi4uL69XDTVNzPYgARjcCkYIXFbyEjEaj47jSeVzUYbfbTRKJBNJQGAwGQ4VQKLwcFhZWKxAItA8//PBZuVweXVhY+JJUKr1RJBIxQPDASobHoN1RF/RzFiF3fIff4QUKx1NWq7VRIpF8UV5e/vd77733g8LCwubuyKJnu4bAzJkzww4fPjwlKirqUYFAMEAkEkUCwWlsbATy3LVGnU+hlQt+xWhcIFEwF2C+AvnX6/Ulc+fOXW6326vefvvtYR0dHUqdTteXZdmEsLAwtVgsVshkMrHRaJTKZDIFzEu0fsF8Ah3BoobWYPwc4LFotzpAD3cLAVf/UliPtFrtBZVKNevs2bNnutUwPcwLAkTIeIG1+43Onj172JEjR3aGhYX1635r1AJfCMDLCSPf0FIQFBRk7OjoaBaLxd/Z7fYvOjo69BaLRScSicozMjL+88gjjzRemaw1PT39j8HBwfcKhcKb4GUHL0wgdtB2dy54SUI7uENGPyGwjsBRlvUHE0xZQ0PDu0VFRRsyMjLKuyOPnr02BD766KOUOXPmLAwNDZ0kkUhSrVarFCxW31vHBWq12mHF6s6FPo7O42qHNQyGHOaE06fsu6ampg+qqqqeRDlff/219NixY/Fnz56N/vLLL/s1NDQkgB9bZGSkRCKRDBUIBOlmszlKLpeLMBcatAmygAC4WGMcP9PlOQRgLYE1BMYf1pSWlpZPhg8fPmv37t1U79Zzw/KzkomQeeGggEqrVq361ebNm3cFBwcP9FIVSS2BwGFlcPp9GWw2m06j0eh0Ot3XycnJb99yyy2fbtu2raKzQE2fPn36pUuXlohEopsg0Sv4fGAOoc62ceV9eMwEf8dC5PAzWDbQqduZ4b9aJBIdbm9v/+jRRx/d/9xzzzV0VSY9d3UECgoK4lesWDEuLi5uskAgGMWybDz6aWH6kp5I9opHkzCX4AIiBqTcOW+/HTp06OpNmzZtubrGP9wxc+bM686fPz9Wo9FMkclk14eGhgabTKbQ8PBwCVjJMFAFrWWdbZfu4wcB9BUE8q3Vam1Go/GjCRMmzNmwYUMVPxKp1e4gQISsO+jx+OzmzZt7v/DCC7sTEhKG8SiGmu4mAhaLRatQKKqtVusRrVZbplKpvh0+fPjFri54qampfwwJCXmEYZje8OLsrmM0tAFHoHAEBi/Ljo4OR2Z/sGQ4a186svzDC5tlWSCV1R0dHR+PHTt2dWFh4XfdhIce/wkEBgwYMLi5uTknKipqFMdxiSKRSAEkDMYFo3LhMRif7kYrIiHD8QfSB0eMFovla41G8355eflTXRmkzMzMtLNnzw7TaDQ3JiQkROn1+tFBQUFJDMMEQV+A8NHleQTgMw9rCKwDAoHA0NjY+F5eXt6CpUuX1nteO9LgSgSIkHnpnDh48GByTk7OVpVKlSEQCLp3buWlffRxtXQCgaCxra3tTEhIyBtffvnluz3Vn169eq2KjY19wGg0Jnf3yBIWY3gZAxGDXTJYyZwpMBw/45EGllhxBhFobTbbBa1Wu18gEBwtKys73lN9C+R2evfuPYhl2ZFQo1YsFt9gs9nC0GqJeeQwdxiQMSDJ3XXqx+Nv8BWDtuHF3N7efnHUqFErN27c2GMltQYPHjyjubl5qkqlGiAWi6OEQmEIOv4H8ph7Q99hDXFGx2rb2tr+un379ueovq03jMz/6kCEzDvHRVBfX68cMmTIrpiYmDvtdrsCo2Vckz1S4sfuD57rEQtYJ8AiAYQFyAv8DhdGOjqjx/RWq7VUp9OdEgqFpwsLCz8YO3ZsTfc1+f8WZs+eff3BgwcfiY6OhuLyfTFFBka3gR74sutuFOZV9G5ubm4uj4yMLJoxY8a/FyxYUNmT/QyUttavX59UVFQ0Wa/Xz1CpVH3MZrMaU0V0l3Ahhkio4XfMeYff0crq9PG61NLS8nZJSclzPY3/0aNH06dPn34/wzB91Gr1rTabLd1ut8vBdwn66Rrxh0fxqDetbz09Gj+0B3MAyBj4DprNZk1zc/O2v/3tby+OGDHCyI9EarU7CBAh6w56PD4LJVOGDRu2mWXZ33Acp6LSKPyAjRGIQL6A8OARESbUBPLjTFthNpvN9fX19afvvvvu1Zs3b/6MH43+v9XExMQ/REZGQj1TBykD6wYeQcFd8DsQMz4veFGKRKJajuO+0Ol0R1Uq1Zlly5ZdpPxlV0f91ltvnfB9sMSA8PDw22Qy2S1WqzXJNbcXHO05j5Ku3tjP3IFRvuAbBhY1+I7kBh5xtZDBkTrLsv+qqKhY1GWBnXxwxowZGceOHctLTEwcpNFo4sLCwqSYo881HYZrehfcYFItzk6C3Inb8LjSeYxc/z1BfuXLL79c04lH6RYPIECEzAOgd1Zk//79V4jF4lkMw0QSIessatd2HyxYGHGIx0bwHUP3wReeYZjq2traM1Kp9FRRUdFfx4wZ4xaH2HXr1qWsXbt2ikKhmCOVSq+XSCRSSN4JPkBAFHsiCvNqaGEeKqcfWlNra2uN3W7fP3ny5KINGzZ8e7XnA/H/c+bM6Xv06NGZJpMJUlnEMgwTAfEfeESMx5QYjdgdjDCBMOaZQ4IGVhH0QXSS6v9UVlb+4w9/+MP6nJycHrXo/pz+R44c6fO73/1uWkhICKRzGSGXy+Pg+BzmLVhsqDh6d0a+c8+iVd05P8oZhvnDF198QWWTOgef2+8iQuZ2yDsvMC8v79effvrpSqik1BMRV52XHFh3wosLs+vDywvLHjEMY6itrS2TyWQflZWVPeEpVNLS0jJFItFciURyQ1BQkBKOU8EnzB3Z0NGCAX0H66HTF62ZZdlv29vbP4HvEyZMOHP//fdXTJw4Ue8pjDwpd//+/cq33nor+fDhwxlisbi3XC4fIZFI+jAMEwUvQkzOC1iiT6BrotXu6I4WUoxqxPax1JFQKGRbW1uLLRbLmzU1NX/ojqyuPstxnDQtLW0lx3GTIyMjIYWGHPrv6vhP61tX0b36c7CewSaO47hz11133cxdu3ZR2bSrw+aRO4iQeQT2zgldtWrV4D179uzkOO5XaOZ3XbgoE3bncPylu4BkOGu8OXzGgOzAS62tra3ebDafmjBhwqYlS5Z8nJqa2r2EUN1Q9fjx4+FZWVmDVCrV43a7PcNgMITBUStaRbrR9FUfBaKKJXNg7sHPgA+kOOA4DnKrtYKfmVAoPLRgwYK/33PPPVWexOqqHerBGy5fvizbt29f3zVr1jxisVhGxcbGphiNRpVUKg1BEgbf8agZsESfRfTv6q46QGzgZQsWTLSIwbyAeWwwGGDOwst357p169657bbbGrsrr6vPf/TRRwmLFi26XywW3yoSicZYLJZErEyBlkNc29Avkta3rqL9/89hbjj2h+tIdnb2nJycHMo12H1oeWmBCBkvsPZMo4cOHbrh6aef3i4QCG7FBR4tFa6LWM9IC8xWYMFCPzGnD4vVZrOViESif6xevXrn6NGjSxmG4ddRq5PQP/bYY30OHTr0QnR09FiRSBQHL3fXedHJZq7pNnzJoyy0yAChQOsZx3F2kUjUIJfLv6mqqvrWaDRWx8XFFc+ZM+fc+PHja9LT03+IjvCDa9WqVX3efvvtOyorK9PEYnFsSEhIulgs7iuXyyH1g4McYbUGmFdYWgjGCas3oCN/T/gA4tx1Hks6NheQPqOxsbFVJBJ9OWrUqN9v27btU2+BXqPRhE6cOHEhwzAP2Gy2viKRyFGrk9Y3fkYI54XVajV+n9T3g+XLly/IyMio5kcatdpdBIiQdRdBHp8/fvx4Wm5u7haxWHwHvvxo19izgEO0F2avt1qtBqPReM5kMr1VWVnplY6vs2bNSvrqq68eM5vNjygUit4cxwl7FpH/bg0TyKJlDAtU4xGZa540ZzZwvUKh6KipqWkXCASXRCLR5wsXLnynX79+mgkTJkC5KJ+7IAVNZWWl+rnnnvt1UFDQEJZle0dERCiFQmGwRCKRYUAIRr4664U6rGGYVgSjd12tmvD/nsozBg790DaQPbFYXBkcHHwkMTFx9e7du7/yRsCTkpKeFQqFd6hUqqFisTiE1jd+RglTXohEIi3Lsu+sW7fuGU9aSvnppf+0SoTMi8eyrKxMPnHixD1yufxuqVTqyEXmaqGgtBfdHzys9Waz2Zr0ev2pwsLC5++44w6vfIlhb/fv369+9tln7+E4LothmOsEAkFI95H4+RZgUQfiCnMPLWaYywyPmTAIAn7HiD+WZW0CgaDFarVWfR+cUtHa2lprsVhak5KS6gwGQ93MmTMhU3zTiBEjWvjUv7NtQxmjb7/9NnLbtm1AEqKbmpqiANuoqKgYi8USHxQUlGiz2SJZlnWsm+gw7UomsPg2YABzy7WWID6Dn1uwXnQ3bQkQsLCwMDhih7YMQUFBpXq9/p0VK1YUTZw4sayzfffEfYcPH/7V3Llz/yyXy4dLpdIYWt/4GQWYZ2KxuEmj0ez6+OOPf5+UlEQpL/iBututEiHrNoT8NpCSkvJ6ZGTkA0KhUAE+KLAThh04llnhO+0Bv73jv3XXoxDX4x14caL1wmg0VnV0dBzMyMhYvW3btov8a9UzElJSUu6Mi4t71Gw2j7fb7RF4BIbO0lg2CTBA6w0SBOci3e1KAFfriUsqA04gEOhFIpFFIIAYCgtYIyttNtv5MWPG7JVKpZqHH364JT09vT0xMVHzc+2C35bFYuFuuOEG2/cRY/aryf+l/x89ejTVZDIp//Wvf6WdPHlyuFar/ZXZbI4FchAWFqYQiUSQqgFSnCu6I6c7z15ZHBoJMFrXYB2AI8qOjo7Wtra2LxiG+fdbb721efDgwVCj1OuvrKysmw4dOvSESqWaaLfbE8H3DdY5zAWIVkbKU9a1oXTZtNd9v0asPXfu3Ctda4mecgcCRMjcgXI3ZPTq1WuTWq3+nVgshppxP+6oMaFid3fY3VDNJx5FHwpY2OEL/HiAmLW2tjosC3V1dZVCofDD0tLSuT7RoSuUBJ+mDRs2vBgZGTmaZVkoXePwI3ImgnRYaFwcex2+Opj7CnyeAA93Xa4vVTwK5TiuIywsrKW1tbVDKpVWMQxTr9frGb1eb7darZxCobCbTCa7Uqm0RUdH64FEt7e321QqlaF3795fCYVCK4ynQqFwrGXQJ5vNJi4vLx/Y3t4uZxhGpNPpgqxWq0gqlYosFotYLBYLIyIizAzDJMpkshCdThcnFAojJBJJKNwHhBYjbz39+QJSjSWVQC903seSWE4rXY1Wqz29devWF8eNG+eTEXQpKSmFarX6LqvVGo+pMVz9FCntT9c+pUBsndhVa7Xa1aWlpau61hI95Q4EiJC5A+VuyEhLS3s5ODj4calUqkJLByxUWDTW0y+MbnTNLY8iGcHM4OjL48SvpLGx8YOlS5eu9OUs9DfeeOP1Wq12THx8/CyTyXSdUCgMxZeZa3FyTIkAhA0ucEDHagR8DYYrCXP1N8N5ixsLJBtyudxut9utQqHQLpFIOIPBYJfL5ZzZbLZDzU0Yt/DwcMZms7EtLS0GuM9ZFojBFBNBQUGM0WiUi8ViUXR0NNzr8LOTSCSM1Wp1/K5QKEQMw0gxlxsexWK1BsxwDvI8eQE+SMIwKhH0cdYiNSmVyuLi4uL3o6Ki9ly8eNEnyRj0Z+3atb1fe+21J8PDw++CND9oKcNjXSJkXZuFuA5YrdbylpaWF8rKynZ1rSV6yh0IECFzB8rdkNG/f/8FZrP5WYlEEo1RWnhcgccZ3Wje7x+FBR1ICRz1wosNfncWWi5raGh4r7q62mP5xXoa/Jtuuml0e3t7Xmxs7K0syybYbDYRvsRdjyxBrruidJGQoUz4/crjJ8wm7uKU7rDyARnCElagPxBK9FVz9aXE/6EMeHmjoz1mqsd5AM/DF1iegIyB9QmPxeA517xrmHS1p8fpWtrD/sL39vZ2xzyGq729vfH7Kh7fyGSyTRcvXvz7tbTpzffCiUBkZOQUi8WSAOsdjjPlKevaqMFmBXC0WCyQxDnv/Pnzh7vWEj3lDgSIkLkD5W7IGD58+MNNTU3LQ0JCEtEyBi8b15dYN5r3+0fRTwwzmAM5M5vNpR0dHe8tXrx4hbuylrsL6Nzc3JT33ntvYnR09EMSiWSw2WwOwVp2YAWCIz244GcgJd2N8utKv5CUuRIoGCcgj5iUF61pzshNB1HCwAK0eiKxg7+7luBBnTAYwbWmo2v+L5SHeqDvHcjE+dKV/vXkM0gSISEvHLF3dHSYpFLpN1qtdt+IESP+lpeX952v+It1Bhc4gl+zZs3CmJiYuzmOS8K5QnkYO4Pe/97jPNJmdTrdmfDw8KzTp097dcBS13rpP08RIfPysXzkkUdu+fTTT1+PiYm5EbNb4+JEFrKrDx4ejYF1DKwL1dXV1UFBQftKSkrmXP1p370jOzv7hr17974QHx8/TCaTJRgMBhEQDfAtA0yc6RHc4tSP5Ar92fAlC9/xSBBIo6v1y7mrd/wfrXkwGmglA8IEfUCnZfg7EjTXv7v+H4kXEDhnfVJH/1Eu+hvinEFLmidnAfo+Ov3I6hsaGr4ZP378szt27DjlSb34lh0fH781Li7uLoZhYnHcUKYrwSaXjV8eCadluEOv1x8aMWLEE6+//nol32NH7XcdASJkXcfOLU9u3bo15aWXXiqKiYkZbbPZGLRoeIvTsVtA6IYQfJk7c43VNjU17b/99tuX7dy583I3mvWJRwcPHtyvvr5+sFqtflgsFg+zWq2RmHPN1VeKz86gjxjIuJKQuQamYDQsWrXwuytpAyJ1ZR4vJGzQPpA6LCeFPmEgA7PjY6oOIHtI2rDvrkep8De4F6sU8InP1dp25ntr5TjuUnNz88GoqKh/njlz5uzVnvP1/8+aNeuGTz755AmFQnGvWCxWU56yro0ozHWDwdBcX1//xksvvfT77OxsbddaoqfcgQARMneg3A0ZHMeJ09PTdwYHB8PCpETrhrM0yo+18bohwq8fxRe6yWRq7ejo+Li4uPjX3pJ5313A5+TkpO3du3dhbGzsBLvdHmu1WkMxfQrfFgaXsPsfrVmuFl70h0TrFvyORbddqwQAVvBSdiV4eIzpGriBCWvhO5BOTIwJx5Mu9R0dhMu1fXR+xooEmGXfNSjCXePlIqeNYZi6+vr6E5MnT15TWFh4wQM6eFRkenr6W3K5fIJMJgsFRSgP47UNB8xfiURS1draWlBSUrLi2p6mu92NABEydyPeBXkDBgz4o0QimWswGKLhRYrHNa5Or11o1i8egRc54IApHFwTluKL326321pbW08zDLOxrKxst190/Bo7sXr16riNGzeOCQ0NHWi1WqdyHJcik8lkrn5Y6K+EpX3wKA/IDTjAY/1MtCDR/Lv6IKAPIx7JopuB03LhIJhADMF3DtORgIHOZDKVm0ymY0Kh8OjatWsPTpo0qe7q0vzvjpSUlEyBQDArKipqGGxOASPwp4N18Eorp//1vsd69J3Van3+/Pnz7/RYi9QQLwgQIeMF1p5tND8/f/S2bdsKw8PD+7W0tDgiz+AlCSQEUxn0rETfaQ0tGK7FttHvxhmZxWk0mguLFy9+Yt68eR/7Ts/40zQtLS1HIpE8EBQUdAPLslEKhUKC1iQ8EgeCAPMM8EXShsd6aIWC/wX6/LvaKGF1A7gPMQUiAQQN8EULotOSwdnt9sa6urrS8PDwvRcvXnz5au0Hwv/XrVs3eteuXctsNtsIDGwCUgb+kB62YHo9/E6XjaM5OTmPZWdnl3i9wgGuIBEyH5gAn3322fW5ubnbOI4bjgsSLO7ok+MDXeBNRSQHQChCQ0MdJBX+BjtpsOowDFPd0tLy77KyslzelPCxho8cOSIvLCzsffLkyTtjYmKGmc3mYWKxON5isTCuTvTocA+YgkUCC2WjHxccAwKxoOvnEQDC5SRbDosO4otEDP3UrFZrA8Mw5+rr6z+/++67/z1p0qTi++67r42w/QGBfv36LQ8KCnoIIi/xSNvVf5Bw+lkEjBzHvZufnz9/9OjRTYSTdyNAhMy7x+dH7VJSUj5Uq9WTMPklpjII9NJJaIFAJ2wgYmAta2pqgjQB7c3NzR8XFRU9OWbMGL934u/KVN6/f3/StGnTsmNjY8eJxeJUm80WHhQUJAHCAHmvwArhmnICdtzwN8AdNgVkIftl1DGoAOtaosURMIT6k+Hh4S3l5eVVMpnss8LCwtXjxo271JVx9Pdnjh49mv7oo4/+JTIyEiIvg9Bay7cPpK/jyjAMlNT6W3Fx8eO+3pdA0J8ImY+MclJS0r/i4uImWa1Wh98P+p4EusneNYoS82oBaQ0KCoLs7l8OHjx48aZNmygZ4i/M85MnT4auX7++74kTJ6aqVKo+QqHwNqFQGMcwjNhJGhzWRjhiQ/8yTBeB0ZE+8jFyu5oYpOAaUeqsAtAgk8nO19bWfj1u3Lg3H3nkkUvjxo372RqeblfcCwXOmTNnxLlz51YLBIKhrtZGL1TVa1RiGKaptrZ2e21t7dNeoxQp8rMIECHzkcmRkJCwIyoq6n6FQhHqLBXjI5rzqyYcm2FJHThWQx87g8FQbTKZ3i0tLc3jVwP/ah0cpxMTE58RCoWj1Wr19SKRKEwkEinBZwedzpFc4HGxfyHQs73BCFAgtFBYXSwWt9TW1pYrFIrTmzdvXk8WsWvDOyEhYWV0dPQ0iUQS41qK69paCZy7RSJRTX19fUFlZeWrgdNr3+0pETIfGbuUlJQ/R0dHZzEME40+KeiI7SNd4EVNdOCHuoxAGuB4LSQkRFddXb3/jjvueHbbtm3FvAj240Y5jpOuWbMmddWqVVPlcnkyy7JDExISehsMhgice2AZw+SyfgxFt7vmdN7XcRxX29raesFgMJQ8//zzb+Tk5FxkGMbebQEB1kBOTk6/jz76COr73ikSiRREyn55AjQ2Nl4Wi8XPlZWVvRVgU8Unu0uEzEeGLSsra+TBgwch0vJ6DJ13LQPjI93ocTWxxp3L0SWUCTmxcePGJ8aMGXOuxwUGYIOPPfbYjefOnbuzqalpSkxMTJpQKAyBXGZisdhR0Juun0TAIBAIdO3t7TUSieToiBEjPtyyZcshwqr7CKxcuXLQm2++udZisYzAclfdb9UvW2A1Gs2JCRMmZBUWFn7nlz30s04RIfORAV23bl1Kfn5+UUhIyGh4EcLOGxNb+kgXeFETnMqhLJJL4ek6nU73TnFx8TxeBAZwo3l5ede9//77Y41GY2paWlo/vV5/C8MwkP1f4Wq1hWNksJ6B9RICLNCSixY1HDOwaqJPmmt5JDzmw2AC9FPDv+MQYIALpuVwLSWGzvRI2K8k7tjGlc9i2g+0AMJzGG2KdTXhbzDnwKcO73PeY2FZtkkikfynrq6uTCgUlo4dO/b97du3U/3AHv7cpKamrouMjPyN3W6PRj891zGFeeWaN6+HxXtNc1jTGOYmfF5g/mJtV5ZldVqt9r28vLz5ixYtavEapUmRn0WACJmPTA6O45hbbrllLcMw0202myoyMtIRpRXoUW5ATKHosrMgtKmtre2z3NzcJxYtWhRwWc3dOZUPHDiQ/tJLL42tq6sbY7fbB4SHh4c5o9+UFotFiDm24MUIGwesowm/wxekKAF/P3hpwoVkC/3TsJA4PItkCl4+SMLwb0CEMLs+tIOJgdF67FopwLU8Ery8XDP940sM68W6JmzF+7BeJvwP9IYjcoZh9Eql0lBXV6ezWq3fREdHH3n55Zffg7QV7hyPQJO1du3am1evXl0QGRk5QiwWi3DcMYEx4BEIASfOABHHpgHmJ0Q+w2cE5qdQKKxhWfa1L774AgIh6PIBBIiQ+cAgoYoDBw5cIBKJFjEMk4Q79EA/MoKXMVhkYCG2Wq3fBQcHrz916tQmhmFsPjS0PqvqwYMHk5966qnBbW1tfW02W1xCQkI4y7ID4GeBQBDKcZzEtYA4vCRhzIDUACkDovZTli7MsYdpIjCyGK0ACBgQqCutXK4EDu4HeVi1AY+44DlMbIvPI+FyLZ/kalkDmewPV7tIJGoSCoVfa7VzpLgJAAAgAElEQVRafWtra31qauqXy5YtO5GSklKTnp5u9tkB9SHFBwwYMN9qtc5XKBS90ZcUCDzMnSsrS/hQt65JVdxkYA1X+B0rbLAse37IkCGzt2zZ8vk1NUo3ewwBImQeg/7aBR8+fLjf008/vR0yVrt+AK+9Jf95Ao+Y7Ha7VqfTfXj58uWH/ad3vtmTzMzM4efPnx/V3Nw8kmXZ5Ojo6CiRSCRnWVYqFoulEolEBi9QTOLrmuAY602idQPJHL548Dsig58DbMM1Lx/WyXQ9ykFLCry4MbEoluBBa55L+hSbSCQyG41Gi0wmM2m12laWZatCQ0Mvjhw58uN169YdYBiGMuN6cJr27dv3TaVSeZdAIAiCjRlsVNGqGghBTzCfwRoNljH4bGB1DZZlLSKR6OCyZcseHz9+fKUHh4hEXwMCRMiuASxP39rY2Bg8efLkHTab7V673S7Gl5Wn9fKkfHjZwmIkkUi+bmtrW1tSUlLoSX1I9v8j8OqrryaWlpbGfvjhhyMFAkGsSCQKMZvNKidBixUKhWqGYRQsy8rsdruUYRgRHiViK5h8Fo/m4QWEOdDgb+irhglC0UIA7cDPcL9r8lBX4obWNalUygkEArBqmVmWNchksgYoYQSFvTUaDcdxXEd0dHTp9ddffyYzM7NqzJgxZTTO3oFAamrq8xERETPEYnE6Hoej71ggJI2FOY4+mZBsGC5nWak2kUi05+23316clJRk9I7RIi2uhgARsqsh5GX/T0tLWx8VFTXdYrGEACEL9CNLeOHK5XJdXV3dPyorK2d52XCROlcgUFtbG/Ttt9/GXbx4MWz37t0jrVZrjMFgSDOZTOECgSBCLpfDl1QkEonBtUwikQhZloVoTkbovBiGYeBvYAHDSE8kbCzLArlyfDn/bwdGZbfbOUgzIZFI7EKhkDMajTa9Xm+1WCytSqWyrb29vUmtVpcHBwfXTJky5cgtt9yiGzRokDYiIkJLg+i9CHz99dfSSZMmFYWFhU1RKBTBoClYxmBtRH9E79W+ZzTDdwAQUdjAOANRGmpqarbW1NQ83zNSqBV3IECEzB0o96CM+Pj4pQkJCU/abDY1Htf0YPM+15TT4frc0KFD523atOlTn+tAgCsMBK24uFj11VdfyT///POwS5cu3dDU1BRrs9lguy8TiUQSlmXhSyyVSoVKpVIvl8uFQNZsNhuY1IRA1hBG+JvNZgvhOK4NUnNYLBYgYaxAAGU3LRabzWYSi8WmoKCgdqlUWnfbbbcV9+vXT3vTTTfp+/XrpyNrgu9NyDlz5oz79ttvl7W3tw+G9QDXxUDIk4e+kUBAgYxB/+Hotr29vfR7P7oXi4uLX/e9EQ1cjYmQ+djYDxw4cJJer18tl8uvo+K6jkgqjUaj+XdFRUWmjw0lqdsFBDiOc5AxpxUMW4Df8QssBNYuNE2P+DACycnJm+Lj43+t1+vBwvpjtK0Pd6nTqoNFDIgY1J6FiHOj0ci2traeuOOOO+Zs3779P51uiG70OAJEyDw+BNemwKFDh2JmzJixOT4+fhLHcT/kDPDjC32C0Fkbj2lhZwj+QA0NDacXLlyYs3DhwrN+DAN1jRAgBH4BgZUrVw4pLCxcGxwcPAxuC5Sk2ehDC878sEY6I4dbm5ub33r99defHjVqVCtNHN9BgAiZ74yVQ1OO40Rjxox5WqvVzg8KClJDHi5/vtAJG/NDwXdMkyCTyWqamprerqioeJphGJM/40B9IwQIgZ9HoL6+XjlgwIA/Jycn/9pqtSZg4Ie/Y4ZpfzDKEvzIWJYt/76s1KunT5/e5O/997f+ESHzwRFdu3btgKKiom1ms3kAJtb0wW50SmVYcDBiDotZw+8ymYzT6/V79+3b94hare7oVGN0EyFACPgtAmVlZfIHHnjgDaFQOBUCP65MkeKPHcfABegrrI8Q0KBQKI5OnTo185lnnin1xz77c5+IkPng6La0tKimTJlSZDKZ7mYYBnxq/PrC4wcwx8MFi5DVatW0t7f/o6KiIsuvO0+dIwQIgU4jkJiYuC4qKuqh4ODgSK1W68hJ5s8XbE4hCS4cWcI6qdfr9TKZ7K///Oc/F1CAiu+NPBEy3xszh8ZJSUnb4+Lifs2yrCPU218v1wzrWC8RoqgqKysvTJ48+fHCwsJP/LXv1C9CgBC4NgTmzp17+0cffZQvk8luxkoQ19aCb93tTPvjyLkHxCwoKKi5rq5uS2Vl5bO+1RPS1mFsIBh8E4H09PQ/KpXKbJFIpPbNHnROayx9g6Z5Z/b1ttbW1n/s2LHjqYyMjObOtUR3EQKEgL8jcODAgfjs7OxlUVFRU41GoyoQXDqgj0DMnJUmKpqbm18oLy8v8vex9sf+ESHz0VHNzMwcfOTIka0RERE3+2gXOqW2a4FgLCQtkUi+eOCBB+YuXrz4TKcaoZsIAUIgYBAoLCwcsnbt2nVKpXIoujn4a+ed7huO3GuQ8Litre34qFGjsijdhW+OOBEy3xw3wfr162OXL18OWfsnQR03H+1Gp9QGKxlGWdpsNiPDMP86cOBAdnR0dHunGqCbCAFCIGAQAOf+8ePHF4WGhk5hGMav10bHMRfDOI4soZ5vW1vbX9evX//M5MmTdQEz4H7UUSJkPjyYmZmZ93z11Vf5Uqk0VafTQeShw4kV/K7An8AfHFphh3tFseDGtra2N0tKSub58NCR6oQAIcAjAikpKa9FRkY+wrJsLNR4hEL2TiuS43gPI7bBEd6XL/SxdVYnKLnllltmb9269WNf7lMg606EzIdHf9WqVX3eeOONnXa7/TYMecYjPlhogKD5ep4yZxkQxy4wJCREUFFRcWb8+PFzt2/f/oUPDx2pTggQAjwi8Pjjj4/Yu3fvmujo6MFIWjCnIayJ/lLlBAuoWywWTiaTHZk+ffqj8+fPr+YRWmqaRwSIkPEIrjua7tWr157Q0ND75HK5HI71YNHBXR/sBH19B4gZ+oGYGQwGrVgs3nHmzJknoVC0O/AlGYQAIeCbCAwcOHCFRCKZbTQaw8DKjlU/gJCBGwQe9flm737QGtd3lmXbtVrtX0tKSnJ8uT+BrjsRMh+fAUlJSa8lJCQ8ajQaI3EHCAsN/Ix+V77cRVhI4bgBvkskkvO/+tWvFm7duvWwL/eJdCcECAH+Edi8efPAjRs3bhaJRIMxSSwWHgfp8De0MPGvDT8SDAaD4+SAZdlajUazrry8fBk/kqhVdyBAhMwdKPMoY8iQIdNaWlpeCAoK6gPJAcE8D0TMX0zyQCwh+7RYLDbX1dXtq6uru5dHOKlpQoAQ8CMEUlJS/qlWq++y2WwSXz8t+KlhQYLZ0tJybuzYsY8WFhZe8KPhC7iuECHz8SEvKCiIX7169aaQkJCJUqlUCjs+OObD776+CGHpJLFY3NzY2PiPsrKybB8fMlKfECAE3IRA3759d8rl8qkSiSQM1kJYT8Ayhq4dsIH15cu5PuoaGxv/tWjRoicWLlzY5sv9CXTdiZD5wQzIzs6eevbs2bUsyyZjVCJ2yzWPly92FRZO6JNer/9u5MiRT2zfvv2AL/aDdCYECAH3IzBt2rR7T548uSIsLKwPHlGik78/+JCBL5zZbC4ePXp0TkFBwSH3I0wSexIBImQ9iaaH2lq3bl3fwsLCnUqlcjj4FGB0JXxYff2CHaBSqTSVlpbu37179xNjx46t8PU+kf6EACHgHgTWrl3be8WKFVvVavXt4MwPKTCAkAE5A9cOOPLz5QuSwVqt1kPLli3LuvPOO8t9uS+kO5VO8ps5kJKS8le1Wn0vx3FBYFECMuYPTqtgIbPb7dU333zzi9u3b9/mNwNGHSEECAG3IJCTk5N7/Pjx5xUKRSwQMF/atAJ5hIAm8KOFNR1PDLCknFAo1DY1Nb1RWVlJ0ZVumU38CiELGb/4uq31xMTEZZGRkTMZhokFh350hvd1KxmQS4VC8emKFStyR40a9ZXbACVBhAAh4BcIfPTRRwOfeeaZArvdPgKIDabAwOSw3txJWMcxbxqQSZPJ5LDwwSmIk5xVaLXaFcXFxeu9uR+kW+cQIELWOZy8/q7Vq1cPLCgo2BAcHHwrRFu2t7cLwsLCHDsrX76EQqGpubn5QFlZ2VRf7gfpTggQAp5DAKItIyIiJopEIgVogUTH2zesV6brwFxqQMpsNpultbX1yJIlS3LmzZtX5jl0SXJPIUCErKeQ9HA7R44ciZo+fforsbGx9zMMEw67PywX4mHVuiXebrdrWltb/11eXp7ZrYboYUKAEAhYBHr16lUUGxt7l91ujwQrExAx15xk3gqM84TAYRkDMgabbfibM7qytrGxcVdFRcUfGIaxemsfSK/OI0CErPNYef2d+fn5Q3bv3r3JZrMNhA8vmLUx073XK/8zCmo0mst33nnnExs3bvzQV/tAehMChIDnEOA4jsnKyvr13r17X1ar1b1DQ0MdJwiYQNtzml1dMqzj6PcGAQlwdXR0QHACJxKJPn7llVcez8jI+O7qLdEdvoAAETJfGKVO6shxnGjQoEFFQqHwQalUKgPnVW83yV+la7bW1tZjc+bMeeyZZ56hCKJOzgO6jRAgBP4bgVdffbVfUVHR1qCgoJFgbYITBPjyhQ0r5kqDDTboDkRSIpG01dXV/b2qqmoujbX/IECEzH/G0tGTtLS0l1Uq1WyWZaPRedWHu9jEMMz6L7744iUf7gOpTggQAl6AwIABA6CsUI7NZlMFBwc7/Gu9vXQS5kwD8ohHrVDXt6Ojo8JoNL5y+fLlTV4ALanQQwgQIeshIL2lmSFDhoxtamp6LTw8/GZf2QH+AnanZs2a9VheXt7X3oIv6UEIEAK+iQC4dOzZs6fQZrPdAicH4IvlC5VMgDSCvhioZTQareDMP27cuLlbt24lZ37fnI4/qTURMj8aTOzKoEGDXrbZbHNlMlk47LAwESIWH8fs/d6QqdqZZ+zHciZYEF0ikVhqa2v3VlVVPeCHQ0RdIgQIAQ8gkJqaujc6Onoyy7IMlmXzgBrXJBLXbSCQTotend1uf+XcuXNrr6khutnrESBC5vVDdO0KZmVl3XrmzJnNdrv9ZtcEsUjA0CcBPuieLq0EuiApgyNWzLljtVoh4eE71dXVj107AvQEIUAIEAL/i0BqauqbISEhk2UymRL+6+21LNGKB+s05k0Ti8XHhwwZkrlhw4ZiGmP/QoAImX+N54+96dWrF2Tuv89msymAiOEXfLC9iZC55tUB8giEzKlrfXt7+67Lly8/5adDRN0iBAgBNyOQmpq6OTo6+n6TyRQF0Yve7kMGm1RIXwQ+b/BdoVC0NDc37yguLl7sZuhInBsQIELmBpA9ISIpKenZqKioXIFAEA/ykZB5QpdfkgmLIpAwLIqOkURtbW3/CQ4OXnr+/Pl/e5vOpA8hQAj4JgL9+/dfoNVqn4iKiuoFaw+sO9584YkBWMeMRiOkwPiPRqN5tqKi4h/erDfp1jUEiJB1DTevfwoKjq9YsWJjdHT0GEiHgdE6rsQM/+bJzoDPGJAw17IgYrHYaDAY9ubn5z85ceLEKk/qR7IJAULAfxA4dOhQ39zc3M1KpfJ28CHz9uLiYCEDPSH3WGhoqL6mpub9Z599dlFOTk6N/4wK9QQRIELmx3Ohf//+i6VS6RMCgSDR1VcMfce8gZChDxkQRVh4QDexWNxQUVGxoa6u7mWGYbx7C+vH84e6Rgj4GwIajSb0hhtuWNm7d+/fGo3GUG+PsgQLGZBGsJBZLJZiuVz+55MnTxb527hQf35AgAiZH8+Effv29VmyZMl6iUQyAZ37vYGEXQm5a6SlU78vBw0aNHvr1q1n/Hh4qGuEACHgAQRycnLGnT59er3Vau0LRMebL/RzMxqNBq1W+/6uXbueGD16dJ0360y6dR0BImRdx84nnkxPT89XKBTTpVJpBCiMmamvTIHh6c6ALwccXQoE4NZh27t27drckSNH1npaL5JPCBAC/oXA0aNHUxcsWLBRJpNNsFqtXv0OhHURNtMMw1S3t7e/cunSpfX+NRrUG1cEvHoy0lB1H4GhQ4f+uqGh4cXo6OgboDUgYvAhx+hGb0h7gX5tTj8yXVtb25sVFRVzut97aoEQIAQIgf9FICUlZVdUVNR9AoEg2JP4uOaCdE1LhHU2YQMtkUjMtbW1J+666668zZs3f+NJfUk2vwgQIeMXX4+3vnLlyqg1a9YAIXtEIpGEg08CHAtCGDVE7Xg67Bt2f/AFdTdBF6VSqamsrNxZVVVFYd0enz2kACHgnwgkJydvjI2N/TXLspGe7CGsea5piJCUwUbZZW2uqK6u3vGPf/xj+YgRI4ye1Jdk84sAETJ+8fWK1vPz8/vv3r17g0AguA2zU4OlDPLaQF00T15QTw51AJ06OjrqDAbDmvLy8lc9qRfJJgQIAf9FIDU1dXloaOg0sVgc58le/hIhc5Iyq1Ao3P/KK68sGDt2bIkndSXZ/CNAhIx/jD0uAdJepKamblCpVL+RSCRheEzpDXl4MOLTpYxJsVarXXD58uX3PQ4cKUAIEAJ+icDgwYMfa2lpeS48PDzV2zoI6zOu0Wazuamjo2NPZWXlAm/Tk/TpeQSIkPU8pl7Z4rBhw37X2NgIyWJvMJlMDgd6byiuC3pAjh3ItwMEsaqq6qOJEydmbd++vdQrgSSlCAFCwOcRmDlz5k1HjhzZHhUVNdiTnQHihak3kIjh38B6ptVqvwkPD3/x9OnTb3lST5LtHgSIkLkHZ49LWb58eeyWLVueUalUv7PZbJFwTAjHhZ7Ow4MFc5366HU63e68vLynFy5c2OZx0EgBQoAQ8EsENm/eHPfyyy9viIqKugdinTzVSVfy5VpX0+k/1qzRaP6em5v74uLFi5s9pSPJdR8CRMjch7XHJa1YseLGN998s8But98OyoAzPabB8JRyLiVBQIWG78PQXzp//vxGT+lDcgkBQiAwEBgyZMif7Hb7PIFAoPKGHruSM1iXbTbbp3PmzJk9b96877xBP9KBfwSIkPGPsVdJ6NOnz+rQ0NBHGYYJvyKSxyN6wk4QrGTOEibfCYXCJadPn97rEWVIKCFACAQMAjfffHOmWCx+CSqZeKrTrqkucJMM3y0WS5vZbP773r17n0hPTzd7Sj+S614EiJC5F2+PS+vfv/89er3+zyqV6iY8rgRTuevuDB1KXXPk8KU4yAL/MWfh3APTpk3LXrhwYTlf8qhdQoAQIAQAgbVr195QVFS0g2GYoei/BacGcIGFyl0pgTDSEtZjLB/X0tLyn7CwsL+cO3fudRqtwEGACFngjLWjp5CXbPPmzQuCg4Mh8aoaSyphclZYmFzz4vCdOBZkOetZsnK5fM+f/vSnhePGjdME2LBQdwkBQsDNCBw5ciRx0aJFhWKx+E6sqQt5GmEtxJJFrn5dfKgHLhsQZAXrMMgE+SKRqKm+vv6fzzzzzAu5ubn1fMilNr0TASJk3jkuvGq1Zs2a9MLCwvWhoaHjwbEfydiV5nNMScGrMk5fNo7jjCaTaev+/fufjo+PN/Atk9onBAiBwEagrKxMPn78+F2hoaH32O12GQY6wToIBMkdUehYMg6IGFwMw3Aikej4rFmz5ubm5n4b2CMUeL0nQhZ4Y+7oce/evf8UHBw8VygURjkXAreZ6F0ht1qtjsSwFotF397evrukpGRugA4JdZsQIATcjEBSUtJf4+Pj7zGZTMHgOoEl5eDoENYmp28rb1rhsShYymBzzHFcc1NT057q6uoneBNKDXstAkTIvHZo+FVs+PDhE2tqav6oVquHcBzHgGne1VIG0vFvfGoCiyAsfDabTafT6d4oLS0lQsYn4NQ2IUAI/IhAcnLy7uTk5LuNRmMoBhehLxdYyfg+sgTLGGxI4dhSoVBwTU1NZ6dOnTovPz//MxqmwEOACFngjbmjx3v37g2fN29ebmRkZDZEGbn6iuFRpTsIGcgAh36hUAhFxXfX1tbmBuiQULcJAULAzQgkJiZCkfF7JBKJCsgRWKpgTQILGRAlIGl8XiADStiBJY7juOrm5uY3V69e/fL9999PfrR8Au+lbRMh89KBcYdahw4dSlu4cOFKiURyl0gkkqJDv7uii6CPYCGDxc9sNrfI5fLNp06detYdfScZhAAhQAgMHTq0oKmpaVp4eHgY+o6BxR5PC/hGCMgfyJNIJOaOjo4Dn3766SNqtbqDb7nUvnciQITMO8fFbVr17dt3oVwuXyyVSuNBKCaKBSuZO9Je4JGATqerGTVq1NKdO3fucVvnSRAhQAgENAKzZ8/OOnLkyJ9DQkKicc2DNQldKfjenCIJtNvttY2NjTsqKiqeD+gBCfDOEyEL8AmQmZnZ7/DhwwVqtXq0zWaTYcFxTIfhjrQXMARtbW2VTz75ZG5eXh4lhQ3wOUndJwTchcDGjRsf+Mtf/rJBrVargYhBbV2MPMc1sDu6AOECCxi0i0eh8DMGDQAJFAqF1qampuNLly7Nzs3NLe6OPHrWtxEgQubb49dt7TmOE1133XWPymSypyQSSV8gYBj56I6wb1z0mpqaNHfccceft2/fnt/tTlEDhAAhQAh0AoGHH374D1988cWSsLCwYEzKiptQzE3WiWZ+9ha0sGHiWSRl8HcgZuC3FhwcXKrT6dZfuHBhVXdk0bO+jwARMt8fwx7pQa9evbZFRkb+RiKRBMNiAQuFS0mjHpHxU40YDAaBSqUCWXaGYd784IMPsqKjo9t5E0gNEwKEACEgEAiamppCxowZ85ZUKp2I6S2wYgl8R4LWHbBgc6tQKBybXLTAQXtI0DiOa29oaDhYVVX1QHfk0LP+gQARMv8Yx273IjExcV5MTEyeUCjsCyQJfChgkeI77BvkgDxn+ZBKhUKx89SpUy90u0PUACFACBACv4DAyJEjX21paZkWEhISD2knYL2DI0TXUnLdddmA59ENBAMFMHodNrwGg+GywWDYWVNT8zINFiFAhIzmgAOBY8eOxU2fPv0vcXFx93Mcp+ro6BCEh4c7UlLweeGCh4kRGYY5r9Vqt5eWlq7hUy61TQgQAoGLQL9+/Z4QiUTZISEh14MlDIOZXMlTT+Qhw9JIQPRg8wn+aegSIhKJtHq9fteFCxcWMwzzQ6p+ugIaASJkAT38/935GTNm9L948eJmhmGGQX6c5uZm8G/gFSFYsPB4VKlUwo7R1NraenT37t2LRo8e/Q2vwqlxQoAQCDgETpw4cd1vfvOb9TExMcMZhlGg0z18xxyMQMZ6osA4OvVjeh8AG9ZWkGUymT5//PHHM3Nyci4G3CBQh38SASJkNDH+C4HExMSXEhMTZ5vN5nhnSSNeEQLzPZjug4KCHMQMFkSBQKBpbm7+cOLEiS8WFhaW8KoANU4IEAIBg0BWVlbyvn37/hwWFnanUqmMAncJIF+uBAzTXrisR13GB33SwPKm0+kcjvzwpdFoGqVS6Z6vv/56YZcbpwf9DgEiZH43pN3rEKTBOHTo0F+ioqImMQyj7F5rnXsajythUYQLCJpCoaipqqp6u7q6ekHnWqG7CAFCgBD4ZQT69u27TKlU/k4qlSaBOwasPUCQwEUDfoYNoTNRa49YyDDZNhYud2bmNxmNxmO33XZb3s6dOy/TmBECiAARMpoL/4PA5s2bBxYUFKyTy+XDwWyPqSmwtAgsXPB3IE5IoniC8WuO49a+++67ryclJfHrzMZTB6hZQoAQ8A4EBgwY8LBAIHhaLpf3R8sY34lfgZAB4YOgASxcLhAIvszMzMzKzc393DuQIS28BQEiZN4yEl6mx3XXXbdWoVA8IpVKIzENRkhIiECr1TqIGCwyaObnUXVbc3PzmfHjxy/ZunXrcR7lUNOEACHgxwhMmzbt5qNHj66Li4sbajabpWAJg3QU4GTP94XHlrBemkymFqPR+M9Lly7N5lsute97CBAh870xc4vGs2fPHnTo0KG1KpVqqFgsFmMRcMgZBgsLFsR1gzIdGo3mwOuvv/7MqFGjLrlBHokgBAgBP0Jgy5YtMYWFhX+22+0PMgwThpZ9PJrks6tYpBxTCTU3N5988skns+bNm3eBT7nUtm8iQITMN8eNd62//vpr6aOPPjqLYZhFNputL5AwsJTBAgM7PvgZI5L4VAZksCzbVFdXt//tt99+/rbbbqvgUx61TQgQAv6DwKlTpyIffPDBJ1Uq1SNBQUEpmGMMeog5x/jsLbh3gH8aWOMYhqlgWXbbmTNn/sSnTGrbdxEgQua7Y+cWzVNSUrbHx8ff09HREQmRkOAICyHc6PzqjIrkTReITnLKrKyvr3+vuro6jzdh1DAhQAj4FQJJSUmL1Gr1Y0FBQTe0tbU51i7cWGKiVj477AxQgjUMco4dKS4uvo9PedS2byNAhMy3x4937dPS0n5nMplyExIShjEMw8ACw7cjrGunQB7kJwNS1tbW9l1GRgbUu/wr7x0nAYQAIeDTCOTk5Iw5derUCqFQeEtHR4ckOjoa0k04/F9hcwluFzwHJTkIoE6n48xm80WlUrn+q6++2uzToJLyvCJAhIxXeP2j8blz5z5w+vTpZWKxOB2cYGERAxM8mOKxBhxfPYUjUpAFEZ7wc3t7+wWLxfK3qqoqKjXCF+jULiHg4wikp6dPCQ4OXiyRSIbZbDYZWsPQ9QKCk0JDQx0BSnxe0L5EIrk0ZMiQlzdu3FjEpyxq2/cRIELm+2PIew8OHjyY/Nhjjy2PiYmZbLfbQ5x1J91iKcMjS/jurK1pYln2xGuvvbb0jjvuOMN750kAIUAI+BQChw8f7rdkyZJlHMdlsCwbBhs6SDuB7hXgAwu+XZiZn8/OQXmkpqamQ8eOHZtOqXv4RNo/2iZC5h/jyHsvsrOzh+/bt68gPDz8FoVCIYKoIbj4tpCBDKx3iU64LMt2sCx7kmGYt8+fP7+FYRg77wCQAEKAEPB6BIYPHz6mvo9p9OcAACAASURBVL4+Nzw8/HahUBjd3eLgV+swlkaCdRBzNgLZA8sYBBC0tbV9mZGRsXjr1q1HaJ26Gpr0fyJkNAc6hcDevXvDX3jhhRlisTjXaDSmw0IEdS5h58n3dWVUpzNSqpVhmCMff/xxVmhoqIZvHah9QoAQ8H4EYmNjixISEiawLBsLGzi+/V2BhIGPK7hyQBZ+CBwAQgZrlEQiKeM47vW33357WWpqKv8LpfcPD2l4FQSIkNEUuSYEkpKSdsbFxU0Wi8XRWG7kmhrows1IyNAPBHe9DMM01tXVnZg0adKrW7duPdmFpukRQoAQ8AMEZsyYkXD06NEnU1JS7tPpdL3AmR78xcD3lM8LLGPgjwbHokDC8MSgpaWlVSQSHS4uLn6QT/nUtn8hQITMv8aT994MHjz4waamprmRkZEjGIZR8C7w6gKajEbjkW+++ea3V7+V7iAECAF/RKBPnz4rQ0NDHzSZTClQUQSDgMBaxfeFNTAhahOIIMdxpqampnNqtXrL559/voNv+dS+/yBAhMx/xtJtPVm3bt2tu3btyrdarbcKhUK3zaGf8gdxlnWqbmtrO7Z06dJXKAO226YBCSIEPI5AQUFB/LJly7KTkpJ+a7FY+kE6C3CjQGsVfOfzAuIH1jFIy4OBRyzLfp6dnb0oOzv7Ez5lU9v+h4DbXqb+B11g9yghISE/KSnpAavVmsg3EkC6gIy5Hl2iTHT0b21trTObzYerq6un8a0PtU8IEALegUCvXr1eUqvVD3Mclw7kCAgY+HLBBf5dfPuQwbEork3OFBfV9fX1/6qqqprnHQiRFr6EABEyXxotL9L16NGjqdOmTXtFrVZPEAgEYXyphoV5oX3XaEv8HRZhPDLgOK6ira3t6Ny5c19dvHjxN3zpRO0SAoSAZxFYtWpVwsaNG2epVKrfms3mG4EYYSURsFQ5yZGDlPF5wZoEMpxHox1NTU37d+7cuTgjI6OcT7nUtn8iQITMP8fVLb0qKCi4bseOHZsYhhkhEAh4cdZwJWR4/ID5hOB3rKmJCR51Ol2t1Wo9WFlZOdMtIJAQQoAQcDsCSUlJf1Sr1Q8JhcJ0Z0SjAAt4gzK4VvBtIYP1Ccggy7I2juNOZWVlzcvJyTnndkBIoF8gQITML4bRc5245ZZbFre3t88NDg7uDQsTOLXCpdPpBOBcy3cmbDwugB0q7lYZhilvbGz86Kmnnlqel5d3yXPokGRCgBDoSQTAZ2z16tVZSqXy13K5/Aa+fcRAd7C4YYUS2AzCmgZrDfiOgXUMrPQGg6FEJpMVXrhwYXlP9pfaCiwEiJAF1nj3eG/XrVuXsnz58oVxcXH3WiyWFFioIAN2RESEY8fK9+VaNQB+Bpnh4eGwgNa2tLQcKC0tncW3DtQ+IUAIuAeBPn36vGK32x9SqVSOtYbvWpRA+OALyBcQMQgYgLxjQMRgrYGNoEwmq6ivrz+wZ8+eF0eOHFnrHiRIij8iQITMH0fVA33q3bv3joiIiMkCgUANiyRYyGAR4/sCWbBQwgIJRYPhOyyaQAhbW1srOjo6Ds+fP/+1RYsWfc23LtQ+IUAI8IPA+vXrk1auXDknPDz8QZvNdj1Y4mF9ccemD9cWyLsYFhbmyDsGaw0ED9jt9sb6+vojZWVlD/HTc2o1kBAgQhZIo81jX/v37z9Jp9PlQMkSiUQSCqKcGfV5lCpwkDFYnME6BnmAYMGEEHSQDYtmQ0NDLcdxH1VUVMzgVRFqnBAgBHhDICEh4bWEhIR7hUJhGhwfwmfbHZs+WEfA9aKxsdERNAAkDNYZkG8ymVo0Gs0JtVq989y5c+/w1nlqOGAQIEIWMEPNf0c3bNjQv6ioaHlHR8eokJCQIFg40QGfL+lwbIFHCrBQgr8HEDRXUmaxWKpbW1uPjR07tmDnzp2U0Z+vwaB2CYEeRuDxxx/vs3fv3nnR0dGTOY7rA9Yq+IzD5x7rR/awyJ9szum471jPnJGb7UKh8Mjy5cufveOOO8j67o5BCAAZRMgCYJDd2cXevXtnR0VFPW42m/tjTTc+5aPDLTrZgoMtWM1gJwvEDI4vnbnKmnQ63fH3339/Vp8+fUwMw/BbU4XPTlPbhEAAIMBxnDAtLW17VFTUeI7j4uGzHBoa6vhM8x09ifDihg8sYrDxA/9YgUBg1ev1F41G4/rq6uptATAU1EU3IUCEzE1AB5KYQYMGPW232zMhJJ3vfuPRJFjjYPFEPzL4GckYFEEHixnUvuzo6PgiIiLiwKlTp9bwrRu1TwgQAl1DYODAgfe1trb+VqVSjZRIJAlAhGCDB9YprFGJn/WuSejcU+ijipYxoVDIMQxzUSgUbjh9+vSmzrVCdxECnUOACFnncKK7rgGBTz75JH769OlPR0RETBUIBMnX8Og13woLJSzWEPmEDr54nAGLKfqxgdUM7mUYprWhoeHcnj17lowePfrsNQukBwgBQoBXBI4dO3bDQw89tDwxMfFWjuOiwOqN6XRcPscOS7g7oizxaNRplSttbGzcU1VV9XteQaDGAxIBImQBOez8dxoyaefn5/9BrVZPZVk2BhY1IERgyQKS5JpVm09tQBYu2ri7FolEOqPR+JlWqz1QUVGxik/51DYhQAh0HoHk5OQZ4eHh98nl8jFWqzWc76NJIHtYjBzzGGI5JNzQwdoFmz2FQgFlkd5ZtGjRsgULFjR0vld0JyHQOQSIkHUOJ7qrCwhs3749af369a8KBII7obwS+nbBQgcO+GDVAoLG54WZ/tEXBGQDMbRYLO0Gg+HrvLy838+fP/8QnzpQ24QAIXB1BB599NG7vv3229/b7fbrOY4LxRq2V3+y63fAMSiks4B1AY9A8XgSAwiAtMnl8kabzfbPrKysP+Xk5NR0XSI9SQj8PAJEyGh28IpAVlbWTYcPHy5QqVRDWZZVgLN9e3u74wjCHYkdXQuTQ0ex1BIstizLmrVa7XmWZQ9UVla+wDAMv4XveEWaGicEfBMBjuOY3r17P61Wqx+0WCw32+12EQbkOGtE8tYxWA+AcGHWfXB/AIsY/B0t6waDoc1kMp3IyMh4srCw8DvelKGGAx4BImQBPwX4B+BXv/rVg8HBwc8ZjcYbOY4Tw3ElLHqwEPJd+gQz+SMZc+0t/I9lWbtCoSjW6/X/ys/P30hFgfmfDySBEEAEjh49mrpo0SIIAHpQr9enBwUFiYAIATECUuaMauQNMFh/MI0GJoAFmbA2OTdv7QzDnGMYZuXZs2ff400RapgQAIMBoUAIuAOBtLS0p+x2+2OJiYl9TCYTA0eV6FfGt3ywxMEFRxFY+xJ+x9xCoIfdbq+2Wq2Hhg4dumXp0qVn0tPT+T1L5bvT1D4h4OUIZGZmDv78889zgoKCMkwmUyocGQIRAqsY+GzBxo3vDRvmSYSIbJDvajETi8XmxsbGiyqVKv/zzz/f7eVwknp+gAARMj8YRF/owsqVK1MKCgqmhYaGTpdIJP1g0eW78DjiAiQMFtqfOr6EBR8XZYZhOrRa7bffF0p//dy5cwW+gCvpSAj4IgJDhgyZqdFoZkdERIDVXIX+WvhZhE0SpKrhO7E0Bg2AfLDIgT8ZHF8KhUJLR0fHty0tLa+/8cYb2zIyMtp8EWfS2bcQIELmW+Pl89r269fvTzKZbLpAIEgBp37YEfN94aKL1rErI7eAlCFBhHtsNtvXVqv141mzZhU89dRT/+FbP2qfEAgUBAoKClKXL18+S61W3yMQCG5kGEYER4RAguCzB5Yx/HyiLxef2GAUNuY5A1kymYwtLS39T3Bw8M7Lly+v4FM+tU0IuCJAhIzmg1sRyMzMTPvkk09mh4WFPWQ2m1Nh0eX7wgUejz/QWRetY7g7h0UZduSgU01NTZVMJvu4uLg4k2EYG986UvuEgL8jwHGcJCUlZX18fPx4g8HQCwJ88LOHR5SYmga+o6sBn7iAHCCDcGQJF3z2rVYrWMbeWrBgwZpFixa18Cmf2iYEiJDRHPA4AmlpaasjIyN/bbFYEmBBhOMJ9CmDo0wkanz7kFwFiJrW1tazHMcdKysrW+lx0EgBQsBHEUhNTZ0mEAjuDg8PHy4QCJKw3izfGzKQA1HdsMZgUllXR36A0zUljsViKdHpdG+Wl5c/66NQk9o+jABZyHx48HxZ9UWLFvX929/+lpeWlja1tbU1GcobYdQlLKJg1YJdK99h71fDkGXZjtbW1pI777wzf9OmTTuvdj/9nxAgBP4fAbCKzZ07d/KZM2ee5TiuH/iLuRYG5zvxK6axAId9CCTCUkhIxDDpa3h4OPy/WKfTvTdhwoSV69atq6VxJATcjQARMncjTvL+C4H4+Pj1UVFR9wYFBcXDP8BSBoQMjzLguycv0AWIIsdx3+h0uhPz589fPX/+/G88qRPJJgR8AYH8/Px+K1asmBsbGwvFwX+Fx4PwGYeNljuOJJH8ATFD+VhyCdwTYNMHvqzt7e3lTU1N/6qrq1voC9iSjv6JABEy/xxXn+lVXl7ede+++25uZGTkPUKhMBmjqmDRxCSunuyMa+klm82m0Wg0F+Lj4984depUoSf1ItmEgDcjcPPNN2e2t7f/Njo6uj/LsrHgIxYZGelw2sdM+FhFg89+YB5CWE/ASgaygRBi1DV8VygUJVVVVR+CZWzbtm0VfOpDbRMCv4QAETKaH16BQHJy8sa4uLh7LRZLLCh0RUFfj+qIBcxhQbdarVabzXbJYDB8NmbMmDXbtm276FHlSDgh4EUIzJo164Z9+/ZlxcbGThCLxX1YlpUA6QEHfp1O57CMYbUO+Dy5w0oGljH4DINsLNUGsp0W+YrW1ta9VVVVeV4EI6kSoAgQIQvQgfe2bmdnZ9+wd+/evJiYmCkcxyXBMQLWmPOkrriThp09+LnB4g677aampgaFQnE2Jyfnz4sWLfqMYZgfss/SRQgEKAL5+fm3FhQUvBAZGTlIJBKp4fML5As+Lxiog1n4gRCB9ZlvQobyMCk06AGfYyBmFoul1G6377/55ptf3bNnD1nGAnTeelO3iZB502iQLoI+ffpA3cv7bDZbAvhveTjK8kf5GKUFPiehoaEOsshxnD44OPhCSUnJiZdeemlDdnZ2CQ0hIRBoCLz22mt9N2zYAEleR5nN5pvlcrkCnenB/xKs3UCM4Lter3f4iGJGfr4JGeYexPJIGERQXV1drlAo3i8pKZlHm6lAm7He218iZN47NgGpWXZ2dvq+ffvmxsTE3G+xWHphzjBPgYHHla519fDlAi8VZ4bv2qampi/Hjx+/dsuWLfs9pSvJJQTcjcCMGTPGffbZZwuCg4MHiESieCw9BJ8X9AOFo0LYyMBnCX26MPcX35n4EQ9XSxnLssUdHR0HR48evXL79u2l7saM5BECP4cAETKaG16JQO/evZerVKqHWJZNggUdoy3hZyw4DIss3zvsq4ED8uH4xWAwmCQSyaW2trbzISEhR86dO7f9as/S/wkBX0Vg4MCBd2s0mjujoqJGCASC6wUCgdQTfQHLF6azQHIHawVW3sCSSGBpB4Iol8vL6uvr3ysvL3/CE/qSTELglxAgQkbzwysRmDt3bq8DBw7MjI6Ofshms/W12+0MFBuGIw/YZQMZw922JzuAfjBgEQArgN1ub9Pr9eV33nnnmvXr1++mLP+eHB2SzQcC2dnZkz744IMXY2JienMcF8WHjM62ifVp4X5YE7AUGyZ/xUhtjuNYu91+WaPRfDhu3DgIxiGfsc6CTPe5DQEiZG6DmgR1BYH4+PinJBLJrNjY2FSTySSFRRcjtuDYw9M+ZugsDLt0cBYGUuZMPvkfjUbzzcSJE/8+ffr002PGjCnrSv/pGULAGxD45JNPknNzc6fq9foBYWFhQy0Wyw0SicTj7w+0kMNaoNFoHJ9BzGOI/zObzSatVlsqlUr/funSpT96A56kAyHwUwh4/ANFw0II/BICBQUF8StXrrwvOjoaCpKnW63WCMzej47DnkQQFn20joEe8GLAXEsSicTQ2NhYY7fbT3/55Ze5ERERWk/qSrIJga4gUF9frxwwYMBKqVQ6ISIiIkapVCoxuSu6D3Sl3Z54Bo4ssQ4lfPZAH9ikgX7wu0AgaBGJRMXV1dVvPf/88zvy8vI0PSGX2iAE+ECACBkfqFKbPY7ATTfdBDnKpshksglKpTIJfEPAKsV3LbzOdAReCGFhYT/mWQKrGYb5O5NfNlRXV19QqVTfPPbYY1uWLFlCucs6Ayzd41EEDh061Hfu3LmPGAyG/omJiUPtdnsCkB0sAA7Hg5jPy5OKgk6gh1ardURAYwb+oKCgqurq6o+Tk5P/fvz48fc9qSPJJgQ6gwARss6gRPd4DQIpKSnrg4KC7g4ODk4C/xBPl1YCYNCxGL7DF5AxIGL44oJ7nD4tjQ0NDZeEQuHBu+66a+/06dOLhw0bpvMacEmRgEfgxIkTisLCwpSPP/74noiICCBhA6RSaYLNZpNhTj4gPOhA72kLGVbSwFJrWANXoVCUV1dX76upqckJ+EElAHwGASJkPjNUpCggkJWV1fvYsWOZwcHB91ut1nSxWCzyJDLoPAw6OJ36BSEhIQ4yhtFeWDQdM5ZzHNd8+fLlsuDg4L0VFRV/ojxInhxBko0IcBwnjo+Pf1wkEk3t06dPv7a2NrVEIpGgawBugOA7WKfBl9PTUc6gO+rljMa2CASC4oaGhn9Pnjx5Y2FhYSWNMCHgKwgQIfOVkSI9/wuBQYMGPaHRaDIjIyN7CwQCpafgcbXS4fENJI3FbOD4f/gdiBn4tsB98GU2m8s0Gs1nLMt+snTp0n3z5s0jx39PDWQAy83Pz0/Oz8+fbLfbb4mOjh4lFAr7Wq1WMVrCXK1QGNkMfpOYbsKT0AEhRMsdy7L61tbWUo7j/l5RUfEXT+pFsgmBriBAhKwrqNEzHkfg/fffj33xxRfHfp/kcRrDMMPsdnsYpsK48hgTj1cwItP1d8zc7akOsSxrViqVtZWVlRdVKtXuixcvvukpXUhu4CFw0003/Y7juAfFYvFNQqEwRigUBuPnxNOfDRwN+Dxjvj+wQoNlDt0BwD0ALqFQ2ArBM0KhsGj16tX7Ro0a1Rp4o0k99nUEiJD5+ggGuP4zZ8687ujRo8+r1erRUAMTFmw4usAEsrh7BpiufNHA755+6WBpF6lUahQIBJdbWlqOKJXKjzMzMz+dP39+U4APL3WfBwRWrVqVsHHjxkdsNlufiIiI2+x2exrDMArXTPpoeeJB/DU1ibUn4TscnaLFGSOb4btEIqmrqqr69O67735+48aN/7kmAXQzIeBFCBAh86LBIFW6hsDGjRt7vfDCC5m9evWabLVabxKLxdL29naBSqX6L6d/JD9I0rzB/wVIIbwI4fgHwvQtFktbS0tLrUwmO5Kbm7t+ypQppenp6eauIUNPEQL/jcC6desGvvrqq09GRkbeynFcnEQiCcI7MMmq6+fE0/hhKSb4nIBvJmy44G/OTPx2u91eqtVq3xs9evTanTt3lntaX5JPCHQHASJk3UGPnvUqBLKzs8eePXv2JZvNdn1QUFAE+HL9VC1MT1vFXEGDlx8mu21paXH4lsGRjF6vb5JIJOfFYvEn5eXln0+ZMuWLrVu3NngV4KSMTyAwc+bMXsePH3+QZdm0iIiImwUCQX+xWByMNSa9vROwYcFalBhNabPZdGKxuNxqte569dVXd0yaNKnF2/tB+hECV0OACNnVEKL/+xQCiYmJjyiVyrtCQkIyWJaNc1fx4q6ChEcwaCEDQgbHM2DhUyqV4DsDiSzr29razowcObJw5syZJRkZGfVdlUfPBQ4C+/fvT3rnnXeu37t377y4uLgbxWJxNMuySvhMQHAJXJhk2RUVb9qwwGcBky0DKQPdrVZro1gsPqHVat8tKSnZGTgjSj31dwSIkPn7CAdo/9Rq9eaUlJQ7wa8MIfDGIxnM9I+5y8BPBi1m8Df4cvrDdQgEghKZTPZlTU3N+fj4+HMnT548xjAMG6BDTN3+CQSOHTsWvXjx4ttqa2v7JyQkXG+z2W4SCAR9IX0FpmWBz0F4eLgjkbHrhsUbj/TRMobFwpVKZUVFRcWRoqKilzIyMuiIkj4FfoUAETK/Gk7qDCIA+coOHTo0PSws7AGO4/owDCP3RqdlzOqPBdPhBQQF1OHYEsgY/t0lmswiFotb9Hp9ZUdHx8e33377Gzt37vySRj6wEeA4jpk1a9bNR48ezQwJCRmlUCjiLRZLhFwuFwPxwpQsQGxgToGFDI8C0SLmjUEvoJPzaNUgEomgOPi7U6dO3VJQUFAd2CNOvfdHBIiQ+eOoUp9+RKB///4P2+32WSKRqL9IJIKw/v+JtvQkXGgBwwSzrmH9oBe+LNGSAfe7JKNthZdUXV3dV0KhsGTSpEkH7rrrrqq777672ZN9ItnuQeDkyZOhO/+vvWuPjeq88vc5T8/LeAx4HQMhNIHyficFFC+mEIkUbcm2IQklRSXVRgpt2Gr7X6UqqtSqTRaFBARNomaDiLppmjZUvBO3DqIipFUDJc22BAN+4Pd4xvO+j2/7c+egW4vg8LJnxudK1oxn7r3fOb/vwvfzOef7nZ/9rG7//v2rdF2fFo1GFwghptm2HSk0uL8iF0HSEXilonjo4jlV94tRFqaggdbT09NzNhqN7jp16tTPRwZdHoURGHkEmJCNPOY84ggj8OSTT07/5S9/uamurg4pzBm2bWvUlBivFDlzLlAgRtjVhc+K+cDiqmlaJpfLxXt7ezt0XT9VX1//yqOPPtpaX1/PUYRinrwbtO3YsWPj9+7dW9fU1LRJ07SFHo+n1uVyRSRJ8pEGHz3TxbCTmNx07m6GXRT9ckR/B3dF4zufzyclk0mh63pzd3f3O2vXrv3vnTt3/uUGIePLGIGSQIAJWUlMExt5KxDYvHlzQ2Nj4w+i0eid2Wy2Cv/pI3VDmmXUCoakKEjT7FaMfbvuQWlNR5P1AVmWW3K53MfxePwTl8v1l2984xsnvvKVr1ycMmVK9nbZwfe9fQicPXvW9fbbb9f89Kc/nY8/KKLR6Ofy+fwsWZYnWZYVwdwjIkYkp5iK8ofWbTqjvniP5xdaYiT9AqmaWCyGf5Mxt9vdYhjGz3/84x+/whtZbt/zxXcuHgSYkBXPXLAlI4DA1KlTv5rL5VZVV1fXS5I0WVVVhf5Sx05HWjDwGe14HAGzbngIZwqWFmQszvixLGsAumb9/f2fVFVVndy0adO+Bx988OLUqVPjNzwgXzhiCDQ2NladPXt2/Pe///1/C4fDS0Kh0OeEEBHbtoOKorhBxCgi5oyE4ZkoFnJ2tQgdRcqoPhKAQqKm4I/t8/kudHR0vC9J0rGLFy++PGKA80CMwCgjwIRslCeAhx8dBKZPn/5MLBb7Um1t7R2IMiA1CZkJLAqQnEC6EsX1jsjT6Bj6GUYlLTMscLRbk2rOyP54PN7j9/vPqar61/b29n6Px9Pe0NDQ+NBDD11saGhgfbPPgPPtPuXQoUOVb7755sTf/e5396bT6TsmTpx4h2EYU10uF/q1js/lchr+SMB8p9PpwX6plOKjrhNDO1OMdrSMos1OO4ikUfQMzyz8UhQl2dnZ2SJJ0sHm5ub/vN148/0ZgWJDgAlZsc0I2zMiCBw+fLgavTBTqdTqcDhc39/fX+vxeBSkKZ1kpphqcK4GTEGX6cpuzKGLHX6HlAbSsYXDtCwrLYRIxePxTlmWzyxfvnzf3Llzmx955JG26upqyGvwMYII7Nix454PPvhgalNT079bljVj3Lhx44UQFaqq+jVNc9POW3ou8TvS7IjoOud7tMnXp0FGdpGshvPfFN5DZyyVSrVpmnZKluVfbdq06QC3DRvBB5CHKhoEmJAVzVSwIaOBwDvvvDNp27ZtX/b7/Y8mEom6QCAQBYFxylGMhl3XMybtuqQIGa6lRusUOXG2ZwLpxFFIGaXy+fxlVVXb+/r6mvP5fDdkNaqrq/+2cePGD7du3dosy/I/OjjzcVMICCGUF1988a49e/bMTiQSn1cUJWKaZigSiUz1+/01vb29E0OhkA9zRfWLmD/IVqC2irpOoO7RGbl1pgApVQlDKXV5U0bf5MXOGjJ65pxRPCFEQpIkRMV+8bWvfe2lrVu38kaUm8ScLy9dBJiQle7cseW3EIG6urrHdF1fEggEViqKMgW6ZUilFHvKkjYkOFNWVOCNCAoKpklaA+ktpGbhE+mcEYSFSFseTc4ty8rLspzo7Ow8J4Q4s2bNmt8sWLCgff369R3RaHTgFsJe9rdqb2/3vfXWW5NOnDhR8957763zeDzThRCTvV4vWhd5VFX1WJY1GL7EXGKOQMYQNaJ5o3Q6iBnmFvNHzb+vJubqlK8ohggv2eiU2ICftm1f6O3tfV8Icby1tXVH2T8M7CAjMAwCTMj4EWEEHAjMnTv38VgstrG6uvoe1O3Ytq0WM0BYtCmFRelJEvwsLHqDpAyLPEl8UOscapuD86gtDb5DfRIIW0EDqj+TyVx2uVydsVisXQgRQ8pT07TeZcuWNS1ZsqT74Ycf7ho3bhwiHWP26Orqqnj99dcnfvjhh1WNjY1fwLMjhAjYth2uqqqq0XV9vGVZ1aZphoEr7ehFNBbz4qynItIFIoY5peJ9SlMSyaaIGe6H84ZKXdA9R3NSnDbQe8Mw+rPZ7OVsNvubS5cu/ddo2sdjMwLFhAATsmKaDbZl1BGA4vnmzZun//a3v10fCoVWqqo6V1GUENVhgbzgPQ7ahYmFEYsnERx8j+9I12zUnboJA2gRLURdcqqqIt9p5vP5bCaTiRmG0S1J0uVoNHruscceO2yaZs/Xv/71zsrKyrLeydnb2xt89dVXqzVNq9q7d+/qjo6Ou4QQtaqqRquqqioR9VIURZckyYsM8k1MQVFf6pStoMgeIrMgh0T0HWTT0HX9XFdX18mqqqp3sqbRFwAAEhpJREFUnn322UP19fUsYlzUM8zGjSQCTMhGEm0eq6QQ2L179z0//OEPn4lEIotkWUa0zINFp6qqajDiBMJFque0+NAChSgT0k4kS1BSjn+Ksc4oDPyilJosy5lMJpMKBoOd6XS6X9O0C7FYLG+aZtK27ZQkSRld1/tCoVDz4sWLP7n77rtTHo/HqK2tTa1bt66oUqBvvfVWuKenpyKVSimnT5/2nj59ui4ej9emUqlxXq83mM1m0ZzbW1NT47Us605VVcOxWGx8JBIJIc1NtV+0c5DIeznM/9V8wB8eqGmDv4j64d8EInhU1wj/DcOwA4FAR1tb24VVq1b94Lvf/e4706ZN+4fGDB+MACNwBQEmZPwwMALXQOCJJ56oO3To0Lrx48ffb9v2Yk3TJmYyGRULEe0ew6JTUMwfTB2BrOB7aCthcSrlw0nCqDYJ/jh9x0IMnxEZCYfDWKCFYRggYUZhQ4CF98lkMplOp/uEEN35fD7l9Xp7ZFkGgTu/aNGiP/h8vszUqVNzixYtMpPJpDlr1qykaZqCBG2FEIg42TfaUL2jo8MPctDc3Bzu7+/XW1tbtffff9/l8XiCf/rTn5a0trbW+P3+SDqdrjRN0x8KhSKZTCYSDoe9uq67VFVVDcNAtEt3u93eRCKBnt1XUo7wH+lFSi1SCrGU53842+Ez5GJIegWE1KnIL0lSj6ZpZ7u6uk6MHz/+6MmTJxuHuyd/zwiMVQSYkI3VmWe/rwuB7du317322mvrZFl+1LKsSYZhTKDFGBEC6JZhMSIyBpIGMlbqETIiZADLKVtAZKMgQDu4CFOfTZxLTaxB4oAFFm0qWFdV1ZYkCT2pcrZtZ10uF2Q4BmzbziiKAsLWL4TI6ro+oOu6wCaDfD5vgwyB4CG61t3drRmGYQkhbEVRBMaEyC+OyspKROd0RVHAoRTwR9u2dcMwNJ/Pp2QymZDX6/WBbLlcrrAkSa5sNhuUZdmNKBd+VFV1EcGi9DPGIL/xShskqA0XfKXoUKH+7oosxXU9bCV0MvwFTtQxAvNc6H6BWsOu/v7+xnvvvffZvXv3nisht9hURmBUEGBCNiqw86ClikBdXd1ar9e7NBgMrsVuzHw+H8Qi1NvbO9h/jwrqISpLpKRUff00u4mYUaSMyKezPyh8d/YGxSINQgb5BpA3pHRBdCiyBuywsOM7l8tlpFIp0+fzWZlMxtI0DVExmzYngIDl83nh9/tBxETBHhA3IsRyIZ0soyYQByQnZFkeZGiSJGmo7zJNU6PUGhFPfE2RQCeZxnv4RJIUeIX98IMkRoiMEVErhh2Ot/vZAxGjZx7zj9w1Ip7JZPJ4KpX648svv/yr1atXd91uO/j+jEA5IMCErBxmkX0YcQTmzZv3wN9lIR6rrq5eIstyVFVVRFj+KXXnFO4ccQNv0YDwySmjMLQ3IcmCUMQIJIVaUOE6EBmkNOk+JGTrJDgk4UBROHqlsahAHGNRjRI1pCbdLZL6wLUUmSQhVXyG8Zw2kE/4jO6Pc5zXUPSPiBbp09F9MDala4m8kVQKrhmqF3aLpqToblMgpPlkMtmdzWb/LxKJvPTBBx+8XnSGskGMQJEjwISsyCeIzSteBJ5//vna7du3r5Ukac64ceP+1TCMO3Rdx666wTQd6UUVrwfDW3YtQjaU4IAsIdJF6SvqqUlCtPgduOAVhAXn46DPgReIEvURxfcUfSJCRUSOJD6cO12JFBExJnFfImkUDaN2Q876OJxDbX6cJA+fk52IkFEEje7lrBujHbjkNxHB4VEu3TMsyzIURYEcyh/i8fj7DQ0Nv9i9ezfEhJGW5oMRYASuAwEmZNcBFp/KCHwaAnfeeed/mKa5LhqNQvizSlEUH2mElTJqV9ORcqr/U1qO9LKGputIcwvEhYgWSBk1dCfyCmKFz6kGj8Yggob7k3AqXUsEiqJSTnFcquGC/bAJkSykkfEKW3AvImSIZOFzki8hEkibNUDscD7GIUJJmxqITBIOpC+GVGapb+gY5rm1JElCjdh50zQPv/LKK/+zcuXKi6X8rLPtjMBoI8CEbLRngMcvCwQaGxshDFr77rvvroxEIvflcrll2JGJYnIS+sTC7yxupwUbC75T3JMEXcfCLr2ymPwidmI4Qk2EGNFJIqLU4YEiiXQPqplzuVwduVzuw0QicWL16tW/WLt27YUHH3wwXcQwsGmMQEkgwISsJKaJjSwlBI4cOVLz9NNPb47H4/U1NTWfM00TQqE+EDBETiit5yRilAqjmqtCgfQ/1TSVEgZsa3EgMFzKmVLB9PxR9JDq6iiiiMhgMBjsaWtr67Zt+/D3vve957ds2dJcHF6yFYxAeSDAhKw85pG9KDIE9u/f79u/f3/dkSNHvhiJRObLsrxcUZSJmqZ5aWcaichSzdUQVfwrNU1F5hqbU0IIDLcpA4QMfyCgzo9aMdEfCvijAFp6gUDgsmVZH166dOnclClTmtavX9/4ne98hxX2S+g5YFNLAwEmZKUxT2xlCSPQ1NQ0ccOGDQ+jcbnb7Z4pSVIEYqRU7E4NwuEiIhIFdfMrkbQSdp1NL0IEnLIlVEtX0A4brJUr9NA0VFWNpVKpi8lksunvbaJ2NjQ0nC9Cd9gkRqBsEGBCVjZTyY4UMwIHDhxw//rXv647cOBAg67rM4PB4P0ej2dyPp/3OZt8O7WriqE5dDFjyrYNj8Bwwr4k5VFRUSHF4/FBDThN0y5JknS8paWlZeXKlW888cQTzcuWLSuqFlfDe85nMAKlhwATstKbM7a4DBBYunTpV1tbW79UU1OzJJlMImJWiegYUkRYRNEHk+QXysBddmGUEBiu9RXprqVSqVQgEIi1tbX9ORwO//zMmTM/GyWTeVhGYMwiwIRszE49Oz7aCLzwwguTfvSjH9X7fL6pLpdrHn40TRsPaS5ELpA6ws42PhiBW4HA1ZrDu93u/nQ6/VfUiGWz2T9/61vfevvpp5++cCvG43swAozA9SHAhOz68OKzGYHbgsCuXbsm79y584vxePzLVVVVM1Bn5na7K0iU9LYMyjctewSGbhQpFO6jOWgsm8325HK5d9esWfPi7t27Pyp7MNhBRqDIEWBCVuQTxOaNLQS++c1vTjt27Nga0zSnV1dX18uyXJtKpSpQ44PdmEPV8En4lNThnTIGpGeG9CdEUUnMFPIb1HqIPhtbKJeWt0grUiG+s20TfY7PMP/U5B7PCIkSO6NipmmiPqxNCHGypaXlb5MmTfrD9u3bm+67776+0kKErWUEyhMBJmTlOa/sVRkgMGfOnK/29fXVBwKBFZIkVfn9/oDL5fL09/cPLsDUmgkLMr1HqhOLML53tg5CfRrOgc4UNeGmHXZlAFVZu0B9N+Ek5pp+8Dvp1oGMESknsl3YLGLYtp3I5XLxRCJxNhqN/uaZZ57Zv2bNmstlDRo7xwiUIAJMyEpw0tjksYXA7NmzH8rlcnMrKirG5XK5OeFw+O58Pl9J0RIs2CBiOBD9IlFPalWE6BiRL5A11KVR42+OkBX3s4R5xZyCbIFo0ZziFRtAqFUTkXCcj7mWZbnfsqzzqqqe7enpaZdl+ey2bduOP/XUUyzmWtxTztaNYQSYkI3hyWfXSwsBIYS+Y8eOGc8999zmTCaztLa2ttYwDJ/H46kQQmjO3pm0QJPoLDx1NvemqAsTsuJ+BijdDCuplyf17gRRw/whOoZXRVEGVFUd6OzsbJNl+WR9ff2rjzzySHNDQ0NvcXvJ1jECjMBgBJxhYAQYgdJC4L333ou89tprU44dO7ZOVdXqYDA4QdO0ewzDqBVCgJwNRlKoPyEWcqQ5A4HAlcgYUl1Y0J3psNJCYWxYi3nCQX1NMbdEovFdKpXKTpgwoTWZTJ7r7+8/Z9t28wMPPHBk/fr1LatWrYqPDZTYS0agPBBgQlYe88hejGEEjh49Wrdv374px48f32AYxtzKyspat9vtsyzLm8lkPGhojigKaU6BoFEz8zEMW0m4TrWASEUWSLQty3IynU6nc7lch8fjObNw4cI9M2fObN62bVtbSTjFRjICjMBVEWBCxg8GI1AmCCBy9tJLL9X8/ve/vz+Xy02oqKjwh0Kh2fF4/PORSKQyk8m4QMQowuJUcS8TCMrODcfuypjL5bqUzWb/2tXV1R2JRC7Nmzfv0OLFi9u3bt3aXXaOs0OMwBhEgAnZGJx0dnlsICCEkJ977rlpL7zwwmrLsr4ghJg3YcKEoCRJXsMwvJqmuZytmsYGKiXhpZAkKSVJUta27XQikfjEtu0/Ll++/H+ffPLJi0uXLu0sCS/YSEaAEbguBJiQXRdcfDIjUJoI/OQnP5m0b9++WX19fXepqjoxEokELcuarSjKdFmWQyhTQrE40poF8dDBSBptFHBG1vAe55DmGe32BDK0wxPvUcPm3AlK70mmY+iGAxprqIbW0LEpsofPKQ37abOCOjk0cSe/SJsN9tP1zp6heO88B/fFeUjzkpwE/EIKEfdw6oPhXLoXfU6vKM6HPhjdn+zGPfC5ywVuLBKmaV50u91/6ejo6LVtu2/ixIkfbdiw4eS3v/3tC7Is26X59LHVjAAj8FkQYEL2WVDicxiBMkRg586ds/fs2bM6Ho8vkSRpcjgcRu2ZN5FI6BUVFe5UKqVAVoFICZEYkmAgQkKkggRKQYJI74xgAwEhrTT6rEBEBn8lcodXIoS4BmSICBnIDcl3OAVSrzU1sAP2OMkiCaqSPTQGET18TmODhEEmBNIhdB/c0+fzDfro1ASjMYamhPE7kcKCNlgOh9/vNwcGBnK2bXfE4/Hz0Wi0aeHChU0bN25sW7FiBachy/DfHLvECFwLASZk/HwwAmMcgQMHDtSeP3++et++fUtaWlqm6boetizLU1NTEzYMY3Iul6v1+/3+bDargCw5I2IgUESSiMSA2Dg/B7xE5kBicIDcgPhQa6ihgqcUWXJG66i3J16dKvXXmj6cB0IFQkQHxiUhVdq1SOSSomawH9cQ8cLGCIpw4X7pdHpQAwz+OCOBuI52RMInfB8MBkG8ki6Xqw0RMFVVP+rq6pJlWU55PJ62efPmnWhoaOjesmULpyLH+L9Fdn9sI8CEbGzPP3vPCHwqAgcPHpz88ccfT3zjjTdWtra23qUoygykN8PhcNTlcummaaq6rmv5fF6n6BJFxyiaBXJC0SEiKtRBAOQFZIYkOpAGBNkBiSHNNCJz1GWA7k+SHsPJdjgjbxiXUpdExJyyEhSpw9i0ExU2YSyK3GE8ImH4jJq/m6aZ13U9j2CfLMsimUyaqVQqKYRoVRTlfCgU+uOCBQua5s6d2/nUU0+182PHCDACjMBQBJiQ8TPBCDACnwmBLVu2fF6W5cjhw4fXGIYR0jTNDbHaaDTq1XU9ks1m77RtO+T1ekO2bWuGYShEvij1SQQJhIjIGJEqImhEwvBKkTK6D66hWjf6frgIGUXWELECwSLi5xTPxT0o1Uj2OKNnTkJmmqbpdrvziHBZltUhy3JrJpNpz+Vy2YGBAcPr9eY9Hk/a7/d/tGDBgjOPP/54F/eL/EyPGJ/ECIxpBJiQjenpZ+cZgZtH4OjRo6FsNqsfPHhwliRJ4958883lwWAwZJpmlRCiRpKkCZWVlR5N0zymaeL/HNkwDJmEaTVNs23bxu9KLpdTNU1TQJoojUmpQqr5wisOKqy/lgdEwpy9P1E9L8uyZRiG0HUdyqu2aZrY2agW6sSEaZrQ+7KFEEg3pjRNS6ZSqVYhxGWv1xvL5/OJYDDYPH/+/LPz58/vWrFiRdecOXOwM5IPRoARYARuCAEmZDcEG1/ECDAC10Jg//79vubm5spTp05NvnTpEnZ3BhOJxL/Ytq273W4VxEvXddSk2aqq9vl8PhAiV4GM4VW1bdsly3JQCOFSFEX1eDyevr6+SryqqqpalqU4uo1gByLIFZp64gdFYynTNNPBYDCRTCYNECzDMIxAIJBNp9O2x+PJoVg/GAzmUBMWi8WqhRBIOZqGYQxGwYQQ6YqKitZAIDAwY8aMs7Nnz+5h3S9+9hkBRuB2IMCE7HagyvdkBBiBG0Zg165d1ZZlWQMDA/a5c+dmybKsCCEMIYR9+vTp2UIIEDEcKIxXbNtGxGsw6gUyZts2arnwY+J1/vz50PFyud1ukD5p5syZ59HFgInVDU8RX8gIMAK3AYH/By/OspMFDlY2AAAAAElFTkSuQmCC;" vertex="1" parent="1">
          <mxGeometry x="480" y="25" width="208.5" height="139" as="geometry" />
        </mxCell>
        <mxCell id="RWkYhsvv5Hg0yzNs0XMB-15" value="&lt;font style=&quot;font-size: 20px;&quot;&gt;CROW&lt;/font&gt;" style="rounded=0;whiteSpace=wrap;html=1;fillColor=#7a7a7a;strokeColor=#090D07;" vertex="1" parent="1">
          <mxGeometry x="140" y="20" width="260" height="385" as="geometry" />
        </mxCell>
        <mxCell id="RWkYhsvv5Hg0yzNs0XMB-17" value="" style="shape=image;verticalLabelPosition=bottom;labelBackgroundColor=default;verticalAlign=top;aspect=fixed;imageAspect=0;image=data:image/png,iVBORw0KGgoAAAANSUhEUgAAAP8AAADFCAYAAACb6SQBAAAAAXNSR0IArs4c6QAAIABJREFUeF7svQeYJFd1Nnwrh65OE3Y272pXq7BkAf4lcjKYYEAgGwMCJIwC5gNEkkg2/DJBAhsRDRImCJA+DFiAJZKIJhkEIpggobRRuzs7qWPl8O17u05T25qZ7p2Z3enZ7XqeeWamu+rWrVP3nHvCe84R2OA4EgoIjDHVNM0hQRBWhWG4VpWk9aqibZUkocySZHWcJKslSV4vCEI+jmMmSRLGx3VxHMeNJEluj6N4Io6iAwmLJ/ww2RmH8c5Yig96njfFGKvg3COZ1ODcAQUWQgEsysExBwXy+fxIEAT3l2V5u6Ioj3IcZ1s+nz99YmIih0vyOYsJScJUVY0URUkEQQhFUZJUVWGiKIpg+iRJQGP8TsD9cRxHURRJ/J8kUaYrFRaEARMFkcVJzMql0h1xnOwWRemnvuf/LkzCW1zXvZcxFg1e1IACS0mBAfMfTk3VVJQH+lH0tGKx9PzpmenT8PXI8EgkSZJkmia2b6YonLlZtVplmqIwWZaZIAj8uyRJ+Hc4sn9nb4PP6cf1fUbj4jOM47ou832f1et1LhhMw4xlWflko974pqIrv3Bdd/dSLoLBWCcmBQbMDz1eVe+nyvI5YRi9JAzDk4rFIsvn85yJ8eN5HmfQIAhYGIaccaHOa5rGQt/n52SZH3/jB+dFUcT/xg/X/9PftNxEWeZj4sBv3GtsbIwzPoQJnY/v9u/fz7WD4aHhn7uuc23Dtm9ijO05MZfu4KkXS4ETmvllWX6MqRtX1hv1M9esXtNm0lwux5rNJmdqMDD+xy6P3/gfTIkDjC0JwmE7PTE6MS3O79z1SSvgDB/HED7McRwuYCBUGo0GvwT/04F70jm1Wo0LCWgIiqL8bxCF/6q77n9VWv6CwTGgQE8UOFGZ/5GlUuk9jUbjEevWrOUqNnZ6MKxt25wBSWXHb13X2fT0NGd+7PY4B4KBq/spc2dV+Sxzpw4/Pt5sB5gf44ORMTYYH2YFBAI0DTA9GL1cLvNz8D/uC8FDx+49u7nPwDD0D6u6/rHp6ek/9PT2Byed0BQ40Zg/Z5nWFU278X/WrlnLmQw7d5aZoF5DCIARIRTIxsf/lUqFM2p29yf1vnPHz6rrtMJmU/8xBwgWMDeYHUyNz8j2x/0wB4oc4HPMC8KHhBQ+84KAawaTU5PMMq0vaYp05WS1+ssTenUPHn5eCpwwzG+p6v1k3fhuHMdjo6OjnLlIbSfmIkcedloIBHxOqn92x6XdPGuTk7OOdn3a6bPOv9neBOYA9R6MiwPzwjygAUAboblgPAgHzAs/+Jv8DFwIpA5H/kySxHbu2slKpdJNnu9fbtv2LwZ8MKBAJwVOCOY3DOORQsK+UyqVdF1VOXOBSbLMu5KXRlajIK2EIg979+1j+ULhS57vvdZxnIFzcCW/6CWe+3HP/IqiPCwMgl9sOWlLS3UWBL5r4oAqn7Wdl5i2x2Q40jiyUYTDzBJJ4s7LiYkJpuvG21Rd/WAF9svgOOEpcFwzv2EY6y0z979DQ0Nl17a5rc7Dc2HIVWP8UJhtxa6EOHUkirO/SpgdEHb4DZ53fX9KEoXz67Z944p95sHEl4QCxzXzF/P53xiG+SB4zlVZ5swOZxn+Jy86TIAVfczB/KQJgPERpUCkAFqOquvsnnvuYZZlfTOIwr+3bXvfin7+weQXTIHjlvmLlnVOrdH44rYtWzlxsPPBqaZIMrf5KYwmSC003ko9RNYCE3UeABXzKIDngdHbEQKcB20H4UrH81zX9871ff8/V+rzD+a9cAocr8yvGJp+x9DQ0Gbs+NkwnCSIHD0HDzuEgB+27P+VeoD5cdwHTJS+WTw7hF6hUODPjWdG+BBCgYki27VrF1N17Yuapl048AWs1FWwsHkfl8wvy/IjWJz8ZPPmzcilazNGy+HXio8jXMbj9qaxqBS6xeoNwuzYn57f5lxIwvYAosCfF8xODs62oEhzEGzXAS32BEFwbhiGP+z55oMTVzQFjkvmLxfL7xUE9nrsdrIotlFxUPXB/DAB4AEvlkucKRaTP7vczJ9dfZ0ef3wXs1YeAux9Qi3ibwgCPDvHB7CE5QyT3X7Hn6AZXBQEwTUrelUPJt8TBY5L5h8aGvrvQqHwGCxyqMXcs5+CekCVbCJONyrh3M5wIMYDo1HUAEwEpxrOg2MNWgUYjfAE3e6xnN/jOQI4AmUZkQB28MABpqra5+pO8+8ZY/5yzm1w76NLgeOS+YvF4ng+n19lGAYLPJ8zanaH7qoqd9Ac5gJFCPA3IgYUJaDvYFdDUBAcF4IA52GH7ecDggpCDL+5FhTHHF3oh+EflFh92ow7M0gf7ucXuIi5HY/MbzDG7M0bN7Xx8FzdTaGzhMXvlWZkL4M5CE9PcXMwDZgFQiaLGMTnEBYUY+/1XstxHugBEwjPAEGFZ+OREMbY3nv3MpmxMwLGfr0ccxvc8+hS4Hhg/gJTlK2mopypKMpDGWNPzuVyAPcIhIvnOfVpkQ1i/iwWfz4SExCIcP70G2OCycmJBk2AILW4hvsXUvPg6L7CpRmdahcgBDg0NMRmqlUuEIAJCKLwGYyxry3NnQaj9AsFVhrzG6Zpbtd1fYsgCE+N4/jRlUrlZJTIKhQKXpIkci6XEyYmJiRdUe8YGR09hRJ0wPydhTR60QLIdocKH0VRMjExIWiaNhHH8a8kUZpKWLJWUZQH1Wq1MqILEDgYFzs/2f/98rLnmgf5NSi7kScHKQoPEcKM2blzJ5yCFzHGBo7Afn+ZRzC/fmd+SVXVUzVNe6qu60/xff+h1Wp1SFXVcHh4GN+hNl4btAJb1bKszzWbzQ8EQXCbLEqNdevWtdT1tLJOFgs/V459ln50DlTjMAr/WK1UXhMy9t1sTb0SK5VcpXl2EASf3LB+Q6AoigJhwX0OaR7BEbyTY3oq1SGAFoP5QnCBjkYux/0aVLtgYmoSgu21QRBcdUwnOLjZUaNAPzL/iKmZZyZC/Heu674QT756bDWqXopAqqVlsRIwPhbmvfvuZaPDI7vrdvMDjuN8ljE2QdTKGcZ7ivnCG6CakwZA4S5K6e3UBmajNKr4OI7ziabnvgyug7xmPl3RlbMFQRLiKLrDrVc/6zB2b6FQGIqD4PvlUvmB2DHJlj5qb2+JBoaWAuanOgGg89TUVMtvkRYOAd327dvHRFG4zA/D9yzRrQfDLCMF+oX5hw3DeLyu6i9LkvjJjUZDWL16Nd95aEci7zl2p2q1ah+cOGjmrfyE59gv9aLoW4yx+0D11ubzI54o7bQsK5cFuFA+PsamfPu53gHOmZyc/F7Tc5+oM7ZRt/Lftm37FBTfwFxQiIObBGF8UcCiawzDWKcI4h3FYtGkfPxlfL893RraCRi9UyCCNnD8gfZUQwBVg3TVeKPjO1f2NPjgpL6lwHIyv57T9UeFYfx/JFl6FpgTzESLkCC5VC8PFKRU1SAIdvhe8LqpyhScUJLG2MZIllersrpV19XtkqysS8Lo5DAMThseHra6UZ9MgWzpLqqos3v3bpZE4XafsV2mqu0fHR0tUMENug7Ms2fvHjj/Xm573sdUSXpOFEX/uXXL1hWfMkz5AbKqtgXAvffeyw4VIv+nMI7/uRttB9/3LwWWg/nXWKb5Mk3TXzo9M70Z5bRwEOSWqtNkGZJU89TD7kdB+LEgjkaTOHqwbTvboiiSqdyWaZqJaZoCinbwnSsttjnXK5jtPrQDYkev1qpfbTjOs4fL5TepsvIujFMqldqVeXE9gYCwK0aMbWCM7RsqFCMAfyDMVvJB4U3UGoQDE5oQzIK777mbqYpysRcEV6/k5zuR534smX97KV94k91snosdfu3ate0EG3I6EZMTw5I3nrQACq9FUWSjFocgCLyWPj6nEtm0WGmsbvn6uDeF86gmHi2I8fFxJkvyeZVm/dqRUnmnaZqbwMzE8Fn/AWx82Mm267yh3mz+S9kqXGeYxgvwrCv5gACkkCXMMHpmvKO7dtzDEsZec0gevn8lP+OJOvejzvyKopxhGeal9Ubjeaidhx2ZdlbYkaTOZ18AMW4n85PaT7s17ewkHGgMLEwC3XTbeTEWzjkME5DW1kcdPJGxhweM/XG4WNpfKBQKFPrDPQkARHUC0sq/nz8wOfH8kVLp47puvKzfEX7dFj7F/3EegZsohInaADt27EAY8BlRFA1wAN2I2WffH03m35Azcu+1nebzNqzfwJIoaoe+wJhQHbGYKJRGuz/oM1uCCn3e+V0WrJMVGoTf7xZqI2bOFu0kYbJj5w6myPKj3TD82Wh5aELTtBI176BCmbgen6GWPu45NT3ziaZrv6xoWdeXiqXnk4Drs/fe83RIiGYrBUObgUbgpw7TXXt2wx/wsCAIbu154MGJy06Bo8H86GP3CkPTr8QiwQ9s3wD5463uOG2mJxhsJ9Z+NhReNj5P2gKh7YiKJECy53YL5VFJbErSyQoZ1L2Lkpir8etWrfq6ompPJWanMtuEiYdn/84772SmoZ9XaTavHS0P/c6yrPt3iyYs+wroMgFS+cHsEHJUEQifIwyI/5koQPiF1WoVlVMGuQD9/lLT+S018z9GkqQvmKY5Vi6WOONj8c/MzLBiPs8XCtnMSdRKlsGOmy1vnVXhs7t6lsGztI2SVksr2umzqv+RvAPSQOj++B8M7rruHQenp06VGXtswtgPTj3l1HZjD4xP+P04joPx8fFxLwq35jXtJNvzbt+8afORTKEvzwXTQ3jz4h+pVtYWsoLA37HjuYRsvGP//v1nMMaaffkwg0kdRoGlYn7E0f81iqKLNm3Y2C6JTY44XkbKddv967gKGbXscr6DpEUlCBufFQbZXZxsfmI6XlNfaIUAiXmP9P1Srjv5IbJzgXBCqM8P/JdEjH3GVPW3eL77DggAVMWBk4/SeMcPjqNp58PsILi1YFpfGRoqP4tSe490Tv10PmhAlY+o9Bmem3oWIh1YM1odh/AOKpXKjc1m85n99AyDucxOgaVg/u35nPXFfD6PNtYcRpvdPRdL+E51n1T+7LiUYINdimxsEizZyEGneYGxZbFV6EKUW8k4hHaj3yh1hbBWwtiDGWO/lSTpGbqqfclxHC1hrWxBQzeuiwR2meM494qMXWKZuasAAiImWSwN+vl6ahZCtIWTVJW1S73Qe28/z3swN5YWgFs4Jc4u5qwbYAsSLpxUQ/xeiqYY1DFnNocgPiMYLeXb4768Nl+m1RYJjE7tgO/2QdhCEsYR10BIaFDvPBS4wLPBqx0l8dmMsa+k5BpGL03G2HSq5qqHkn4vN03jMuAACFHYzeewcNL3x5VAAHIhmtr/eO69e/eCnoMIQH+8ojlnsZid/1JZlK5cMzbGmSeLnc/G6xe7+LPOP1L3szt4w7Z5Wytidmp2CVMDzEzqaafGQNqJIklcSCGDDddQSW+06eaqvWlyjD61wMrn8rfUmvUrc7ncT5rNZkNhbJvKocnaa2RZ3oD7Uz8/Suvt8zWwuOmJYrvJKGlpSAxyXTcKGuEmhzn3Lu4Gg6uPFgUWxPyaol3lB94lmzZuaqv52d01a7MvduKkPXTG8mkXh8eZnFJgVjinKEmlU1jMJoiQ6otdHoxPgCDSMngcPwi4cCMEIYfy7tnDYjgamcDLX6FWIARQJ6JwNoflYunRb9dHaao00ZYAUxCCu3bv/pPjOqf125wH82lR4EiYH+ZtrKv6FZ7vXnby1pNb3vsMUCcLvuncaRdD8OxO32nDC5LE5wHGo7AbFh610ianGzkTO1V/0lqwu+MgRB4AOxgDPgyMDW83TAIwOYQMhAWy/TA+OS1nixgs5rlXwrVw+BHOgft8JIlPG+8E2pTvB69rOs33rYRnOdHmeCTMj0q471ZV7Y0bNmzgOd9Qjb20u2x24S8lEecC9RDDQe2njjRkeuA7MC+upbg0dnX8EA6/rfYrSiKKogD0Ib4nfwFUdyxeMD/GIzwAnpMq9UBQkFlBwoW0jaUUfktJz6UeC0U/sBYgACAgifnhg4FGtmv3LjhLH8YYGwCAlpr4ixzvSJj/1SIT3r9p0ybuEceuBwZBaeyFhtl6nXtbxRfFdriQwoiAmDbsJmdaqON0FAqFWzVNuysIgr1JkvwpCIKDcRzXoiiq4xxJkvQkSQzDMNYGQXA/RZQfXq1XH4fvVo2u4rs9dvk4FRp4Vqj8WOA8nyBo5b9LSmvnp0UPIZDVTnp9xpV6HqX74plBl6bjcIGYDQdWKpVdlVr1lEE14P56y70y/9myKN2AHR9MQVVqwAhwmHUyf2dsfrGPnGV+jIX7QvXGrm+Y5l5N137rOM4Poij6pSAIdzuOc2C2/P4e5pGTGXtIvlT+W4GxF3meVxoZGmqX4CYG57u/0KoHjJr3tOt3+iV6uN9xcQp5+6EpIfUXdCAtCt8h4SmOoyvrzeYbj4sHPk4eohfmRxz/D7wBRqb1FZXFWiwdOr35nXF90jLAYBOTE2yoPOS4jnudqqs/qdv2Lb7v34H2c4udxyzXFwxVfXISJVcqqrIll7P8XM5UCRTE4rQZRrKYlh9HYdZ9MmSWKhAEBw4cYCwKHxYM1P8+eUPdHX6lfC7/m1zO3ERQXfK+Y99bCnWfUnE7kX6UUILy0VbOmpQk8cNRGH6tatu3HQX4aMFgRl7XdckV3Eh2HLfegqi6eFNFwzpH1dUrTdPcQg5EtNnigqsX8dk3r/vYTYSYn+oA4nelUtk9U61sOnazGNxpPgrMu3Qt3by6UCpeSC2uyZ7Net8XG8fPwmmxQwRBEHiehwKYu8Io/A9Blr9g2/ZSOos2GqrxF4osPU7VtVMZY6dNTU+tR9gOiD06dE2Ht3+3Ikm3J1H8e0EWZU3VLlZRPDAtBopzF/v8x/vyRBEQSgsGVNo0ci+vNqofO96feyU833zM/wxFkm9E0Q2qfttp2y5FHDs7BsbnqaK+95bAca6ruO7+1HZfZDtLpuZyuecrsvKKMAgeDp8BUHjQNuCkAgNThiAh89DEE9+lDj9UBw9kWVaxg3VGIFbCi16uORLzg9aICjiOE/thsNlxnD97Z5drcif4fedi/lHLzO0ql8sG2flZNX8pFz+YnzLyqEgnYu74iQC5FUQwYayq6o9dz52QRPm3URz+2rPtu1BXjzHmzPMOEXR+gSor1yZJIlDRTXiisRB5thqcVGmsniIIVKoKAgFxbAL9UPZg9n4ACQ2O+SkA+tquy3ETqHswOTl1Xczicwd0W14KzMr8OSN3hWXlLsvi9eHg6zyWwubP4gOyue/0eTaujr+RY4/fnu+xQr6wK0ySX9iOfWMURV9njE1m5niaoeqfSFjyiFWrVrWbZ2Z70hGIhzAL8FaD4RHiI3wAEITZo/OZF9uld3lf/9G/O8KjoDMSgKgSELD/iijwDMijP4PBHeaiwGzMf7osSn8E6IXXyQ+CeSvrLJa0BMwhBx9pAuQApAQbgt5CFQeAhwqB4HuUz8Z1iqLc5Dj2exLGhpCAAxQizqV7EBINvwmGing9B/R4f+6um03vJcdV1s7HM8PRB6ffic78oAHRY7a1ANrDlAPz4x1BEOD/qcnJX9Tt5l8sdv0Mrl84Be7D/IWc9e18ofAkKrqR3fGzYTlSgbtVx+02tSx2P5sTQP4Fiq1T7BjjUTydBAWh72AqIK/e0A02NjbWjkZAg4EQwEGAHCpOoUhyO6WXxoFAgUDAAZuVL+5Uvc/G8vn9uz3gcf59N+Y/rFKSoiDVkyEf4N49e5ioKs/0PO/G45xEfft4hzF/wTDOrDvO/yBhB4sfTEA7JJ6AcuWpQCYEBDQDkuiUUENZbdmmGLMm1aRgkOy4YFQAeKh+PwmXLNCH8u55Hr4ocnWS6sphnhQ+5POLor4l/vEwMWL++Z6ljQIEICqMmKpr/Pf4wYN/qjnNBywQkHU8kG9Zn+Ew5tdU9evlUvmpAPRkK9VQVhteIuXNE1NpacYb9aKnZhdg1myRS9o9yXlGzEyFIbOwWMLS4740BiHGSFMgmC3uC8ECAUBpuJgjBApseYwxOI4eBboxf7ZGAnegplmSeK9TM9Os6bnnoMHJ0ZvhYOS5KNBmfkVRHiIJ4q/gHKO4LKnhWcaGag2HGIXHwMS0O4PpiOGo4COcaMT4pMp3ZtjRLk8qeVbI0OLhHmPb5n4IaCTUygtZhWSOUCYeCQNcs9ILaK70pUvmGvlwsoVS8b7ihO05MDGOwp/3abe20p+93+ffZv6cYXzGMMwXIRxGRSjIO0vMCnUef5PzDQwehmE8PT0tcidZHDHTaGV36bq+W1aUcYEJMwlLagJL/IQxm0WJmyQJlwgxi5nIRCZIkuF7rqHrhhlEoaqraiGKorIfBKuadnOjIissCP+8NtasXsOZn5sSccz/xj2hsVBRD4xPgqPfX8LxPj9i+Gz5b3o39+zcyQRJHOz+y7AIiPlNgbHmtpO3ceahg1JXIRD279/Pd96m3UTWW7NWr3mmkfuJF3i3xnE87vv+bWEYHmSM1RhjFQZGZxnI3MIeDv40eN4MVVVXSZI0JEnSakEQTpEk6WQWJw/SFOUhpmmKEFSkFeBWlFJKDsOF3X5w1WIpkBXAVJIt6+RFjcRatfr7iekp2P6D4xhSgJj/73OG+W+rVq1Ss3nrKLkN219RlNsVVfmRyKSb7UZ1h1Uu3zUzM9PI9qg/hnM+7FZlXd8o6cZ3dV0/mdB5+E2myGKjEcv1XMfLfcl/04nkpEgNoinocWjqub9sus3vHC/PvRKegzN/qVD6sWkaj6R4OHrel0vlPziO/ckoSb7h+/7d/ZyLbVnWqKkbP4miaBtgu/AzmGn+/UrvmLMSFlG3OZJ/CL+zDl6uFaQ+o3q9vq/ebPyl7/t/7Dbe4PuloQCYf0xg7EAhX8CIoeu570sY+zTU+KW5xTEbpVjMF74ty/LDYaaEvs9V/0Go75jRf9YbUc4EaWBkhrWzORWFC2toa/fsuIeZZu7nSZS8w/bs73aBbi/vgx0HdwfzP58xdr1lWW9tNBqfQnvpFfxcuaKV/5qsKI+liASw96R6QhgQ4g/PSAtzBT/vkk6dVPPZwFYE6gLTAlMBkxA0ppAuhW5BYzAznLDZsutzTRTvAIxPmBJUAkJSlaooe4Iwer/jOWgBPugAtKRvujWYoKrqP6qqenWj0YCz7ng41EIu/6Uojv4aEGWo/1TPj/IEaFFmAUzHw4Mv9BmyKdqz5WtQ6JdAW2k0h0eFKAmKdm+MlW3B1gnuyuZs8AUoCO2a/7wDUpK0BTTGQRUgQRAvMy3z32u1GnokDI4losDxWopCEpn4JlEU/nloaIjhB41CqY4/aEeMf6JHA2i37xQABGOmxBwC5xDOg3AXiqbxDEwwLiJFlC5NQoDUe8rcpPvQ+ECI4h0QloT+xm9eMTntmVipVNwkid/uh+GHB5rA0nD/8cr8nDoSk86TZPFTq1ev5rUGseCwQwEJSNrAAAR0eN4C6JbNYwAT8irGktTuTcizKlG/EejOFE5N1XshBJC2C40AuIssPJsAYYeNn+78ZILhOxI0PCQotdqo4V7I6Kw36kzXjEscz/loPzuhl4Y9j+4oxzXzpzv800Um3LRh3Tq+qIEFQBYgFmm7Ht/RpXFfj040yMbes6o//oaNj92dYvZgdMqvgI1OZc4hXAmSTdmXWY2Cdvvsb+z86JdI90fXZdyzXS4thW7jewgT3A8VgUql0p98L3h93a7f1NcE7uPJHffMD9oPWdb9NMP8gaZpIwQdxoJNMQx9/HqO/tSIoTv9IWSPY4enNFxy4gHC3YZ3p3UeeLWnVEsgEwDXUV5INjELYxNqVJNkzuz0vwCDLS0HT5Ea+h/X+WlZcNz/rrvvYlY+/5UwDF81qAx05GvlhGB+kGX16tWjQhSj2u9mOAKxc1HS0JGT7fi5IquCkyCgRiSE+0ARVVVR0aocBVSmDNPYEXjBLj9AVpXIojhuxnEsoJq5ZVlm6Ad5Jgqr4yjeWqlWyqCWLMlcg0D1JAgFEh5SWg+A8jPaUYWk1cKd8jMIFESQc8fzuPk2XZlh4+PjEDLnB0Hw6ePnzRz9JzlhmB+kHBsby4lR8jk38J+dz+V4jT4sphP9gN2O5itA27m2zfshJFEUSrJ8m+9732CS9DPHcYD7QBgYyM5e65UDnp3TGSszWd4mKcoDFVXbLjD2FN/3R3zfN8rFIsdjQDBQ2JD8MNloDDkCqb0amJ/MA5gKqA6Uz+d/53ne0wdaQG8r+oRifiJJPp9/b6Nef/0p207hjj/Eq9GBiNRUmAMIEc4W9qIxuhWx6I38iz+r2zwoqw7NNNpdjlSVPxslcKHxyP579zE/DJihaR+NGfua53k/7yiLtvjJZkYAKtN13QcZmvawOI6f5LreE9H8dO2atYcJZZgDvI5k2hCUHJKkOWRRgnime++9l4micF4QRdcu6YSPw8FOSObHe9Q07RLP8646ectWLgB4pd40YxG7EEKDlDY823vvxnTHaq10mwdCaHCUua0MTL7LEqAGTHXXPXfj+7tqtdrljLH/YoxVj9XcO+4zbJrmmYHn/XUuZ72sWqtKY6vGuEbAE8zS90HMD18ETAgq+qqlmgOe7eDBg0xR1C80neZFaZLZMj1Sf9/2hGV+vJZ8Pv8Mp2nfuGbNGr6QEKLCbw5YURTOLHPlBnRjun557VTbACo9ZT1it5yZmUnspn13xOJLoyj66hGo8sfi0Qxd1x+uyPILJVF6YbVWzUEjgDCmRqooL0e7PyZEUQZUCeY9A5tNNjk5GSma+mjHcf7nWEx6pd3jhGZ+vmgk5bwwCj6F0mXUXYZ3J4JnGY0405bTnS92pTA/ecqh9mNXhHazZ+8e5Fq/hTH2gRUAmClITHrS2OqxN+w/sO/MofIQF2K6qnKzhZySVMoNzgjCJUA47Nq1C81ULw6CADDhwZGhwAnP/KDFcLn8YcaEV2DHoLbbKBKChTVXYtCOiSPzAAAgAElEQVRKYX4C4ZCNPzM9sy8WkmcEQfDrlcYJuq5vFJl4vmkal1Sr1RIaxxJCEOYMcgK4YND1dhdp9F0AOCiK4393PffifkhD7xe6D5i/9SYKqqxUof63Q06tUuBthNpK3fkBv4U5Ay3Gbja/bXvuCxljE/2yABc4D1Ni0jmFYv59tWplePOmze2QIPkAIOw4PiEMuQCHQ1eWlVv90H/acZTHskDytS4bMH9KPlkULyuXh65APQAwSs4wuPo4F/y333d+isXhWbDzqapyQ8O2n7uo1TL/xdsZY8c8F7+o5f4yZNGbXM99PByEENjY+Sm3gABK1D/g4MGDdiKJpw3CgQPmby9nqJSyKO0aGRnhn5FDaa5w30phfoQtG43m9a7vvvhoqrylUulDlUoFfgSUcTvmhy7LT8rlrPdVqpUHQBPIvjfKGyBY8eTkZDVkyVmNRmOl1axYUroOdv4MOUeGhm9BMRDE/WHzUxx8Nor3C/NDM6GMOEQnkAWHz7ADQt2vVCs/cj3vMUuwauADValteed4xWLxvUEQ3GPbNhJulu2wDOu5mq6+s1qtnrpx48b2PJIoOiyTc+eunUxkylkBC362bJNd5hsPmD/zAgr5wr+WisXXcrs/LVpBlYr71ean3oOYH0/ASQtpAH8/NTl5Z5jEaImFgqqLOkzTXBOG4Vm+798w20CSJL24WCxePT09DdVpuYpvYD0DMIxuyudFQXg1StHDCQhhDiEJkwDCEaHA/ePjLIyjJzDGvr8o4qzQiwfMn3lx+Xz+PEkQPwXMuJGpLtPPOz8cWhTuwjzh9QYABkg3SZFP933/9iVam0VZlr8XhuFD5xhvA2NstyiKr4nj+P1LdM/FDlO0ctblzWbjVfAHQAhAm4NJQCnIe+7di/+fnjZ6Xez9VtT1A+bPvK6iZT231mh86bRTT2N2o8G9xX0f6gMmPwy5mk+VdRDPn5qZhv39riVejdhVT2eMzSpQcrncHY7jbIvjeBMEQS/3lpj0HFWV3x6EwfcESfp8EASAFS9p3/OiaT5MVJQPVqrVs+APgGbXxnCIAk8Mcl33aYyxb/Qy5+PlnAHzZ96koRrn5AvWF6EaUvmvudp99YvNjzg2zRE7GgTBzMzM7+rNxplp74QlW6uGYdwgy3KxXq8/cY5BX61p2vuTJPmp7/uP7PHGuaFCEYB8s1arKZZl7arV6u+OWfz5pYYaW5Z1EYuTDxUKBQWqP96zF/hcEAAj4HneoxljP+5x3iv+tAHzZ16hrujnWfncp3jKaZKgYAQP9/Wz2g/YbrYOHsquG5r5DNuzv7bUq1NRlBcFQfAZxtg5jLHZ+uuNyrJ8MPWqv9P3/bf2MgeZsbNEWfnp2rVrOa4CxVbAkKIovNX1/Y8xxqZ6GaeXcwzDWKcqyvsCP/hbRHYUTeWOQPhIJicnYQKcsRIBUL08e+c5A+bPUMQyzX8olcofgc3vu267pHQ/Mz/63uOgQpo7duy40/HcUxayGHq4Zj1jbE+5XJ6emZl5IGPs3s5rDMO4SlXV/1OtVmVN057leR6Shboehqq+wPf96wCzhj1eb2HzodUEtVr9qgKL311ZAsclTUSSpGdHUfRltHLH/SCwEBZ1XbcShuEDTwQcwID5M8tyqDj0eiYk74VjCIk9OPq94w92fkp2AWZfZOw5EWNf7sptCzxB07QbDMM4OwzDbzcajSfPMsw6URT3lkqlmenpaRTyeBxj7L97vN2rDEX9wNDISNs5l9rm8e49u0WBsdeMjo19fHx8fEmiCaZprj2E7/hktVp9CtCd1IF6165dtmEY22zbXsll7LuSfMD8GRIV8/nXm2buvVD7u4F8ulL2GJ1AABZJUdjdd9/NoiQuLbWt3PEosIt/mPZCnNWpqKrqmzVNe6eu682pqalcHMc9CwCRsXfJqvomhOh412ahVdYLQgC4BUEQ9rqOfYnj+0vW1tswjEt8378KZgBMPYQBq9XqbfV6/eHLGLY86itowPyHMX/xzaZpvJOYfz7qE3wWyJflPAi1Vq3X2cz09LVBHJ13tOdTLpd/F0XR+kajUUJ8PwiCz3bcUymVSvfmcrnRIAjcgwcP6rlc7q+azea3epzbuy3LeuPw8DBLophrXzDFgM/H86KsWCFf+HnkuS9tLFF7L1VVt+fz+R+IojgKwQYzynGcb9dqtdm0mx4fo79PGzD/ccD8YI4p5OfbzkuC6D6MuOQrUNO0pwdBcJNlWTXbtgthGD7+kHr/g+yNJElC7PymTZs2gWH9nTt3Ah2IpKLre5mQqqrv9n3/jaeknaOp7j+eFcwJLYDnLOja22zbvmIpyniXSqWS7/uf933/KZs2bfInJibUKIqubDabb+xlzivtnAHzH672v9k0c+2dnxpazPZS+2Xnp67Kd+/cgeD4aYfar/3pWCxCy7L+p1gsnuG6blypVHRBEJ4ahuE3s/fO5/MfQ3gNzCqKYrJr1y4hjuNXHcqi/lAvc5Rl+V1RGL4J5dbQHgyOOWq9Ru3j4aTzw6ARhuHTXNf9US/jdjtHFMW3xHH8jjVr1nj79+/XJEk6LzoOy4INmL+D+Q3DhK3Kbf6VwPyYPgTATLW6s1KrAoDjdlvcS/T9GYIg3IqdPUmSaO/evVIURZ07u2oYxp9GR0c3U2Vg7NZxHH/W9/3ze0k00hTl1WEYvX/r1q0ccMXzFzLQaypNhiafOd28JufmXzvOFu8QlCTpqUmSfH1kZKR28OBBdLEFsvFXS0S7vhhmwPyZ15DP5bjDDxh5VLOlRhL9vPNTxduZavVPtUYdO/8xO3K53LWapgHTz2mFqjm6rr/Fdd0ssnCjaZp3jo2NQe3nOzf678VxfFu1Wv3L2cKFnQ8gMeklMYs+vXVLSwBQ70A4AfGeeGOQVmkyCKKG5/pnN93md5aAEKdrmvYdXddHarValCTJtl7muwT3PSZDDJg/Q2bE+U0z9xGol1hU81Xv7Re1HzsfGOreA/tv9nz/Kcdk1fz5JsMFK793ZGREB6QY2ZB33HkHE0Xp6nwh/8YKYHO8dnfuibbb/A7w9bzrTrPJw5MHDhxgLI6e4IZh18QaVZKeHUTRlwHPJQHA6yui3LjrtiswQTAgY69ULn9EVtXLliAsOCzL8pd1XX90s9m8OUkSwICjY0zno3K7AfNnyJrTc+eZOeNTKOK5Upgf0/c8L3b94JOT05MXHJVVMs+gkiSdG0fRZ7ectKXdZAM7cBRGe23PebLv+zxnXmTiqxRF/gBANWBaCC1oC0AkWrnce+rN5mXd5q4oykNN3fhOuVwuka8D5hmZPtSNCUJ7cnoaAmZ/pVb96yAIbu02dpfvVVVVr/d9/7miKL4rjmOEOFf8MWD+zCs0VPUcSVa+iMaecZotN1diT7/s/Lw2XxgEByen3u/53qXLsSI1Vf366MjoU6mOABgTdAPoSJak84Mo4p10TF1/Sxwn74AAgBOQ6iWg1Lau67c7nntOo9H4w3zPAGAOi+Jv64axHTF5Xs8/YcA38MsQpuUFPBWFz2H3nt1MU/V/dH33PYuNCOi6/k7Xdd/MGDsukoAGzJ9ZaaZmPsMPvBuBMcfOT+2iZluM/cL82EXHx8cDWdXePzk9uSzMD4Z0bPuurVu2GpQtR910du7cyTRdvyVO4nMAmdUk5eqYJRfy4ptRS3uGCZDi+X1BEi+u1+ufmk8AlMvlous417CE/e0q4PMlmYlyq6U3xuK9/9IBYBLt2bOHyaryO0EQ/q7RaCyq1Jimaa+P4/g9QRCsY4ztXw5hu1T3HDD/4ZQ8Q2DsVuDLUcwDNuxciT39wvxc/RWlcM/+e6/yfH9ZmJ/vuJL2VD/yvk4ltKAFUD9E/A31XmTShRGLPl7MF//9UFXt80dHR0U040B0BQwLWsMPoOrazVGSvNRxnPvkDmRfl8jYq1VZeT+ENZx+VGYdJgXqHEALwN+8nl/gs/37Oa/CvIAWsJjjQkVR3nqoN+DmPut3cETPNGD+w8m1QWBs98lbT+YdYsBYc6X09hPz27aduJ73iWqjvhCbf4wxNn5Eq4axCxlj13Reo8jK+3Km+ZpyucwZjrDyYEA45cDYpmnePFIYvajqVK8Mw+CZa8bG9Gy/RFwHjaBSqXh+4L/AmaNyEN1bZuxRCWM/WrcWG3GrmAm0D1Qtxn2pACuy9zAHoASbzeYvdF1/yWJq+CmKcnEURZvjOF6xAKAB82dWsMXYaJOxgydtPomFvs93jrkSe/qF+bG4oe42HPvm6ZmZI/b2p4CWdx4J85fL5atnZmZQraezAKZeyFn/Ux4aejA11MC4ME3wg7ZomC98ARs3bHhXnCTP1mRlu+96TDcN/h0YlGx3tOAuWNbNThhe4LrunMVBYAawIPiPWqPxlLXr1vOuSxRRyEZsqAMT7gNcgKwoFwRBABNjQd57TdNe43nenYyxm46Efv1y7oD5D38TOZEJDQBKEEKaL6OvX5ifetvPVCq/rzbqD1jAwgIq73lHkgx0qJzXYxRFud5xHKT4dh7rZVHas2XLltBxHJlabIPx0Rod0T98tm/fPn9sbEyREiZgt3Y8t71L0+5NAsN1HK9hN9/sheH75nk+yVSUlzpBcA3wAHh3EIpkumFMaBT4jMyMHTt3MFGSvquq6vkLTeE1TfMi2+a1E/YugPbLesmA+TvIr0hyAhsSCTuUNDPbG+on5uehrampXXW7CYTf7NVH5lhmhULhP2q1GirYXnUEK9HQNO2OJEm+7/s+SoJT4Uwa4i9EJvx8y5YtnAmpZRgEALQp/OBvMKSUtNqiAVuB34Ikctuf+gpSTUIkLkVRdLvreygo8su55jpkDW13QucGK5c7ZWhoSID5hh0fwK1sl2LMCX39ECWAOSKK4rmoJ3AENGifKknSc9IagMcKXbmQad7nmgHzd5CkkM/fUi6VH0694Dh6bAUcE5NTzaRZ31xnbPJIpiuK4kWyLH/M933tSEJhabz7TYd8fe8+dB3CX53HiwTGPrNxw0YuALDbgvlgDnCsf1qABEwYhy3UHvwrrt/amSEc8JtUdZQrwzj79iHFPrlGM4y3NhqNWTsPwQyoV+tviuLwss0bNrbGdV0udCAoOTIQbb/R7FOSuNaBFuVWIX9jEASvWIAWIDHG4HToqW7hkbyfo3nuyljZR5MCHWPncrlPjI6OvhSppNT5Facsd+ruXCQgYMud99yNxJ5O/PkwMwydzeM1l2X5rDAMfyqK4sVxHB9JM0te1SedFxyN/945R5Gx9ymK+hrE9SFMyYzidnicMIbyHF0O0r5wLX7SOoVJvV4Xqs3GJYwx9AnwZxtGluVHa4r6XwAFgU7wBcCXk22+yuciijy0OzUzgwpOie14FyEq0W1uK/377tRf6U94hPMvFotvCoLgXRvXbzisXVcn8/dLAU/sYFCTK7UaCwP/mbbn3Zh5ZNMqFF7fqNUun4cMw+Vy+W6gBG3bPvVI+vhZlnWzaeUedXB83GAJewFj7P923Ecs5QvXBmF47qYNG3gs3zJz/BTCUMQ9FOol7YtyLSgsiB4FURzvCKPwVZ7nzep0Q5qu3bQ/xJLkXCQhoTxbmmXYruCL8SAQ8Bsawr79+5imGV9JRPaqBWgBR7jilu/0AfN30F6SpGcIgnDjmrHV7QSS2Xb+fmF+Kt45PjGBtfu2Sq3yz9lHkhR5UpWVh8y3iA/V2vt1GIYPVhTl3SmCrdcVyav6rF+/vrZ3715kvsH+v09hj1XDI9+MwvAJqM4DBgaDgdnIF9DtZsT8lGVJGYJe2qJ7157dLJ+zflZr1F/HGPvpHOM9XVe1/8jlcjn4F6iHHzQSFO+EVsDnA0xA6ieAEEgYO5cxhkrCC4oIdHu25fx+wPz3pf4ZoijeetIm4Df+XMOvX3d+MAbBWaenZ77asBvPzj5SoVS8OQyjXXajMScGQFXVf1IU5dJms4ltGc03evVci8Vi8Teqqj4gn89HO3bskARBeFUcx535+rmSlb+lUChsB9PDjkeCD+bdi0+lc+en2D03BdJ3hHoBExMTyMP+ihcGl89WgXdsbGxVo1Z7i+O4rwKEG0IALb6p6QmEC5ifsAYQEEAoKrLyzYjFF80XblxOJl7ovQfM30E5y7JG0cJ529aT2x7pft75sWCpTRe69ARRCAa26bGK5eKV1Ur1UpawhzHG5kpweYiiKL8aHR1N9u/f/5UkSZ7T64LK5/IvaTTrnwayj+LnAmPvihk7LPkFJbPjMPrDmjVrimA6xOGh+lOh1Lnuh+fLMjvt/iQQwLgN2+ZjIUKAcQ+MH2BWLv85L/DeRYlF2fFHRkYe26w3voRUXYQfoYmQFkJIQfym7j68UtLUlO947kWMMZ6ncDwcA+a/71tUi8XiLw1NfwBUQXJS9evOj12Ut5+yLPanO/4ENfXwjjoiu3jVqrEPOE379nq9/qC5Fm2pVGoahiHs37/fYIydzRj7So8LXMznrEa5XEb4j6vMgNFqqvqVhmNDZc5W2t2oSPLtY2NjuAff/b05+iLQvTsLqmRBO7ynYpLwqAC0CDQpJS8+ogUQArpufC6KI5QE68T0qwXLuqzeaFy+ft36drSBxsf13EGYpkzjf9QhsEzzO9O16t+vNM/+bO9ywPyzUMWyrK8WrPwzsZjp6FfmhxoNJsCO5/o+q9car/NCrw2GQb093/dvShc1dvRZy3orivLBUqn0Ss/z6o1GIx/HMcpu99Tg09S0i0RJ/hhgvTgQJUHNfcbYH/wwQHmtbAjsNJEJf1i3bp3IQ4Aqr/Ex5zFfNSVcFPoBknba2gGF8gjUA4w/bPdivnCTLApvn6xWD9N+LMu6nyAIH3Jd9/HQAjB3Xi8wYe16DggNDqVVfUHnqampWJDElwdR9ImV7AsYMP8syy6Xy71RlZV3I2W035kfCxM7KJxWOJqOc8vk9NT/l3ks3kCzUChM41zXdbfOxtSKoqBTza3r16/3oyhSJyYmbgjD8Lk97v66qRt/LJfLJ9FcCKWHuHyUxJjPLZmxNpaLpV+ium83tX8+DQBCDxl9HLyTtMBE2KlJAwEjU0cjjANE39jq1bc2Go3XH+o5AMdgO0RomuYzBUH4gCzLmyHERNbSKnBAwDrNJjcroNmoqprs2bNH0DTtd5VG/e8YY4vKFOyRxkt+2oD5ZycpPMM3YSeAGsntzk7EH+LUgJv0AQUxP1rwu/bsYWqirXdYOyNOkWXZz+fz9SiKzEat8aGYxa+Z7bFzuvn7oeGh7WlijWC7Ts/qv6Eaz/UD70vr17dUaApB4veu3buYaRiXNR2nnU0HH4AQJzcXC4Xt8FmAwXDfrE2f9fLTfLMOwtZ7Edrl1jgGIG4Bhui9YecnvAbZ8UD05fLW7XEcX1mv11FNmISAWSgULmw0GlcV84VoeHgYdQn5nBRJapuAmCsEKY4DBw9CTFzm+P5iMwWXnLm7DdgHS7fbFJfl+w2KJO/euLGFTsPRr2o/5kbgFwiA3Xv3MlmWzqs3m9cS5RRF+Z/R0dGHHKpAE4wfOGBJsvykMAy/20nZnGG8VlHUf123bh3U9mhiYkKKWQLkWk+dazRF/fXIyMiDMQ+O3EO6cWqWoGCH6zi/NPPW2dPT0xRNyJWtwg1+4D+ZQ6rT0mnZIp3ZjL/sfLlnPmV+fE62fhC1fCBgdI4LkAC+49WOuBCAfwBlv3FMV2Y4Ex/ayd9mGManZ2ZmyDwZGiqX3z0zM3PhmtVrIlEURUPTBMyFnI+kFTieh7Ej13Vdx3Mfs5KKfA6Yf3bZIpq6ObN69Rhi1+2dP3tqv8T50dGGL/YUE4/FPj019dWGY7dDfuVy+YOMsX8wTTPBTun7fmV84iCKUXba9CMiEyaGh4ejcrkswb6dnpn5nuM6c3XlPYx6uqw/Joj8/6b8eggBeNIJhYjfjUajFkTh+Y1G44b0YqlsFa71A/+FcLDBbACTzdcenW7Kd2RF4QxMUQEq7km2P76HAALz4+Dx/bRKE8p+Q+tAmu9MZYaNDo9c7/jeR+v1Ou/Uq6rq/SRB/GAYhk8ol8uOqqp6PpcT8EyUsozzUthysG/fPiURhQ8MheFbxg93dC7LDtbtpgPmn4NCBcu6fmxs9fOp2gzKRZEgaGkCLdItt9oPhxd3bqVlrABVRWw6ZskoS3H+1EBjzZo1kWXmJIQEk4R9wPEcwGMPO/JG7jOFUvEFSZJIYBScK0nipY7nvbfbYsL3hq5/vlwqPw+MDCYB8+FvMBhpA0jpLZVK1wVh+BrC56uifKkoClempcD5rs3z8tOeibPdm+LxBHSiHZ6EArSBdGfnDEoaUjvXACXQgoAzMlUTmp6ZZnkrP5nE0RsTUfwvzM9UzIdrpnpltVp9/FCp5BuGIem6LrU6Cbc0HO4kBObC86KZmZkgidg5XuQteafkXt5Br+cMmH8OSlmmdVHTbnwM8WscVMef1D0wP1cte4Cn9voyFnKeLKa2qNiqZINMtbR23ouDKCK03bp8ztqL9leYMxbq7t27gQm4Ty06lamnBcy/bdvJ29oQXFTklZj8mJCFXZtiGIaxIQzD3evXrmuryNhh87kWrBeCCkIBjFOv11Gw40K31fabSYxBW/nySZtPiuM4FqGi045Ngpfon824PNQKPBQEQVQUpW2dZQUDrgWD4t60U5PZQLBe0AThwkLq1YfQ41qEJF3DovDzbhj+UNf1s2RB+v9dz31CsVhs5PN5Q5EkCddBg8CYmC9wDDC/PM/9nGYYb+xWkWgh730prhkw/9xUPE0Wpdtg/2IRUJXYrK3ZD8yPBCTYyPligYOSoPZjvvsPHPh5026emT6enLesHwHmmy8UNOyIHMO+bx/TDH2D4ziHIfpURfn86Mjo87i3HGPn82zHjh227CubG2z2TLoOMl5aKhSvhApPajgcZrgngZLAJPgOTTwURflFkMQvrtfrt1uqerqqG1/zPO8kJAQRk1NMn+hPn0dRVKnX6p8PwuB0WZYfqWmaqKhqDC8n+RyooCiF/7gwSDMJIbw5TsI0Of2A8MPfiJ7QveCvEAVhQpbVqwrlwvVeo7EuSoS3K6ryRE1REt7bUZIkMj0g2OApwhxRQFSWlIuCKOi7sOCA+edmfrNUKO4sFAqj3HucqnXtxZe0Xu5y7/zUxRapsHzXsSy+aBHWygJ+LNP6J8vKvV3X0VlLaMNaK7XqL6YrlUd1hL0eEnj+r9asWZMoiiJAZcbuVqtVv+J4HiIA3Q5lqFS+K5/PbyRNA8KTMzxrqdi0A6O2HkJoqNqj68aViutcUWGsPlQsf7Ranblgzeo1viRJKhUFyTI/xqg1GkGrTh97WxBFvwps9+WCKDyrUCgEuVxOAeO36vu3zDYIIAgBjMMbcsZRu5AoIQ+52ZA6LWlXh08FwhJ+EE3TvmtZ1v+VZTkvC+LzhDh5qKKpCjkE8XxgfiojBi2CicLPDcN4RbUDZ9CNkEfz+wHzz0PdnGFcNzQ0/AKea556rWnx4TLajY7mC+o2NqUeg/m5nY2CGILA0WhhGLytYduU0XeqwNjtmzdtRoKKhAKlYIqDk5PYBa9puDagq+1DYAzFOJ+SJIlIqvHevXtZGEaXxizuav/LsvyXSRTfjNAfx/P7fks1TjUVgtEirRdCAefAL+C6bqAq8iUzjcbVhqo+W9f0TymKAvRgLMuyIoqicJjqL0ncfPA8T2OC8AuZJRe7UeSEvn9V6AdPGRsbSyDwyEsfeD4zciZD6TAIbtCA/DoUJeC+ghQ5iV0dDI/5pTUJEtu2BQgFXdfrkij8Vpbkh0VRhE7EbdVflOW2LwBEpQKiwBIc0ojeTg1Nur3fo/n9gPnnoa6hqs9VVO1LSAKBSkjVYKDWQRW2G43WrrKMBwkjKllNveuwC+0fH9/peO79CWKrKeqdq1at2iSKMI+VVvhLkhiYOonZeQGL2uFBxtjpiiD+kRJgCEWIGLkkqU90Q/d73R67aBWuM0zjBdhR4TDlWP50R0U5L7T5ojg6ngO7NOaPedmOY3u+98qiVf5tELkXJ3HyMsMwHNM0VajYuDe/JgXh4O96reZXqlU1DKO3xSy+HOi9MEC6r3thqVhi3OeBYh5hyJGFEJQUs6fSXkj0gaCgSAUJjeyzkvBJ5+wmgqCTeZPFJrRNxFRrxLPBnGjlNYTwyQBjsGzZggPmn38Fb5BFaTcYgCrRkmeZqsGg1t9yHpTeSrszFc7EQkP+fBRHf22nue6lfOm1YRT8K9nSPJ4eBHxHQ0FLgbFHh4zxMBcOTZI+tmrV2EXUERfqOa6ZnJysCVH4wIrr7prv2fOMDTcYGz9568kSmqBwpBwaakgSF56It1NhjawDD0IAz4F7MYFN+374b4zFTFO11+m6roqiyO1rHKjwQ+8kjRAkQRBgZ7693mycA4hxuVzeGHje623beSUEAN4lrsFOncURcB9BWgI83dm5IOCRgrDFo+TVx9+trMKWAMp+ToKJfACEFSHsAYQbfvwggF8GeQLzNio5WutrwPxdKJvPWf9bLpcfQPFiCg1hYXLbtQ+Yn2xL8nATQ0Fbadj2H2qNOnZ/HGtlUboXDTPowM4P7QWMyPH4srTZ/TNTj0qMHdy8aXMMTzqFtlIBMN1wnTXdSn+pqnp2EsU3jI2OMsBmuVNSENq2d5b85B/IMg/uFR7aymF+KIriybKsZ6/JpPQeBsDBffBMvu+9MYzjK9NrRg3NeLFp6JfV6vVR1BcArah7EM8MNM12vwFCHeI3fCvEvFlmnivUS8Ipi1zE32RmgJaoRzB+cJzlLeuDcYO9o0dn6pLJggHzdyGlZVpvL5WKbyP1DwuA6tFxnPcyq/2YPjE/5aXz6EQKl71n505gANrlvUqFwlctK//X8PpxSLDjcKYhBvB9f1/Nbj4Eac0YO2cYl7iOcxXKmVP9PYzNQ2GS+PFqo4Ea/vMeBSv/1Xwu90zQjWLi1FCDYu+djjwSALTz0o51flcAACAASURBVK5LKECyz4FryJYHIw8/4fzhqS8UC7dUDx78G/fPNfZyhqr+lWYYb6/X6vdHKnMul+O+BPhCCGDENY/UtwPmzwolemA4AunzLBHaIeFMw9esSUDjwrEIWgqC0Ijj6JX1ZvOYpQwPmL/bymXsdIGxP6IRJS0GqL+wWbGYl3vnz8az78MY2JbDkDm2/YXJmWmU52YyY4+UFPXH2PWwyGEDk1oPTQb2qG3b01PVysbUVyCMFEu/KZZKD8T1VEoL/o877riDSYp8hev7KOQ535HXVa0G5B/UaowBwUlZk8QoxBCd2kDWwdfJaJS4Q9oOedzJF4P/oQVMTk2idsBLCFNA97BUdbtZLL2iXqu9iDGWX51WG6JmovBX4L1Tbj9VICJaEM1ne3jSFLKQ4DZcHBiCFFsAwctzINDi3DQnqvUaIio/6b40F3fGgPm7008YLg/dUywWOdqHvNKIYfNW0d2vP6pnEMIsyzjZBQbVEvn1umlspw41AmN3bt2y9WTuH0iTYNBZF3Z4qmbDmfbdfQfHAQLyZcYekTD2kw3rN3BTh3Lcsbjv2nEPU1T1bN/3583/lyTpaXEUfW3r5pPa9fJma4JKu+Nsu+lshMyq/cRsGQxAe75grrvvuZvlTPM/G7b9ko46A0AclgLXfVYURpcKgrB9eHg4VlVVBI3wzBSexLOTAOzG+CQgsu+G5sb9BWnuAy9I0mi0+wzuQ2cjw/isH4WX2bZ91PoBDpi/B9ZUZSR+6G/Hbgm0GnZ+HP3A/LSwsguSGAeLEw4xaCmhH3yu7jSxu7GiZT233mh+CYlLEF7YhfFsEAAc0yDL3FkYBv5NlWYTqLtIl9UrxsZW8TbaZLsSqAjxbzGRzgpYgPr/cx7FfP4aWVYugOAEM8GpBrMpGzLNagGzaQLZz3Au5kq7Mo1DzjcSLoTs4+CbOIZ241UqM08OGfvhbJNVVXW7lCQv13Xjeb7vj2L3h3OQx+/TDsQUquycL41HQozeS/ZzEtiYH8wJzB80aTqtjka8a1Ha39DQ9X+yXRf1GbJFUXpYtd1PGTB/dxrhpZ8Rh9Gta9as4eE+qp7DGaEP6vqT6t8GtPy5rh1fRLxV9e7d8ExvT1ts5UzduGvVqlWrwfyUe0+hODAJnjHF419fbTZeCNM3p+n7h4aGwAwizANeh8/zeMgNabuKqm6frWxWhsSKoekzw8PDObKrs/TrVP9nEwrZqADZ/VwIp2p0p2edYwwQ1YgijtyDoMN1vNqQpr+tZjfmq2ycy2vm44M4eBE6AuPdQzvi5h4iDZksv7k0FtyLMhtJa8iGBQF6ghDE3MD0KEwCIYMmJRA4KQKyWm82Xu26bjYU28PKnf+UAfP3RkKxaOV/O7Z69f3xovBCyWEFtbmfD8BVWwg4Id57797rojhGhV2mK/pL4yT6BEpqU7prltnI0QYNQJKl66YqlXMVxs4QJfnWVatW+Sp0YlHkPgXCDExPT+8UJPEv5mqmgftalnW63Wj+kWDToB5pAZQMRKG7rNq8UBrTM5FQIEZMC5uANrcmkvjsTJrxrLcqFApDQiKc7QfexYEfPAxzhSAghy/t8G38RIpizJpIJKTS99HKNYiTthmFdQUwUBtzgFoCaUHRHbt2wjS5IwiCVzabzZsXSo/sdQPm75GK+Vz+dY5j/wv6+OElQkpjJ0D8up8PwphjzuPj4+iIQ55/xTTM21YND28le5aeiRYnfkOthtagKuoXmr77PENRLgnD6CruvAPqMS1sAWEIk8jz/Vsq1coTuqipF5YKxasB8kGoEeMQc9I9Sf1dShAVxd3JN0Aa3MTEhKso8jm1Vs+9roeu6xsNw3i67/nnJWH4F57vsVNPOZWvCTwH1gXhGTB/0jbwN+jEzR1V5Z8jMQvmE2jBw8ea2i5uCvMSwhVjopEpQpcwsUZGRn7oed5bKPW464TnOGHA/L1TblSR5IOwk9NSTvxKSvXtfZhjeyZ2DkqNxSKLovibk9OTT8UsFEl6cRxF16IlOWWj4RwCDHHse9rfHgvP87wfVBr1J5WtwmdkRX7B0NDQYf3vcC663oiSiI7BcBbOiV5D+C+Xyz0Taj8Vymzj6NOIQFYoLJRqxPC4vhNxR5+BuWC2HMrXv8Lx/bd1wy50zGWNaZrP0lTtb+u12uMhtIaHh5Hsw0OHFDUgc4XmwGmc2vxQ+UFfjnOQW8VH2uAtReHCgaIMHCjlufx8URRvdl33tb7vLwgkNGD+I1hVBavwhVzO/BuoZXgJ/RLnn+8RsDMThBWLHDtHEIVPZox9G2usmLN+m8vl7k8hLSxWSrsllZWy4WDjTk5O3m6Vik/TZfVLvu+doWlagqq/lKUnKQqHC0dR+DnX97mDcY6jUCoUf7dmbGwjPN24L9m9EFaECTiC1zPrqZ3Mn42EkEmA54N/A45Rq1D8Xr1Zf/EC03CH82b+rIQlzzJN4zGTk5OnYFKbN7fKmoN+HDDUykfgPhN0EEIdQmpOikSjbGgTPhVoElSbAHMmdClMBLxPXdc/bhjGOzKViHoi24D5eyJT+6QnSYL47ZNOOunPLyut5XZkwxy7s6E2YtHxXATb5ouoMjODdt4Pxs4sM/ZEVdW+AwgzVdAhpqedF+osQWHTDL87dE39e88PbpQkqWBZFnd8kHoL1RYhQE3Vr3B9d04MAHwIMWO3opknTA9yoOF6/E0ZeEtNraxjsdNZWGs0kmazGbu+h0zHeaMXXeYlW5a1TZGkx9ZqtWepqvZXrueiWpCv6bpKNRfhM8CzEvqR/C/kzITQoMQnMolo40EGJ8qWQXgiUqMoyocPlRy7fD6fS3bOA+Y/spUl6pr+v6MjI/cjUEk/ePvne4RDKDa+q4G5IADwN29JLUgvcwMXOeasaFpfNnPms6HGUziMYtCkrhLAibLcfN+fME3jo7btvN6yLJPbr+nuDZVU1XVeUUiWlVd7gYcyYrMeKOAhMOHLgBxn1XwwBGkjR/aK7nt2difNAqFwJoUtsRPzGn+myTUAeNkFQbzCD7sCmHqdnmkqymmJKD4ujpLHlofKZ40fHB81NR1O0EiWZYnalGMeVHMB84XgBXPjNz7HO+QNSlJ0JgQAtAPQHd/FcfzeMAw/whibN/diwPy9vrr0PFMz/8Ew9Y+A+NzhlSaYHOEwx+x0ZK5BhQYTY4ETqs513ebByQl02q3AgRW47i6AeLLecToXAgGfY3EC/w91FUez2ayZpmn5vi+S3Y7dGs4rVBTCdaiZLzLp3IhF18310KvKQ1fXG40Lkf5LPgbSBLIhtNmup1qK8xE0C7XFeVlhgMQc3JMg26AXDjwrhJdl5b6kVCrnHYWafGhcskmSpO15I/c4RVOfPDk1eaqutLoZox6BpmlIYW5XX6IdHwIA9EanIh7KTE0FijiEYZg4jhM0Go1/C8PwqrkajAyY/8jZUBcYc4B1pyywIx/i2F2BvHIqM03hSSwY7GyhH7Tz+HOa8QbD0N/DPfCpCp4N/REEmHIAstBVskMJA8EXYab+AQqLiIw9O2Lsq3M9+Wi5/D1ZVh5PACqKfc+GAjxMdW0l9817dMKDs4AoMA4BhXhORIpgpAGBZ2jicOyHpxiJ2TUYSXqJYRi7Go0GsiIXGgKSVca2qaqxXdHUUwTGHipK0uaYJZtrlcowIjcwE0zLiuMwFC1USpJbTVvwTJTWzfsYRBHMhXBqakrWNO3zoii+z7btXxxGu26EG3x/XwooioKCDK8qWHm+82PxYIHRrjUbxn656EggE/ympBosFtiJ8MyzMLif32o6YZQKxT9YlnUSpbwS43FQSrpjZuGpZIN223WxKO+++26WMPFpEYu+Mcf5w6qsHFi3bp1MKi9lTc63+2Pnp8VPTE3hQcy/m+bQrQArCcDdu3cnsSg8J4qiOWHMhmFc4TjOZbIsvy4Mwy8yxvYsxXsfGhoqTE9Pl0zTXBVF0RpN0zZEQXCSbppDcRyvVhRldb1e3xxF0RAJerovRRvwv2EYu5Mk+UfXddF12B/s/At7OxskSdrN7dTkz1l1BNvsRJst7BZLcxV5u4n5ydsMxoVqXqvVft50bF7rT5blRyRR/JNt27Zx4UAoPM7waZ18nEeqaFaFnmu2uJaEIurZqYpylhPMDgNWVfW0wPd/v27tOglqLXbd2dp50U7OnWIp89P9syG1TmjtbHPsxvyEwYdZsGfPHlRHeqsfx+/sGAt8RDoIQpxfw/m+7/+exfEnFE37hud5d2TOWZqXO/soiBXiB1Vm8COMjY2FwHgAlJh+hjrm0YD5F/ga8vn8NaZpXjBUKLbjsJT0QrttLzvPAm+/oMs68f9obAmYaxCFL4miiFfQNXX96jhOLqSc/zZcNvVtZOGz2aSi+ZifYtYEAxYZOzNg7OezXZM3zWc3bPvLa9es5b4DhMLmws+TRzxr09NOTfH0bjt/L4Sk+eN9wuchMOGrDc8B5HlWvL1pmmfYtv3tUqmkOU1b8QNfzZnmT1zX/5aqq1+3bfs3y1nBpy0oe3n4wTmzUuA0QRBu25qW9s4uMjBIdsddbvoRk9BOnbWBEQrcP34ANuIqxtgEUviL+cLv8vn8SVAZCfBD7cpIg8BYvTBW1tQgvwEANSJTzgxYMKsAKObzb2g0mu9BLgV6+XUyf/a+pPLTM3ZClOcSHL2+E2gtcHDCi06gJ9/346bd3FltNB4/lzMtn88PR1F0va5qT9Y0rR6EgRpHsVqpVIRisTgdhMFnA9f9thdFCCdO9TqfpTxvsPMvgprDw8PXsTB6AXWnpWIXZP+Tg20Rt1iSS7M7fpY58Dey/jDvarX21Ybd4F1+kMgkJOxWxP6z4TfuEEvbYvc6Mbp31udAuetxHD0qnCNvPW9Z1yiyckEpjSxk550VPNmdnoRCVhNYLPOD4eEcJUcoxeFrtVoyPjkBqwN4gLly71VT1a9xfPclq8dWO6jzT92FZmZmvEajoSUsYYZh/jSKop+osvpjSZV+W6lUkMbbbiLaK62P9LwB8x8pxQ4/f7uh6X9AAQhCYGXzvrN14hd3m4VfTao5MSHZxG0GSivhIKwlicJz/SjibbR0VX2rqmr/TI0+8BnfxTMNS3thLNwfuycJQvIBYCxU2XECH3kA35/VBMhZvykXiw8iP0VWc8k6HskHkZ3PUqn9lOlIEQFKH8b/mAPATGYu96Jms/m5ud6SxKQLYhZds27tOh/lyPL5vJyWAOdkrVQrQeAHCM+hrjrCeJUojr8hJPGtju//zvO82xlj6K2wpAUjB8y/cL7iV+qafk0hn78AISq+C6UeZlJHe1GNFzmFeS/P7oZZe50YCaFACquh2EXCGKn/SrFQ/KFpGGfCeUX+jKwQ6SXU2cmQGCftbccFws5WqvHTomjWKEBpqFj8oaZqD8AcKKqShehirGzVHtyPGLMXh18vtAcNgZGgasNkvvD3LQhs566dQDNe6fruG+caT2bsCUyUblq3bp0QhqEOwJXjOHHaYp0XDaG0Y3yGll9xHEu1Rl1MnzdBPUTf9+cMl/byLNlzBsx/pBTrON9kbE2kqPtGRkY46spNgReUvUVIwEXeZsGXZ7PkOpmf/5+CSLDwsOgazeZXa/UaNfncqCnqrlKpdHgBk8w13RCOYEQIF3jvKdMNTENpvBA+HAcgSbMKAIOxdZqV/2M+ny9QUY6sGUPO1TAMD0XZnDuSJIGgQLHPdqbggomXhjcheKjbEN4nL8KBxBzeILX1PwRA3rKurzUa58+lsvNWZn7wi0ONU4ckSYpQPx0dgKFMpU7FOIoikZqKQOBMTk8hlfeDlUoFLcDvXcyzdF47YP4loKapm/8Yx9HlQKiRvY832nqvhx+diLRuoaYlmN68Q8Djj3kSMyJRRBDEFwdRQH3+Hicw9v1NGze11XfC4HN1ewkQjhAGSBsWBelcN/LvgwRUVfX0wPf/SH0TcX+eTg3HasqItVotiuLohpxl/cB33Etsx9lWKpU4bBYEIPMDzwkhR6ZENiLTKVQox2E+AkJ4UQ4CGqUwQbgjjMJHzYOvLxq68WGWJOdaltXQNA01/wHEQTOQJI7j8ODBg2qhUGgGgf8vYRx/0nVdah2+pMthwPxLQ87ihnXrx30fORst9TQbFz9M1epApPUL8yPpB5oLGAvxeN0w1lNmmyqr78rlzDfB/qeMNEoUWmz1YlLboRUcGD/ANEW/wA7cf5/ltTxCEsSfbNmyJQrDUKL4O2keFI7zff/uIIhf5vv2ox3HvXx0dNTWdd3EeKSuQ3BAAFCPA7pXNgrSq7mWNcKxYwMfUa839vih/6guTPsWkQnvGB0drUEAzMzMRI1mwxgdHrmlbjf/Rdf1m2dmZqpLszxnH2XA/EtH3RebunEtKtTwaq+Z6rS4xVwY9OVmfixYMD4iFlAz4f3H/F3H/dl0deaxqQorDRVL3xJE8YkwZ5AAhAo/uLab2t+NvHR/bjK5LlefBSa+NWTxFZ2xcJmxx0WMfZ86CBOYKsvIURT5Bw4cUIIoPH8kP/IzN3Q+6vne41F9SBRFldqFQ3hxsycNyxKzU5gW/xNSs9sz4HvQjKDP+BvOzCSOHhIwhpj+rIcsy4+PwvBbY6vGpCgMv+v43gt7zcjrZU7dzhkwfzcK9f69kDOMPw4NDZ/GK7ak8WnKhutX5qfccLJjCZMP77+qyJc5vg9bE8doPpfbsXr1mhypua0ClItbQmAyUr25A1GSuAAoFEqfnalVeMmxjuNZsih9BQVHQWdcSxoL/oZaj959tVpN03XtellVL5qYmDhbYOwz69auQytvuY1d6IAtE7N3+kbmWwKUFMQFputywYjdH8/FayeE8VyQZo4KNAxjvSSINzqOs10S5ef7kc+jLcfiWNybOxYzXEH3KBaLD61Vq79E0g+s/axa2a/MD/Ji0VOoknwWSG2986474f1/HGPsv3GeytjpqmX9Op/Pa3znDCNucy/moL6HYBzykYA5eekwVf2e3mw8c5aMuhcamv45+FjAqGC8bLgvjUzEMzMzgu/7B9KknGapUPi0bTvPguCgtFmUYcsyeyeAqFs4E40/IXxs1+F+CGhRFNHAs0FD8gP/woixj6d0wtLoDNlJxULhw7Va7WJNVc91/fv6PRZD47muHTD/ElO1XCxfk8uZF0CdRGiIl2HuY7Wfau9RRli7ki/aVCsK6v6hOf39SR2VJOncOI4/i3JmOGR0+FvEQWo/Fy5p8wqYH1DP6/V6MlOt/V5SpCem94fzjqTNBQJj10DQEvOTU4/CfRAiBw+O247jGnGUPCNi0dcZY2frqnZDqVRC6Eyg3AHyIWSRgr08Fmrw8b5+ptEuIY55UGQC8Xzg6sM4uiRm7APzjSlJElqb/ackiRcGUTSb36OXKfV8zuLeXM+3OXFOtCxrVBalnUOlkkkQ39mYX0wYiwXGltvmz5bqoooxmC/i12AICK/pmelvHCrMiYQVfqiq+hbf99+xZcsWJkSLw51gfDgSqWkneeNpB0YZq0ajUXMa9ccFjP06u3sqonJJGAdXoQ4BVf7ltM4kE+Hz6elpb/zguCaJ8mVhHL4HlXgbtcb7Exa/aN3qNTyXn7LfqLIPxiFo8nyrFy3HwegQALzwRt6ikuf8f6q9d+c9dzMrl7+y3qzPiQVI77NhdHjklxNTkx8+5KP856PJOQPmPwrUNQzjnMjzv0jlqfuZ+SGgwHDYocAoWPx80csy31HBFAD/qLL8Bi8M/4XIlbfyV8uSdCEwAIstXs5hxkHAmYi8/wSjBQ6Bx7uRUJPEh3URxlx0VedhVsyDKuDSM2H+2dwC3g5LN77YdJrPhwaBKkKSKH25XC7H+XyeP0b2/F4Ss1B3nxCMvJGp3Ir/0xwwHm/umvoyehQAqmVaHwlDf8r1/W7CYsEreMD8Cybd/BcOl4dvFEXhGej6SmWaeWxZaMFdCTYaJYvbOY/S9NvDkkPrnnvuYUkSPyZk7EekABQLxR9YudxZWODEeLwgpaK04+pkxy/U55EJvyU7d+0UFEm5yI2Ca7LPrcrqPwahfzk0gDSVtp3jD47OIgNhk9u2fZsfR3+FUBwScHzX/YIsK08AUCvbwAR/43py2lKIMIsc7BYSJCcmCRaYAJqqXTNdr17U7d1JkvRcWZYf7XneJd3OXcj3A+ZfCNV6uMZgxjqzbOy0TFPGAoFTCJlhmtLqDU8VcpnY368A88TOCyZEbbum526iTLYSK5ViK/qGYRhnktaAOvwQbFRTjkqBLZT5wTzkQMO4e/buQSLMhxuO/crsayjm82i7fQUEANUhIBASmBdjgPF5c1JB4KhCibHtPmO3YRxFks4Po+iTKCbKNYoU1Qe8Btnv2Vr8vHxWjz0bKPmITCxkNZZKJTRCeWkPCTwbdV1/ueu672KM1XtYej2f0t8rr+fH6M8TJUl6jsyE/0RuPFRCviiDVoUnCkstt83fjXJgPmImLP5KpfKzhutQ/B+XF0uF4s5isViCepszDL7rg9GQCrtYhyeF8iA4qWQ6CpDKsvxDSVP/hjsk08MyrYuaduNjq0ZXgbn4HKgj0GGQ4tQW379/vy9p6pMrlQqPZqCWoSSIP5Bl+SRoMlSjkUwRvMPR0VHuwaew4GwozixNcQ0EP5kgpMmgIKeqqjeNT03yXojd3gNj7DmMse8yxpYM+DNg/h6ovphTLNP8VrlYQk53SxUNW7Fobh+id/sKeANgIix6xK+5AKhWPuf4/nmZRbtdEsQfb9u2rYzQH84D81DnWdBvoTs/VHb4I1BQkzLqqOz1gQMH6nEonOWzPzetGCqVzq/XG5/ctGlTy4+QZt9BCGXj+xSG3blnN5MV5R+CIPho+p4lXVXf7Pn+5YATZzsKQRBSvX2qs99ZNqtzrRBYCPcncwjPBObHHBzfu9F2nHN60AAw9Ghac2ExS7J97QpYekvynMs2SJ7lh8W8cGC4XP5/7X0JmGVleeZ/9nPPuVvdW1Bd1TtbWjp5wiKKIgoKmAitMGFRsBFlcdxYYgCjYNTGCJkouJAgokZmFH0U9BGXmZEwGCEZDJh5JpM4SksD3U1Vd3Xdurfu2dfp96/zXU5farnVVb3Ovc8DVXX7nH//vv9b308G18fthcNMvvX5/MgHbOC5jilDETcgbjCMP4jC9zqe19G9Mwiuf1+9YqUAMZl850sxP+qfknVAePgOsQa/3byZyZLyHi/0vk5D1hV9ox9696MSEfz4IDJe+iqL6afiGWgDaL2IyTdN45M7d+36BPgUnB2yLL8ujqJHhwaPQJKQRJZ7AvSg0t3zzY8kg3wEIBgBsBLQL+C3gyD87pQ1xY2Q+3O/+8S/H1YbRps0iv4B+igl0eQt0fthCHvdBRm0CBeACHE6DFc+K2IRRFH+URTlhCQM/+WotUd1yn+BSBb7If2abm6KDeARhorCS23pWuFLru9+mG5QXdbf5EfeI8eBASQJVwEoWw5zoLaQ2EQejXKp8rVWu3VNjgjNZYNHfmt81863vmLdK/ic8qClxODmmh/FHlDhFAJFJftDlCS8jkLRNL850Zx852LXaiHv94l/Iau1iGcHSpXb/TC4ecXICGcAFMhCh2ERTe/TVzFWHHocXujR+AkCgIHvueee82OBHZdPYEH8fcrY/wADoNDhxQwwn4VHFYGyXHhOzAAhhTSFEmGKqjwlR8oFDbcB4AsQ9evSKPoFxHcyskIVofRibrXPIMbxHdowTfO/xmOjF+aiCqVaqfKeVrt1L3AFqbAGhRb3Yu2nACqsG6l7FAZMWZXIBZBl5YvNqea1pH7sa0mgT/yLOZkLfHewVn9SEoRXQQSF3koFGBfYzH59nPLlcdhBfHTb4UDj7+2jo3acJmvzuqjM2GmSJD+O8NvFfsjXTmJ3HgiEG001jXtRYFwEccGKXzSMDW3H+VEmjZyYhOGvVixfwRkAAX90ArBEkRslybAIXTyKohfCVnSKxayOMbFiVE6KYv97wDYEA5iP6Gne5Ooj3z/NI3/zEyOBNFU0zb9q2/bNi123Xt7vE38vq7REz8D9VxosPre7qKKcIbhwdNp8Pj1ZpclaPp9BaYmGttfNgHBcx3200W6h+GdHZwUMeBxFT0DVIUZB0W447JgfiGi+EufdfnIMFGtE7jOK5kOb1C6s8WEUfdaPwj/D88ADSKL4l6tXrzbDMBRojdG2nBXQJCaHvcCa25b9azvwznFdl0sR+FSr1arAhG80m5NvBb4BN+Zl/5b3JuB3zI0KkM61uDQX2B6wTghEkiT55iDqJFTt9d7M92Kf+OdboaX/9zeJTHgE2PgggEJWlJIONSWo4CCQe2vph7B0LYKgobOmTLi37VjdgSunCYw9DgZA1XwoghCiOq9TLwNafvZPPkS6O9suh+LDGyA9HhIJrzkYJ7+2fPePPc973jCMEdQkGB4eXkP+eR4/EIac6PChHAG0A6Nms9l0bN87vrvmnWEY17iO82WoE2BeNDe8A5UE4yLAkfmYd8dwmIVT493t27ezJElvSFhy19Lt1Mtb6hP/vlzdWdrWNO36OI7vXAlRNIeEQ2IpbgwcqIUEkhyAaXQIBsQznYWn3Wp5zm35sciyfFocRY+DUMDYIClgbjjkC00JzoNtoI9ukZoYAIF2oK8d4+NsoFq5aLzRgMg+yJLkx5VKlatePAMvg+PCu4QPQMQLwhzdscMqVcpvaLVav8IjlJGnKMqJLEkfWzEyUrJtW0B+ApgHSSRgbBTgNNfeULAXJQPhPazLbs8D88MAvv3v76u97RP/vlrZedotlUrf1TTtQhT9oHBR3BIgJDq8eZH3AA1z3m4pKxA33m9++xvcvxtjFu+BZGsq5glOaP9q7Zq1AgUNQbfmoKc9woB1o+yQDk0ET8wgLwFw+0Acs23bt7FyufJAa6qF2ISgVCw96tj2mStXrkxVWQagJmdGhLdIdgYuEYgi++0zv2USk0+PWIQ6e8wqfQAAHo9JREFUfJ1PiZUGI9n9ml4wNsDmQFBoMB5SvkIvtgEy+hI+IMd/hD1l+3YmSOJroyj6p3k3Yi8e6BP/XizaEr2i1mq1JwxVeyUlgeDQkFFtoamlSzSmBTdDICC4ufD7lheeR42o14Qv1ban23JdsVh8vFar1TFHEAsCfyB29/KZbT3y3+N3QuKhWxzWfHhW8L1l2c+kQnoZClYWNO2OMIxuGqzVfNM0NYLmpmg+EC1+R1ET7MvmzZtBiDOCjOqyekuSxJsQWERZgdTOfO5APIf2ySXK7RCyzCvwYgxcBWBpJ6S6l7Xq9Zk+8fe6UvvguVqttkKIk83Lli3TIO5RDDrdQnQA90HXS9YkbiuI1ziwHEQjSdJntzybpIy9ijEGUbmTg6/r+mpRFJ+s1+tDeA+STkFR5x1LN4HT32Qfyd/cFIeQt+ZTUA+eQ3kyXdc+2rbtzyii+F5REO8plUp2sVgsAEyXJAzK70ccAb7DuyBETVXe4vj+y4qNFnX9TNfzHoV6Q54RGt9cE8Qz+YhIHlKM3A9d73hWRkdHJwVJXGdZL3kf5l20Hh7oE38Pi7QvH1EYOylh7Onjjj2OExFZf9EnHfJ92f9i28bNBcs2jF08r933wQTSbdu2CYIkHh8EAU+coQ8s5o7j/LRSqZyKEOA0y3WYbRzdNz6IksRywufH33mGmVcJILaT54SH07ouj6wrFov/GkThOyLPGxZF6cemaUalUskgt1vHmAicv8y+gH4AzaXq2kbP80i1AXMDLGsCaG4xTb8nidKrRkZGOMPoJQKQDIwE/kLJTJCQkFqN8adJ8vSOXeOvXkrff5/4F3v6l+B9mZd8En4BdByKWydr8cEeBES6bYa8wwNushJgabPZ3Gm7zjrGWDO/TENDQ6ZlWT8UmfDGIwcH51zBbuLn6dBJHApMUChVl1yIdFujwY6ujfyJnDqA9cXa+r4fj46NiqWC+WHF0H8qpey/CYKwSlGUBLj/HVSgDBgERkp8wDxgQ1AkdWMQBzNV6VHLBfNrtmtfhgzB+RJ/MGYCA6HwZfwkaQVrSbkAtu181Q/9q5bgyPEm+sS/VCu5yHYkJp2fsPj7QKal1FFKSUXTOBCEc0fgGwRcuciuF/U6JexwYhOFPQgNRNdoNLaIqnJSE/nAe36koml+Lg7Ca3FLkqRDQTh5VCEQN4Fi4OaTZeWvkyR+o+/7p5BXhG5/7nvPsvaojXxcADGGLE8hbrVaklk0n04T8Xrfs25IUnZeqVSSdF3n8OB5VyNJFCBMIA9ZtrUxZmzGMl2KpFwdxeG9a1et7mQAEhOCpEThxt3MvduwCZsFAZs8u+VZVtCNjzuesyQIP33iX9TRX9qXVVm+JYyiTb933O+9ZADKRMf8DYIDghsMumIv7qSlHeWere1B/Bz+a1pdIcLhabWi9MuxXTtPnylzTWHi9ZIs3YmsQQqMwVwBrAGPAFnAiaDDMERxi0kmsKtVWd04umP0/GOOPiaJoojf1lQhiDAASHIgwiVDIInyaL/VaqFslq8q6icEUSxHUXijpmlyuVwWKRyXmBPZFMCgMTfXczcG8R7ejY4awBg7VRHEfxwaGhIgEYHQqZITxkNqS/f+5FUFqFGkDqBvXhpM18/yPK+TU7G3+9sn/r1duX333o2SIPLy1DionUq/gNYSRS5WU2go6b/7bijztzxbBaL8AcZNaTnOY5Ot5nkz1bRXJekCSZTuX716dZGqAVFeAOZMIjAhIiH4ZjeGoKyqyhuSJDmrbVmbRoZHEk3TRNySXPXIYMHy2YU0JmKkxBBAhJCqEFSFoqHlSqWmKep6P/Bl9EkqRN7QyD0ByAicnARyLyDGqcLRHosGaG5D1X4aBMHvA9cBngcwOYrhmE2to7HB4EjpxxwoVNd5CLPG9DUe856ff4dmf6JP/ItZvX30rsjEW2RZ2gRxmFw/QJnF5tMBJJcS+ab30VDmbXa+8mOEoNO2bZam7EfNqeaGrNE8Ei8McK/wLPvJZcuWlYjgKJOQBkFEGARBalnWpGVZA0yWTkiDVFZU8dFyuVyBCxHrBMkBuH+zSUZ5oyCIH+sMxhHHcSjLsiDjf1lNAvpJjISs+Nx96DgZ00g3esGMNgAGG4fvOH+XJumFKI5C0GhEzHlGmWdMmDcSf+gMkPqC98fGxv6PF/gn94gDMOM+9ol/3uN9YB6ACiAIIvcd41ZCGCm4Pg4KhaNSqOyBGeHcvRLBkEuPEnK8MPjRZLP5J1QJKG+9RgiuJinfEkXhDbBnkEGPmAARQSbaQ19v2bY9kKbiGRGLnigWjLtc1/kgQXF1B0l1B9wQMZG0QTgEZFshzD6K2iOGsYdHJsszQJETJgqXx3FMEgDHBcivkszYLYwJm44//ng2jsjDgQEuPRDxdxs3+btZ/ATWkYdDZyCnkFLiKP6W5dqX7e3+94l/b1duP7ynyuodYRTcBGx6hKFSJCAh2oCgCF9uPwxnQV0QoZHXguC8kIJrO86PbMcmCaC7XalaLN1jWdZV8H4QA8jf1ESMSZIklmXZjclGUZHlc7woeqRWqZydJukDaZrWoTqRuy1PYOiQDIP5YJy8eoHnCf0nzzTyBjnejiR17DOocahK2rl+7KM+wIwfVZLOj+P4+9hTInZ6sHuO+N4PQ64mQF0giHOMBxGV//bv/wYUoneFYXj/gjYne7hP/HuzavvxHVmUb4mTaNPRRx3dgcXiWHZZBNp8EWT7cagzdkUMi24siNawWXh+8IDl2htn81sXJPUClK5CUhAOO6k35M4jAyA6dRzHG9sxphumeUXbtr8xwkYMv2L/RbPVugmpvPiQOxC/58V3cunhu25jIE1orhBdqm9AIdkAGFU17Vzfn50BGIpyYhQn/zw4OChRODeJ+2QoJekCOj8Bv+A7yo2g5CTEHYiy9PtB8BKUWa973if+XlfqAD4nMvEmSRLvQB0AHkUXRSzKAEHnCyLZ18OeiTDytyxFu9EhJygtBNrIivzt8UYD6DUzwldVDONkSVYe1DRtNS8KmkW/gVDQB4UWZ0azaPv27bKm6R9uu/bnMO+KYbwyZcI9siyfDBGeAECJgZAEQVIAMQZiWNRPfg3zKgC+B/F3GxJhkJMV5TVhGP7P2dbfYGy4WKv/TJKk9VgbwvfrJn7c/AQGQt4C/CSJBevZarV+M2W11y80AKhP/PuaOpau/eskQbwLRkAcQIiC3GCUlYUGyg5EQ3xwyLnI6Psd8Iq9HUZeFO02RmEcVOOPbtf8rZoXZ+l7ImAcWm7LiJOHxpuNi2c7uDCWuW3rgSiKNgD3Dh/qlzPBLEiGrObQvREHEETBjdR/sVh8Xxond+m6rmKdKF0aa0i4/GiTcAcwJzAb+PI5dr84nbWfJ3LytFAacT6WAOuOiEekA3dHOHbtg1kfGHi43bZQRXgPyHE8x5lbZlPIv5dXPRAEhHX0PP/uKWvqgwvZ5z7xL2S1DvCzpq5vjOLk/jVr1nALM6LqIAHgViPLcRa8wg8qQU4tZtj5mz2na/MmKZkHv5PPmnRssoh3SyZEJCAePIt5pEn6UMuxAGAZzDbWkm6+2/Hsr0GMJ8McD4PVNM70yEOA9gHmkabsOwWzcOWOHTtstDkwMFBRZfmzO8fHrxysD3by7lFTkbAFaE4kwmN9oaLkXX30TLe7kOaFn5hXhikwkXjCH064E9vn2oNatXrrZLP5KdgBiInC/sAlkuzF7jEQM0IOAPae2xs07Rzf93/W6373ib/XlTp4nnujwNjfIxKQ66nZDU+HkjD2qUBEr2pBt/g+F9GSWMwt+VkOO0XmETJP3k2Xd43RzU39gVnhhhWYMKcEgPeW1WrroyR9LAiCQahAnMCyrDsCzaAbGT9d190sSOKZjcY0ph+14YTh19vt9ilA44EhFe+SWkEQ2xQd2O1K7Q4WyhfuyDM8Ui1c3/+dF/intFqtybmOkKHr17ie92WMiT75CM+8cTCvelCeA56FB6HtOsWZYilm6rtP/AcPUfc8EkMxTgqT4Gm4ioAERBl1VCwyfzv1ahCcjfjzoi7p2VEUpcDCAmHIGUx3xw2Wi1zr3F45sTkvspIhD5GK/IaVxB8rzeYlM5Tkzq+NOlAsfxYiLm5KGMQwb6wBCJGAQiB2Q4wfHx/3ZVU5rdVqPZ1vpGKa5wiS/EW73T4O0YV4j8BCMcZ8vkC3Cy6vl8/GXGk9Ed8QJ/EzsqKcSFLIDBvN057L5fK57ampB48+6mgN73N8h8zLM6MbMIdeBOIfGxtLRFm5b7I1OW8pMM6Eez5x/QcPqhUwDGNYU9VHZEE8HnosGYAwyPxtNJeluntCM4mW9B1+cl99FIZBENydJun7RVGUjWKRp8HSc2Q1J29E3qjGD1z6ku6Mv1GrkNQTGAHTlD3StKb+aD7jlczYWZqmP6gbRhGRfQiBzargcMIlXRwMCBZ4kUmXx6zjg6epqwVVPU+RlL9zPbcEewqpL2AEVHSk+7YnkZukGGpsJkaAIB2Mwbbsh5rtFuIb5vwg2Mm2rH9dvWq1hPWGTYf673Yz0l6TDQjj3f7idqgxZ9ue98h8ffWJf74VOrj/XRoolu+fsqYuXT6yvHNw81bhXsX+XqaJtsBYwiD8ARPSO1PGHkqZUJckKdV1HVFx/KCjf9xY3ZZx7kpj09Zx+k/RVG4cowKbWTzAz3dM7Do3E1/3iATMjxPGQM92v+L53juGh4eReyvSjQ2xnSQLSsU1jMJXWu32DTOIxdJAsXiNLCubmq1WHYFVeJ+kCPSZ9xB0GwBpTDTf/BiRkgu1Zuf4TlYpVwmauwMHNtO6g7EXNP1JWZZXovwZ2RPyTIf2lSQeglMHAwBmQcRSE17Qufa1T/y9nPqD/BldUa5gKfs6LMa4Renmp5jwOQ9A5qrqDjChA0dW9NzfYRRFCgJVJN+7ymLi/WmanAtCQd/8Ns+s1OQqy7vOQPykinDRNppG8qFyXPh9OgFQeEpqNs6YRwXA4yCkPxYYe/iIwSNiJOTgy7yxjpgSwn0Nw3jKdp3zXdd9mRFuhDHDNozLLMf5cqlYEhBIgzGSPYD87d1wX/n1zUtafE0zYE6sD2DOZFG5IUzCXoA5B6uV6k80WT6FvA/Ub56hp3EyzeSU6fwE9AODZxCFd7Ta7TnLe/eJ/yAn7F6HVyoUTpNU9TumXliOW5RCW+e7+bst+Jm4zctTEcHn28gKTwRhGKopS7+za3Ly7bqivEuU5Lur1aqJvvl7WUx6/jac/v6lIBt+mMVpGG5yS1LCCxeVbfsZIQzOnJiBULvXBVLAVHPq457v3gSjGc2fwmIp/Rl6NETjlLG3MMZehsiTtasYmnalIEo3i4ytKZbLvAAp3IqYF6L6oNbkjap5nTy/phD7wYigkoAw4YoUJPHcOI5niwLcQyooavpXNF2/CsyRPBrddhMaR96+k8GpvTJkbA9bxx6MqtfD1X/u4F+BYrF4BEvSb4qieDZVmSVQSUBkU6gstw+IWYlpcdpXjwMFw5kf+N8QBfEiVVUNIPLgCqZsOjxDOnEYhvHY2JikF4zvNduti0zTHFIU5eFWs3kKPBEdVKIsF4FsEmQ07KQCS2In/RdEkw/gwTteELxoOfaprutuzXbgZTHz+Z0BWrAsy/9ZEsS1CIfF2Cl2nxPotH0i3bp1qyBr2h2u535sDvuCouv6O3bDe33Kc9zVy0aG+bqBYaHgKiUEkX2B3JcgckJgJiZELlB4Y57Z/AyYDyDB90A5mu2EFRTt83GaXItkJbxPUYk0N9QewNzQF8aEf4cq1Wq1nmy7zqmztdu/+Q9+ml7wCEVRvCFNks8BT45uJApmwUHlcNHOtIUcBjfSYTlKThw/H8Xp+6LQv83zvJPK5XJQLpdVMAZCs4EOm2HVx7saDUnR1G82m01eZ65arb7Ld727BwYGTBxUuiHRB6QCiPQQp0E8PE4gnQbM6NabSQ3BbQvknJSxExlj/6vHxZAMw7g6DqPPiqKor1ixAlmAKLgpGFlePSQAWOJd190Zp8kZ8wTjoNsNlUrlhlardebIyAi3L/BEq3ga5guMizD48Td+x/zRD9ke8B3+03U93rlzp5sKbN1M6kfXHDmzU0TlelVT7gRDIzUJ+0CSFuIVKNMT/YH5ggFZtnVhzNiDM61bn/h7PE2H2mOKorzSLBgPpWm6kuPJBUGnyCQZ7qhwJeaWzxCMomjS8tyT3Kmpi0RJ/qtSqRRXq1WJgC0gxlKJKyaI0Zbnt8gD1ep9jWbz6uxgjrA4/XwURxciIIknzGS2BboJ0R/GkVcv8G43I4AfH0S0bdu2JPLjk0MW9soAwGTqaZLcatv2dcuGlnmKgotcn86pRxTk9I0ZP/vcFqg51yVJ8oX59tkwjJNEUbzGtu33lkqlpFquiCQZUZIVDz5SlI4hMw8wAvEdOjk+7an2L6fs9mvn82zkxnS+yITvH3PMMZ0CI+R2pHWjiEDKogyCYHJnY2LlTL7/PvHPt9uH9r+rBa1wm+e7N64cWd4BucCBIbsAGeMwTbJo46fneduExsS6BlPWlUqFn0iyfGS1Wk193xcoDJYXvshAR7duRUKLep/n+5wB4KNJ2gZZlVA6u7Zy+XJ+1qDbE7EQnl63kYxuUv59Vj4LzKbdbqcsjk53o+iJhWyLqqrHK5L0Bcd13zS8bBjltwXERyBuPmHT4jKKdNZqtb9vNBrvYYy9MF/75XK5Fobhu0uGee34xK5Vw8uGOxDckKBA8FhjDsIpTqs2YDpkRMTcwARcD94KH5WBe/oA7zFm7Bd5fMC8DQDEn18/FAAVWPr+Scv62+4O+sTf05If2g9Vi8UzLMe7t16vHVsyzU5qMHkF8hlvxASm48W9XzemWn+A6F1T1z/pe/7Nq1atiiRJkimyDIcaRAwdE9b0VBTv83yvwwBgyD+iXv/TXRMTm6qVKq/0m3dL5f3YdGhptbnKIkk8AAjiLlQP4NiJknRBHMc/WOiumJp5tqarn5psTZ4KtGSIzbCSI1gqK9AZjY2NwVuA8d/XY/tSxTTPdIPw8jAMNg7WB5OBgQER60cqFyQm9MFtGJ7Hm6WISMCB+2HwHxljX+6xP6Yw5YSYRf8CqQqfPfz/SdLZX4p3GB0dDacc+8huINU+8fe64of4c+vXr1d/98zvPhIG3icREwDxk9x4ZCzCFCnxhmCuoyh+ZFezcTY/sIy9tlyu/DCO43qpVApUVZXDMBQhAaAtHPLxiQlowA/Yrn1pfsmKxeLxiqzc7XveGUNDQ51admkm/tOz+UAjjAuJK/my2GAckDIURb3R9d2/XsC2kBVdKpVKb3Fs5y5d046qDFQ58WAO0JHxE8Uy4zj+73EcX8cY+7+99gEwEs/x3l4qFq9zXGcVDHS4/SmzEf2AUfJ5hWHHcMdrCWiFs23Pnjcwh8aiMvYKzTT/uVKpmkTk/N9yxE+GwR07doDJ/antunfm59In/l539jB5rlgsro+j+EuB75+B+HgidmIAZJzCdEFoEFUlSX5ofGKcotPUwXp9U3OyedOyZctis1CQSLQlyC4QUcrYj5vtqUu6dU1Jks6rVqt/Y9v2yhUjy3nFHnIpdgfJ4G+Y00A8kCyoICakDUTtaap+uxd4f763WyMxtqFYqXzUsqxTh4eHkVYsoQ/btkPf98OJiQlD07Qbfd+HyMwThHr9GIpysqSqlyRJeoXv+0dAcqEy4uQ1wfqSzWPLli2tgXpt/cTE3ElA+f7BbFRVfUzTtGN1VZsOSc49kI+ufHFsLLRdZ4/bv0/8ve7mYfZctVj8D1OW/b1KpSLAgEeWfHJJ0Q2MwwlRu2yWvtqy2x3MeOjRBb3woGtZ64aGhiIE11BoL97d1WgwURKfjpPkrG7Ybu6Tn5r6gOd5d4wsG44USZKJCeXj5tE3bn5CLCJrNp4Fw4GaIUnyvZZjfWgRWHaSLMuv03X9M5ZlvaZer4emaQJkQ8RYJiYmkjiOt/m+/54oihaMmDvEmLmDsZOr5fKVrakpAH2yZUPLElVVeTQiqU9gCM1m86lWewqFOaZdCD18UHxUluWfG3rheDDJfAowGVd5GXXfZ1EYv69lte7pSFk9tN9/5PBdAaNcLP9ZksS3gnihl1JWHAiYfPo4PDAcSZJ4n+Ptoc8zU9cvFxj7gihK5eHhYQFGNMrxRxuTrabled6rZnGlVQta4ROe78Ia31FFyAuAZSdXIYyE5G3gTCFD531xbAyi9T9NTDYQtNNdG2ChO7fOMIzrgiC4Ai5CSEaZBBRv3bpV0jTtYd/3kTM/r0Fwlo5VXddPF+L0bUbRfFtjsrGqVC5zO0iWhARp64uO41y7wIGrRw4e8TNN015PxlwS/8FcoDaBWU5MTDxfcIrrd7DpNOf+zb/AVT4cH69Wq6uFOP1Ys926erA+GOPmy0facb98krDNv9vMFFm9I4iC7rDRSlHXP+R63qZKdSCs1+sKnueFKXSN69BsDj89pIhysfwXE41dF3fbIxCUQ7cjVbLhOQJZuW/k81uWldi2/WvLsc9kjI0vdo9wm4ZhuEGWZUgDQ6Zp2vV6XbNtO5qYmABSCgKDPr9QVaBrXKZhGOuSJDmvUChcPDk5iaAfyodAXsOsOICzzM8sF8s/EEXhLIR5+67L7RfkUoVEB8z/mLG3MsYe7hP/Yk/JYfZ+rVBYGUnS7UEQXgr9lNfSy4xTODw4TLxctSjeGiXJbd3TB0a9lAq32J5zZbFUklavXi3Aoi7LcrRlyxY5TdN3McZmBZsEbFfMhE97nvdmSCG47RFWS+I+xoDvsmCkaQkjivgwIBW4rue6vntyDwE7Pe+coignqqp6cRzHb/c8b02tVnNd10U9L8G27Xczxr67SCZAYymoqromjuO1qqrqrus+1PMgcw+WS+UfRmG4oT4wwG0ApIrhETDPyVbrqV2NiVP6xL83q/v/wTswCoauf10Qh1fXa/W4Vqt1AnzADGBtj5IYMFkzWtuRluq67kfjOH7n8uXLUxBKFEXB6Oioits0iqJb5wpsKciF0yq1yq27do2/eXhoiK84QZPBAInfcZChViACkCSBqamppN1u+77rbIgYW7B+Ps/WIkvuDzRNu1gQhMs8z4PxDJ9tuq5/zPO8by/C7rCUp0oVGfuqrmrvRHYixRyAOYIRPL91K9ONwojjOKN9sX8pl/0wawtVZ3VV/ZDjuB/aTbRavV7nAT7wt8PYFkQhXGGzRsWpqrpu9/Of8H3/EuDvOY7jJlFciKLof1uOfdZ8IrqhGCcXCuqtranW2+AehORB3gjAf2EsFDCEBBq40RzHSRqNhugFPpCBZ6yjtwTbJKmqeqwoiqcLgnCO67oXZm1CV/8mY2w6hO8AfoqFwl2u616HYCCeYq0oXDrygiCdmmp9wA/Dv+0T/wHcoEOla4TJikw8XxSFjzdbzVXHHnMsdGxh++iLyOG/MYqi+fzt60zT/HPXdS+vD9T8LMrPbTYmLuzlhq4YlZOTJLje8dx3HjF4RCIIggi1IMPJ454KED8YQxamnLyw9QUxZeym3dm9/2k/rHPVMIy1juO8Xtf1EzzPe1GW5UejKHocQY37of8ZuygVzNsd1775qLVHcRUATBtuBMdxfz4xOXFGn/gP1M4cmv0iQObVnuddJwjC29I01WB1ZyK7iSU9EdlyQzducz3nilKxFLWttlzQ9Vscz7u9l/j2AmMrjcrABzzPvT6TRDp4/hRrAFgxHHLDMJItW7aIekH/tmXbsDXMCg66L7aiUqkMtFotGAdH90X7vbapiuJnkiT9COoEUnHX0bFRVmDFI/vE3+sq9p/rXoFBRVE2SKpyiec4b2YC+zRLUI6qp89yXVXfL4rSh13P1UzDeMJyHITU9pTiyhgrG5p2qSjJHww8b32pUolq1aqM2x/4glltA56KDFBLz/d/6vneRUtkmOtpggfTQ2AAkiR/hGDft2/fnoZh8qY+8R9Mu3TojmWloih/kqapuRvl59MLmMagKIqXGoZxm2VZJVEUb0qSpFtMnyt/X5KZfFqxWry+1WxeUK5UEEUXxnGsUJEQGLwsy4qCIHjBsqzX747bnxNGewFjP6QelWXxM3GUfGTt2tVRo9GIkzj+yz7xH1JbeEgMVt0LEVvSdf0Mz/M+KUnSKlEUzw/D8FcLmS2Mk6IoXhRFESLx1g8PD4eCAPukwpvxfZ9X9GGMIRbgsYW0fbg8q+vaPb7nv3fNmlXh1NTUP/SJ/3DZ2cNkHiDiMAyvEARh+W60ILgEFxq0g9DcPwzD8CpRFN8H9xbi6rNSXf4LL7ygMcb2JojmcFhhdWho8L9YbeuiWq1m94n/cNjSw3QOgOSKougfu0tdL2C6qmmacMehHNhbbdteRskuaZpewBhbcFrwAvo+WB+VykXzJ37gn9Mn/oN1i/rjWuoVQJDOMaZpnmHb9qtLpdJz7Xb7o0vdyaHQ3tAQM9Ok/qX/B8MfO2g/GA/wAAAAAElFTkSuQmCC;" vertex="1" parent="1">
          <mxGeometry x="187.25" y="47.14" width="165.5" height="127.86" as="geometry" />
        </mxCell>
        <mxCell id="RWkYhsvv5Hg0yzNs0XMB-18" value="" style="rounded=1;whiteSpace=wrap;html=1;fillColor=#f5f5f5;gradientColor=#b3b3b3;strokeColor=#666666;" vertex="1" parent="1">
          <mxGeometry x="210" y="250" width="120" height="40" as="geometry" />
        </mxCell>
        <mxCell id="RWkYhsvv5Hg0yzNs0XMB-19" value="Fazer login" style="text;html=1;align=center;verticalAlign=middle;resizable=0;points=[];autosize=1;strokeColor=none;fillColor=none;fontSize=14;" vertex="1" parent="1">
          <mxGeometry x="225" y="255" width="90" height="30" as="geometry" />
        </mxCell>
        <mxCell id="RWkYhsvv5Hg0yzNs0XMB-22" value="&lt;font style=&quot;font-size: 14px;&quot;&gt;Cadastrar&lt;/font&gt;" style="rounded=1;whiteSpace=wrap;html=1;fillColor=#f5f5f5;gradientColor=#b3b3b3;strokeColor=#666666;" vertex="1" parent="1">
          <mxGeometry x="210" y="310" width="120" height="40" as="geometry" />
        </mxCell>
      </root>
    </mxGraphModel>
  </diagram>
</mxfile>
